<?xml version="1.0" encoding="UTF-8" standalone="no"?>
<!-- Created with Inkscape (http://www.inkscape.org/) -->

<svg
   width="1400mm"
   height="560mm"
   viewBox="0 0 1400 560"
   version="1.1"
   id="svg5"
   inkscape:export-filename="/home/naveen/yaka-banner.png"
   inkscape:export-xdpi="96"
   inkscape:export-ydpi="96"
   inkscape:version="1.1.2 (0a00cf5339, 2022-02-04)"
   sodipodi:docname="banner-promo.svg"
   xmlns:inkscape="http://www.inkscape.org/namespaces/inkscape"
   xmlns:sodipodi="http://sodipodi.sourceforge.net/DTD/sodipodi-0.dtd"
   xmlns="http://www.w3.org/2000/svg"
   xmlns:svg="http://www.w3.org/2000/svg">
  <sodipodi:namedview
     id="namedview7"
     pagecolor="#ffffff"
     bordercolor="#666666"
     borderopacity="1.0"
     inkscape:pageshadow="2"
     inkscape:pageopacity="0.0"
     inkscape:pagecheckerboard="0"
     inkscape:document-units="mm"
     showgrid="false"
     inkscape:snap-bbox="true"
     inkscape:bbox-paths="true"
     inkscape:snap-bbox-edge-midpoints="true"
     inkscape:snap-bbox-midpoints="true"
     inkscape:bbox-nodes="true"
     inkscape:snap-text-baseline="true"
     inkscape:snap-center="true"
     inkscape:snap-object-midpoints="true"
     inkscape:object-paths="true"
     inkscape:snap-intersection-paths="true"
     inkscape:snap-smooth-nodes="true"
     inkscape:snap-midpoints="true"
     inkscape:snap-page="true"
     inkscape:zoom="0.093984989"
     inkscape:cx="2468.4793"
     inkscape:cy="452.19987"
     inkscape:window-width="1862"
     inkscape:window-height="1016"
     inkscape:window-x="58"
     inkscape:window-y="27"
     inkscape:window-maximized="1"
     inkscape:current-layer="layer1" />
  <defs
     id="defs2">
    <filter
       inkscape:collect="always"
       style="color-interpolation-filters:sRGB"
       id="filter1775"
       x="-0.2037319"
       y="-0.16620602"
       width="1.4074638"
       height="1.332412">
      <feGaussianBlur
         inkscape:collect="always"
         stdDeviation="31.342022"
         id="feGaussianBlur1777" />
    </filter>
  </defs>
  <g
     inkscape:label="Layer 1"
     inkscape:groupmode="layer"
     id="layer1">
    <rect
       style="fill:#006969;fill-opacity:1;stroke-width:0.27876"
       id="rect1151"
       width="1400"
       height="560"
       x="0"
       y="0" />
    <path
       d="m 1157.2546,184.43389 c -5.4094,-5.55286 -18.7373,-23.80579 -5.8267,-58.41749 l 10.3494,-1.15312 -2.9456,-26.435161 -265.45975,29.578771 c -30.5987,3.4094 -52.72,31.13884 -49.3047,61.79041 l 32.9749,295.94143 c 2.7879,25.02084 11.8127,43.32504 26.8288,54.39122 16.0239,11.82373 33.3012,11.23677 39.1566,10.58432 1.0971,-0.122 1.8064,-0.24182 2.0149,-0.29161 L 1212.9343,520.5729 1175.2569,182.42787 Z m -254.43635,28.35048 c -16.0198,1.785 -30.5235,-9.8468 -32.3159,-25.93263 -1.7923,-16.08576 9.7822,-30.62328 25.8151,-32.40975 l 226.24335,-25.20911 c -6.7845,26.18114 -1.9731,45.58373 4.8353,58.52797 z"
       id="path1611"
       style="mix-blend-mode:normal;fill:#003838;fill-opacity:1;stroke-width:0.831209;filter:url(#filter1775)" />
    <rect
       x="824.4574"
       y="218.89009"
       style="fill:#ffffff;stroke-width:0.831209"
       width="269.87079"
       height="71.4841"
       id="rect53707"
       transform="rotate(-6.3578908)" />
    <path
       d="m 1139.426,158.77479 c -5.4094,-5.55286 -18.7373,-23.80579 -5.8267,-58.41749 l 10.3494,-1.153114 -2.9456,-26.435124 -265.45975,29.578728 c -30.5987,3.4094 -52.72,31.13884 -49.3047,61.79041 l 32.9749,295.94143 c 2.7879,25.02084 11.8127,43.32504 26.8288,54.39122 16.0239,11.82373 33.3012,11.23677 39.1566,10.58432 1.0971,-0.122 1.8064,-0.24182 2.0149,-0.29161 L 1195.1057,494.9138 1157.4283,156.76877 Z m -254.43635,28.35048 c -16.0198,1.785 -30.5235,-9.8468 -32.3159,-25.93263 -1.7923,-16.08576 9.7822,-30.62328 25.8151,-32.40975 l 226.24335,-25.20911 c -6.7845,26.18114 -1.9731,45.58373 4.8353,58.52797 z"
       id="path53709"
       style="fill:#008b8b;fill-opacity:1;stroke-width:0.831209" />
    <path
       d="m 1013.0994,325.69931 c -7.1346,1.49282 -12.8623,1.55328 -17.18276,0.18219 -4.34106,-1.47051 -8.39192,-3.77746 -12.15231,-6.92095 -2.34135,4.62713 -5.2658,8.44534 -8.77309,11.45468 -3.52812,2.91021 -8.71069,5.08066 -15.54799,6.51122 -5.9454,1.24405 -11.6154,1.08571 -17.0099,-0.47491 -5.2955,-1.58113 -9.8799,-4.70739 -13.7533,-9.37868 -3.8941,-4.77043 -6.7016,-11.26791 -8.4225,-19.49243 -1.4721,-7.03547 -1.164,-13.71941 0.9243,-20.05182 2.1666,-6.45223 6.217,-12.0574 12.1511,-16.81563 5.9135,-4.85731 13.8247,-8.32262 23.7339,-10.39595 1.4863,-0.31077 2.9335,-0.56201 4.3415,-0.75328 1.4081,-0.19095 2.5188,-0.32007 3.3323,-0.38627 l 2.5534,15.91096 c -0.7144,0.0438 -1.468,0.1521 -2.2606,0.31788 -0.8135,0.0667 -1.8643,0.23417 -3.1525,0.50445 -11.6975,2.6083 -28.2938,12.50511 -26.804,20.19182 1.1403,5.45001 3.4088,9.37113 6.8053,11.76332 3.3758,2.29311 7.6401,2.90063 12.7929,1.82248 5.5491,-1.16106 9.6188,-3.46056 12.2092,-6.89858 2.68929,-3.45875 3.45356,-7.96268 2.29252,-13.51182 l -0.2489,-1.18907 15.60593,-3.26551 0.21717,1.04058 c 1.14034,5.45001 3.54682,9.29049 7.21981,11.52139 3.67279,2.23089 8.53132,2.714 14.57592,1.44927 4.9546,-1.03664 8.5888,-3.19334 10.9026,-6.47006 2.413,-3.29746 3.0908,-7.47301 2.0334,-12.52667 -1.8824,-1.94295 -6.5992,-5.91972 -12.3328,-7.03848 -2.7837,-0.45192 -6.0998,-0.48202 -9.94792,-0.0903 -3.76989,0.27136 -8.13185,0.92633 -13.08615,1.96247 l -8.02595,1.67934 -1.24404,-5.94548 c -2.01098,-9.61187 -1.44811,-17.79711 1.68831,-24.55574 3.23572,-6.77935 9.65916,-11.17461 19.27049,-13.18573 7.03526,-1.47204 12.83536,-1.18584 17.40036,0.85832 4.6432,1.92451 7.5973,5.90905 8.8619,11.95362 0.3529,1.68454 0.5711,3.96593 0.6564,6.84414 l -16.3637,1.87264 c 0,-0.51594 -0.038,-0.92284 -0.1007,-1.22014 l -0.2489,-1.18913 c -0.8086,-3.86455 -3.6406,-5.28888 -8.49595,-4.27298 -3.17072,0.66356 -5.3622,2.05292 -6.57431,4.16827 -1.13394,1.99558 -1.55111,4.20316 -1.25184,6.62282 4.55793,-0.95369 9.32896,-1.38324 14.3133,-1.28842 4.9638,-0.004 9.6867,0.81751 14.1686,2.4655 4.5604,1.52812 8.5456,4.26259 11.9559,8.20336 3.4103,3.94077 5.8307,9.32982 7.2613,16.16707 1.7001,8.1255 1.6639,15.11467 -0.1116,20.96786 -1.6965,5.73325 -4.7132,10.34649 -9.0504,13.83971 -4.238,3.47249 -9.2802,5.82036 -15.1266,7.04362 z"
       style="font-weight:bold;font-size:40px;line-height:0.75;-inkscape-font-specification:'sans-serif Bold';text-align:end;text-anchor:end;white-space:pre;fill:#ffffff;stroke-width:3.79638"
       id="path53711" />
    <g
       id="g53726"
       transform="matrix(3.3045994,-0.36821112,0.36821112,3.3045994,81.218528,176.3257)">
      <path
         d="m 273.96242,107.91869 c -1.45481,0.13905 -2.75529,-0.0272 -3.90145,-0.49877 -1.11584,-0.47448 -2.13797,-1.24847 -3.06639,-2.32198 -0.57119,1.06392 -1.37047,1.98141 -2.39785,2.75249 -0.99996,0.73787 -2.27282,1.18068 -3.81856,1.32842 -1.60635,0.15354 -2.97325,-0.0675 -4.10068,-0.66324 -1.12742,-0.59571 -2.01751,-1.4282 -2.67025,-2.49747 -0.62243,-1.07217 -0.99304,-2.22958 -1.11181,-3.47224 l -0.0435,-0.45462 -0.73343,1.44645 -7.47861,1.60704 c 1.54063,-2.44117 5.91966,-8.477411 7.40412,-10.546185 1.51477,-2.07167 2.93149,-3.889285 4.25015,-5.452842 -0.62845,-1.775063 -1.60946,-2.598861 -2.94304,-2.471396 -0.7274,0.06953 -1.20577,0.34464 -1.43509,0.825342 -0.20191,0.447495 -0.27535,0.959175 -0.2203,1.535039 0.0319,0.333394 0.0955,0.679043 0.19087,1.036956 0.0953,0.357913 0.20446,0.699217 0.32726,1.02392 l -4.49202,3.395266 c -0.2369,-0.558482 -0.88709,-3.03405 -1.03306,-3.601224 -0.14886,-0.597481 -0.25661,-1.244771 -0.32324,-1.941869 -0.17961,-1.879133 0.28606,-3.40704 1.39701,-4.583719 1.10806,-1.206988 2.79865,-1.919116 5.0718,-2.136386 1.66698,-0.159332 3.07933,0.05741 4.23707,0.650215 1.15774,0.592807 2.11279,1.464966 2.86514,2.616475 2.16864,-1.950655 4.38508,-3.401218 6.64932,-4.351689 2.26423,-0.950471 4.85116,-1.564759 7.76079,-1.842866 3.57642,-0.341839 6.65296,0.0064 9.22963,1.044707 2.57377,1.008 4.58917,2.574033 6.0462,4.698095 1.48443,2.090858 2.3686,4.621408 2.6525,7.591652 0.26362,2.758084 0.0184,5.151903 -0.73581,7.181459 -0.72385,2.02666 -1.85487,3.63345 -3.39303,4.82038 -1.51076,1.15372 -3.31179,1.83053 -5.40308,2.03042 l -0.81833,0.0782 c -0.33339,0.0319 -0.59392,0.0261 -0.78156,-0.0171 l -0.27008,-4.74552 c 0.12414,0.0187 0.26198,0.0208 0.41352,0.006 l 0.40916,-0.0391 c 1.51543,-0.14485 2.69446,-0.60927 3.53709,-1.39328 0.87005,-0.817211 1.44413,-1.850818 1.72226,-3.100824 0.30844,-1.252901 0.39314,-2.606759 0.25409,-4.061572 -0.29259,-3.061169 -1.52163,-5.359951 -3.68713,-6.896344 -2.16549,-1.536393 -5.18799,-2.119185 -9.06749,-1.748377 -2.00037,0.191198 -3.73152,0.479007 -5.19347,0.863425 -1.43164,0.381522 -2.71675,0.856088 -3.85533,1.423698 -1.10827,0.564712 -2.16095,1.23116 -3.15802,1.999343 0.67103,-0.339407 1.42217,-0.640594 2.25343,-0.90356 0.82837,-0.293275 1.69717,-0.483366 2.60643,-0.570274 4.2432,-0.405571 7.53058,0.228369 9.86209,1.90182 2.33152,1.673451 3.65662,4.177151 3.97528,7.511097 0.29549,3.091478 -0.10489,5.622468 -1.20114,7.592958 -1.06594,1.9676 -2.99311,3.08466 -5.7815,3.35118 z m -5.73291,-12.940245 c 0.15064,1.576048 0.54219,2.792628 1.17465,3.649741 0.63246,0.857114 2.70117,2.609644 5.40769,0.919904 4.42636,-5.128211 -3.64597,-7.980258 -8.47338,-7.554497 -1.69728,0.162228 -3.16001,0.378505 -4.38818,0.648819 -3.48817,0.863904 -5.17109,3.017564 -5.17109,3.017564 0,0 -0.0273,0.354339 -0.0431,0.508783 l 0.0261,0.272777 c 0.12167,1.272962 0.36736,2.243508 0.73708,2.911636 0.39713,0.634923 0.85119,1.065598 1.36221,1.292028 0.53842,0.19322 1.09556,0.26231 1.67143,0.20726 1.12142,-0.10718 1.9793,-0.5715 2.57367,-1.392947 0.59148,-0.851757 0.46715,-5.672384 0.63517,-3.914484 l -0.0478,-0.500092 4.50083,-0.430196 z"
         style="font-weight:bold;font-size:40px;line-height:0.75;-inkscape-font-specification:'sans-serif Bold';text-align:end;text-anchor:end;white-space:pre;fill:#ffffff;stroke-width:1.14175"
         id="path53713" />
      <path
         d="m 298.78509,105.5461 c -0.69709,0.0666 -1.49091,0.0814 -2.38145,0.0441 -0.88764,-0.007 -1.67644,-0.0997 -2.36641,-0.27848 l -2.71527,-7.769165 c 0.49943,0.105191 4.01847,1.084013 4.5121,1.128587 0.52104,0.01137 1.02403,-0.0061 1.50897,-0.05247 1.4245,-0.136156 2.48519,-0.558686 3.18208,-1.267591 0.69398,-0.739214 1.11797,-1.743182 1.27198,-3.011908 0.18431,-1.271622 0.41117,-0.498083 0.24605,-2.225674 -0.24624,-2.576232 -0.79825,-4.511528 -1.65602,-5.805889 -0.86066,-1.32467 -2.27603,-1.892853 -4.24609,-1.704553 -0.45462,0.04345 -0.95182,0.121566 -1.49158,0.234325 -0.50945,0.109861 -3.3245,1.882087 -3.88008,2.14929 l 0.93872,-6.043073 c 0.64942,-0.245585 1.33202,-0.463757 2.04784,-0.654518 0.74324,-0.223966 1.69072,-0.390992 2.84244,-0.501075 3.12179,-0.298385 5.69333,0.526316 7.71463,2.474102 2.04872,1.914581 3.28165,5.054092 3.69881,9.418532 0.41137,4.303823 -0.18936,7.618598 -1.8022,9.94432 -1.58542,2.29252 -4.06026,3.59956 -7.42452,3.92112 z"
         style="font-weight:bold;font-size:40px;line-height:0.75;-inkscape-font-specification:'sans-serif Bold';text-align:end;text-anchor:end;white-space:pre;fill:#ffffff;stroke-width:1.14175"
         id="path53715" />
    </g>
    <polyline
       style="fill:#ee1e45;fill-opacity:1"
       points="143.208,102.624 143.208,357.664 226.536,284.064 304.312,356.32 304.312,102.624 "
       id="polyline53719"
       transform="matrix(0.57311899,-0.06385908,0.08090773,0.72612551,940.07765,105.54403)" />
    <path
       id="path0"
       d="m 445.83786,-79.385897 c -6.577,1.41707 -12.6059,5.9985 -15.4775,11.758059 l -2.1174,4.25117 -0.3674,31.46104 c -0.3798,32.7070904 -0.525,33.9859504 -3.3634,30.0509704 -9.7602,-13.5334804 -31.2268,-19.4663804 -36.94422,-10.2145204 -1.44518,2.3352204 -1.47793,3.5414604 -1.47793,52.28593 0,44.38081 -0.12656,50.02329 -1.15244,51.04686 -0.95093,0.95094 -3.18312,1.15236 -12.73477,1.15236 -105.45947,0 -146.52844,132.395328 -59.05729,190.386948 17.20611,11.40671 31.52187,15.60638 55.47368,16.27157 8.7389,0.24132 16.16151,0.7144 16.49641,1.05166 0.3329,0.33491 0.68606,10.89141 0.7799,23.45756 0.37268,49.40493 0.45416,50.58543 4.33548,62.43719 2.19468,6.70583 8.72718,19.28604 11.22868,21.62592 0.2152,0.20151 1.5928,1.85039 3.059,3.66561 1.4663,1.81525 3.3635,4.09191 4.216,5.06159 0.8499,0.96735 1.5671,2.28838 1.5904,2.9325 0.028,0.64411 0.053,5.35438 0.053,10.46983 0.01,10.59395 0.3347,11.28962 4.9655,10.66893 3.0895,-0.41455 9.2706,-4.49243 9.9921,-6.59108 0.8268,-2.40783 3.0918,-2.97466 5.6846,-1.42176 3.0333,1.81992 11.2217,4.82269 17.7472,6.5091 4.7524,1.2297 9.6195,1.32806 65.6132,1.32806 h 60.4815 l 5.8627,-1.70046 c 7.3264,-2.12443 15.0254,-5.13421 16.5737,-6.47632 1.574,-1.36787 2.9699,-0.7167 5.6705,2.6444 3.7219,4.63062 11.4841,7.43428 13.8989,5.01942 0.6022,-0.60195 0.8782,-4.17855 0.8782,-11.32007 v -10.4417 l 4.3614,-5.05456 c 8.1603,-9.45798 14.0018,-20.56723 17.8174,-33.88292 1.4967,-5.22318 1.588,-7.30311 1.8387,-41.41321 0.2276,-30.58499 0.4282,-36.09394 1.3608,-37.12454 0.9345,-1.03293 3.0355,-1.22733 14.1823,-1.31867 60.0621,-0.48952 104.43364,-44.26139 104.45944,-103.05169 0.025,-59.44147 -45.09994,-103.686448 -105.80854,-103.744998 -6.2983,-0.006 -11.9478,-0.32319 -12.5521,-0.70504 -0.9533,-0.60427 -1.1477,-7.42255 -1.4663,-51.62539 l -0.3657,-50.92975 -2.1385,-2.22983 c -6.8885,-7.18832 -24.1087,-2.7287 -34.3795,8.9005404 -2.2297,2.52492 -4.2394,4.40576 -4.4666,4.17622 -0.2296,-0.22731 -0.5039,-14.5757704 -0.6092,-31.8849704 l -0.1949,-31.47273 -2.0143,-3.82487 c -14.6203,-27.7345 -70.2743,-6.382619 -81.8989,31.4212 -1.0353,3.36579 -3.3446,3.16203 -4.1083,-0.36304 -5.195,-23.97287 -42.329,-48.329859 -65.9271,-43.242489 m 14.2948,4.24883 c 23.2327,3.89515 40.6121,19.021359 48.8873,42.549179 l 2.0635,5.86499 v 60.08556 60.08794 l -2.1994,0.5223 c -1.211,0.28807 -4.0896,0.89943 -6.3967,1.36084 -2.3094,0.45908 -5.7408,1.65363 -7.624,2.65612 -1.8832,1.00013 -4.1177,1.72155 -4.9656,1.59974 l -1.5411,-0.22018 -0.3677,-57.54657 c -0.4073,-64.05102 -0.079,-60.16993 -5.5839,-66.55252 -6.5747,-7.62635 -17.5082,-9.90067 -23.1296,-4.81333 -3.6445,3.2979 -3.5415,1.53185 -3.5532,61.24736 -0.01,30.76537 -0.2531,56.29816 -0.5506,56.74085 -0.2948,0.44274 -2.9723,1.02824 -5.9493,1.29761 -2.9746,0.26932 -7.8934,1.3257 -10.9312,2.34458 -4.3847,1.47093 -5.6448,1.65832 -6.125,0.90176 -0.9111,-1.43579 -0.7498,-151.2668 0.1664,-155.24862 2.5343,-10.992129 12.2335,-15.486889 27.8,-12.877629 m 123.5534,0.15236 c 5.2373,1.78481 10.177,6.986899 11.7394,12.360009 1.2671,4.36125 1.0071,154.63025 -0.2694,155.89039 -0.2762,0.26932 -2.9677,-0.31851 -5.9844,-1.30697 -3.0141,-0.99082 -7.9258,-2.00504 -10.9122,-2.25799 -4.0942,-0.34663 -5.4996,-0.74715 -5.7221,-1.62552 -0.1595,-0.64173 -0.3632,-26.40411 -0.4496,-57.24912 l -0.157,-56.08268 -1.7075,-2.39378 c -6.1906,-8.68036 -22.1975,-4.28164 -28.1093,7.72471 l -1.7075,3.46652 -0.3657,57.4693 c -0.4194,65.580498 0.1779,60.509548 -6.7294,57.08517 -4.148,-2.05884 -7.6122,-3.06131 -13.2454,-3.83426 -4.6517,-0.63942 -4.3308,4.2465 -4.0309,-61.25202 0.2875,-62.60817 0.019,-58.42493 4.5603,-70.31649 9.5118,-24.88869 42.6102,-44.654889 63.0908,-37.677319 m -109.9918,48.627309 c 3.8436,1.7473 7.2165,5.43402 8.7203,9.5306 2.0611,5.62139 1.438,111.86323 -0.656,111.65009 -0.8056,-0.084 -4.2699,-1.136 -7.6966,-2.34225 -3.4291,-1.20625 -7.3265,-2.21107 -8.6639,-2.23216 -5.7596,-0.0983 -5.2654,5.31922 -5.2654,-57.82064 0,-50.48707 0.1195,-56.43167 1.1781,-57.94007 2.2814,-3.26043 6.4529,-3.54383 12.3834,-0.84551 m 92.3712,0.0936 c 1.4381,1.38659 1.4686,2.50619 1.663,58.02674 0.2174,62.91735 0.5694,58.44367 -4.6026,58.44367 -2.6654,0 -8.5983,1.62083 -14.1518,3.86471 -3.347,1.35381 -3.9888,1.42406 -4.5838,0.50352 -1.6676,-2.57648 -0.4754,-109.2774 1.2578,-112.50968 4.6775,-8.73423 15.4448,-13.12596 20.4174,-8.32902 m -159.7451,15.18944 c 0.7684,0.42624 2.7147,1.3561404 4.3285,2.0635104 7.357,3.23231 14.9763,14.03942 16.5128,23.4247896 0.3887,2.37505 0.7074,21.52053 0.71,42.59137 v 38.27459 l -1.6044,1.49671 c -0.8809,0.82212 -1.8457,1.49435 -2.1431,1.49435 -0.2948,0 -1.4897,0.80106 -2.6538,1.780098 -3.7968,3.19481 -3.7991,3.18779 -4.0216,-30.418708 -0.2037,-30.78645 -0.2248,-31.17057 -1.8129,-33.18725 -4.298,-5.46447 -10.1302,-7.12043 -13.8356,-3.93262 l -2.1525,1.85036 -0.4028,47.89889 c -0.3869,46.158588 -0.4595,48.112038 -1.991,53.763878 -2.1197,7.82544 -2.5413,91.51144 -0.5011,99.5945 3.8179,15.13324 14.967,26.68285 30.1002,31.17994 7.945,2.361 165.4163,2.44064 173.6446,0.089 14.1051,-4.03568 24.0244,-13.30627 29.62,-27.68764 l 1.923,-4.94214 v -46.91751 -46.91748 l -1.7801,-6.2327 -1.7824,-6.23037 0.1708,-45.453578 c 0.2037,-53.76388 0.3134,-53.12444 -8.938,-51.38883 -8.8513,1.66063 -9.2964,3.56255 -9.2964,39.6378 0,33.074798 -0.019,33.203638 -4.0428,29.528638 -0.5505,-0.503528 -2.1664,-1.740278 -3.5929,-2.747428 l -2.5882,-1.83397 -0.019,-39.84625 c -0.025,-48.2197996 0.071,-48.8264296 9.0856,-58.5631296 7.8254,-8.4531904 22.6144,-12.7511904 27.1255,-7.8816604 l 1.8902,2.0400904 -0.025,121.0354476 c -0.019,99.5594 -0.2037,121.78027 -1.0259,125.21634 -4.455,18.64193 -18.3936,32.36747 -36.3352,35.78481 -5.7525,1.09616 -169.1311,1.054 -174.5346,-0.0442 -14.9459,-3.03791 -28.3716,-14.65074 -33.8689,-29.2874 -3.01207,-8.0269 -2.82945,5.37074 -2.74976,-201.819448 l 0.0165,-51.1663196 1.89958,-1.8995604 c 2.03778,-2.03776 11.22638,-2.25324 14.66468,-0.34665 m 3.6586,47.50774 c 3.5673,2.33288 3.6024,2.70529 3.6024,37.6539 v 32.775008 l -2.8036,2.85285 c -1.5412,1.56696 -3.2816,3.75698 -3.8671,4.86719 -0.586,1.10789 -1.3865,2.01432 -1.7777,2.01432 -0.3931,0 -0.9135,0 -1.1548,0 -0.787,0 -0.2788,-79.296648 0.5179,-80.786328 0.7985,-1.49201 2.5531,-1.29055 5.4832,0.62303 m 213.2167,-0.78939 c 1.3538,1.35381 1.7989,81.685748 0.4522,81.685748 -0.3841,0 -1.2906,-0.85021 -2.0167,-1.89256 -0.7241,-1.04227 -2.7194,-3.52741 -4.4316,-5.523 l -3.1175,-3.62814 V 74.017232 c 0,-35.54122 -0.063,-35.00014 4.5558,-37.95841 2.9066,-1.85973 3.094,-1.87848 4.5579,-0.41455 m -152.5683,59.99894 c 17.8409,4.888268 32.0091,18.461548 38.3238,36.717018 2.0096,5.80643 2.0307,6.07811 2.3211,28.01324 l 0.2901,22.14589 -2.0728,0.46141 c -8.0598,1.7918 -13.5242,4.65871 -18.2509,9.5798 -2.0869,2.1689 -3.9981,3.94431 -4.2534,3.94431 -0.2528,0 -0.461,-8.34307 -0.461,-18.53886 0,-25.16739 -1.5343,-30.80048 -10.9758,-40.23974 -9.9194,-9.9194 -28.0881,-13.89888 -43.2752,-9.47904 -10.9102,3.17606 -17.9909,9.205 -23.296,19.83645 l -2.7264,5.45978 v 30.82859 30.82861 l 2.7615,5.49725 c 2.6748,5.33094 6.9916,10.64082 10.5378,12.96431 3.1058,2.03543 2.2906,4.11299 -1.3866,3.53444 -8.5024,-1.33506 -13.3719,-4.53926 -16.5387,-10.88205 l -1.6817,-3.36579 0.2647,-42.36183 c 0.2575,-41.1907 0.3089,-42.49065 1.8527,-46.9526 7.5256,-21.74307 22.687,-35.021248 44.8774,-39.300528 3.6843,-0.71201 19.5085,0.1639 23.6894,1.30931 m 112.9923,-0.70273 c 18.9535,3.62581 34.4357,17.569158 41.3875,37.269798 l 2.6397,7.48112 v 42.15335 42.15102 l -2.0166,3.42904 c -3.5767,6.08514 -7.4039,8.45783 -15.7587,9.77183 -3.1597,0.49653 -5.8135,-1.60676 -3.066,-2.42891 4.2652,-1.2812 13.0346,-14.10731 14.529,-21.25352 1.2999,-6.20928 1.0915,-54.49227 -0.2581,-59.66864 -2.3984,-9.2097 -9.3501,-17.90645 -17.9884,-22.50661 -13.8707,-7.38744 -35.4546,-5.97038 -47.2852,3.10348 -11.8659,9.1043 -14.2947,16.30201 -14.2947,42.35947 0,10.3855 -0.2649,19.04711 -0.5852,19.24621 -0.3228,0.19903 -2.3844,-1.4639 -4.5815,-3.69373 -4.1481,-4.20666 -8.247,-6.6426 -13.8941,-8.2564 -6.8581,-1.96045 -6.1719,0.62075 -5.9751,-22.47149 0.1288,-15.35575 0.4496,-21.56973 1.2812,-24.8676 7.5584,-30.01352 35.3468,-47.657628 65.8664,-41.818418 m -199.69257,1.88314 c 1.35622,0.72612 1.43112,1.65833 1.43112,18.018898 v 17.25298 l -1.64889,-0.23418 c -1.62321,-0.23198 -1.65596,-0.44502 -2.0167,-13.06506 -0.42135,-14.74442 -0.93687,-16.14037 -7.03143,-19.091618 -10.50731,-5.08734 -18.61848,2.019008 -18.63723,16.330128 -0.0165,12.29911 -0.5763,12.21247 -5.85093,-0.90412 -4.19727,-10.43467 -12.93389,-13.46322 -21.15279,-7.32886 -6.05703,4.51817 -6.5231,9.50715 -1.8785,20.11052 4.47842,10.22857 3.76169,10.78837 -4.00518,3.13389 -10.31997,-10.17471 -15.03016,-11.07881 -22.32868,-4.28394 -6.659,6.19755 -5.544,13.24071 3.47827,21.98427 3.059,2.9653 5.56286,5.68698 5.56286,6.04769 0,0.36304 0.33018,0.6582 0.73301,0.6582 0.40282,0 0.73298,0.36776 0.73298,0.81745 0,1.03527 -1.03061,0.7097 -9.23084,-2.90205 -11.02961,-4.86016 -15.78432,-4.47837 -20.45245,1.64424 -6.59341,8.64523 -2.59054,17.70972 9.78589,22.15528 5.73381,2.06118 9.97792,4.57677 8.08311,4.79225 -0.55769,0.0631 -4.83208,0.14742 -9.49784,0.18284 -12.47946,0.10075 -17.53402,3.8764 -17.53872,13.10717 -0.008,9.35026 4.94684,12.9784 17.73781,12.99712 12.42795,0.0165 12.11882,1.09383 -1.78006,6.2257 -9.36664,3.45949 -12.63643,13.20087 -7.05959,21.0357 4.52056,6.34748 11.90567,6.39198 24.23526,0.14276 6.44113,-3.26273 6.2749,-1.6091 -0.51077,5.10142 -10.7111,10.58929 -11.25915,19.33288 -1.56929,25.01047 6.73858,3.94904 12.11174,2.0284 21.1949,-7.57715 5.55111,-5.86965 7.2493,-5.65651 4.20197,0.52697 -6.74567,13.6834 -6.50674,19.76856 0.9744,24.82546 8.6757,5.86262 16.03973,1.90658 21.72901,-11.67375 3.88343,-9.26826 4.38937,-9.01763 4.40573,2.19468 0.0165,13.02523 3.53211,17.75422 13.1939,17.74486 10.02012,-0.011 11.9946,-3.08006 12.47476,-19.40316 0.36121,-12.2593 0.39572,-12.48651 2.01671,-12.71605 l 1.64888,-0.23417 v 17.13116 c 0,20.65627 1.09152,18.89488 -11.69248,18.87849 -35.70047,-0.0497 -64.31094,-13.63656 -84.12636,-39.95633 -37.79677,-50.20133 -19.35624,-123.82508 37.53686,-149.86615 2.01662,-0.92282 4.28395,-1.99559 5.03818,-2.38438 9.18394,-4.736018 46.35765,-9.350228 51.8127,-6.429458 m 288.43789,0.41693 c 5.3427,0.63475 20.7781,4.677468 24.1908,6.333428 11.8236,5.73851 18.5224,9.87959 26.5259,16.39805 11.41614,9.29872 20.73824,22.14592 28.13964,38.7782 8.7741,19.7217 8.91,54.23701 0.2876,73.42232 -11.6339,25.88178 -25.23074,40.59575 -49.02084,53.0401 -6.8207,3.56724 -8.3711,4.14343 -18.0282,6.68241 -13.2267,3.47824 -40.3264,5.06395 -41.3407,2.41955 -1.0961,-2.85754 -0.478,-34.59259 0.6816,-35.03764 1.6069,-0.616 1.7146,0.0889 1.9559,12.73713 0.3071,16.05842 2.7966,19.79432 13.1891,19.79432 h 5.0593 l 3.5204,-3.52275 c 4.0216,-4.02162 4.6634,-6.14605 4.4549,-14.75614 -0.2876,-11.92201 0.3373,-12.06724 4.4971,-1.04696 5.2583,13.93166 15.1122,17.72844 23.5091,9.0551 5.1904,-5.36374 5.3356,-7.89805 1.0399,-18.07509 -4.9069,-11.62222 -4.5649,-12.0321 3.4105,-4.11766 10.0973,10.02012 17.2903,11.128 23.4808,3.62111 5.81584,-7.05718 4.67054,-11.90096 -5.1834,-21.8953 -6.1061,-6.19522 -7.2726,-9.57743 -2.1618,-6.27723 7.2095,4.65638 17.27644,6.70586 21.53224,4.3847 11.3318,-6.18586 9.0247,-20.36112 -4.127,-25.35245 -12.91754,-4.90467 -12.93394,-5.56284 -0.1482,-5.57923 12.3108,-0.0165 17.7776,-4.04974 17.726,-13.07206 -0.051,-8.9216 -5.5745,-12.94089 -17.8853,-13.02287 -4.8719,-0.0327 -9.14884,-0.11475 -9.50724,-0.18284 -1.1968,-0.23198 2.81314,-2.77087 6.51384,-4.12705 15.0887,-5.53002 19.2182,-14.92009 10.512,-23.89085 -5.2068,-5.36375 -9.2354,-5.41061 -20.33304,-0.24132 -10.4347,4.86016 -10.6549,4.37531 -1.9207,-4.22775 9.84454,-9.69688 11.00394,-16.53155 3.9233,-23.13432 -6.7925,-6.33579 -12.6293,-5.0499 -22.591,4.97725 -6.2373,6.27956 -6.6121,6.53721 -6.6121,4.54162 0,-1.16175 0.2762,-2.42655 0.6161,-2.81068 4.1106,-4.65171 6.6379,-16.10765 4.5182,-20.48529 -5.8791,-12.14452 -20.1082,-10.13487 -25.4438,3.59533 -1.1103,2.85991 -2.7639,6.51613 -3.675,8.12995 l -1.6559,2.93249 -0.051,-2.19937 c -0.025,-1.21095 -0.1123,-5.68698 -0.1925,-9.9522 -0.2202,-11.88218 -5.3099,-17.658158 -14.5922,-16.557308 -9.1418,1.08211 -11.1444,4.684488 -11.4465,20.585988 -0.2436,12.67621 -0.473,14.03472 -2.2018,12.96431 -1.2882,-0.79398 -1.26,-33.533908 0.025,-35.086808 0.8499,-1.02591 19.4172,-0.85729 28.8003,0.25751 m -150.515,1.42409 c 10.9173,2.297748 12.5779,3.881098 8.2072,7.834798 -5.6447,5.10843 -11.772,14.632 -14.1635,22.01242 -0.4893,1.51073 -1.1125,2.74276 -1.3842,2.73573 -1.2062,-0.0247 -2.1807,-1.29761 -3.059,-3.98415 -2.1736,-6.66839 -7.3101,-14.38374 -13.7958,-20.73119 -4.3402,-4.2465 -3.586,-5.04053 7.1977,-7.574818 6.9752,-1.63957 10.3176,-1.69579 16.9976,-0.29279 M 372.305,103.09599 c 4.74303,2.28371 5.31224,3.87876 5.57926,15.6134 0.26739,11.85879 0.002,13.72557 -2.04715,14.37437 -3.56955,1.13364 -4.28394,-0.42396 -4.54626,-9.91006 -0.40546,-14.59685 -4.27695,-14.20103 -4.27695,0.43802 0,9.02702 -0.47804,10.13957 -4.17149,9.71797 l -2.05884,-0.23665 -0.22485,-11.72994 c -0.25504,-13.37189 0.34435,-15.55018 4.95381,-17.9861 3.22056,-1.70516 3.78978,-1.72857 6.7925,-0.28106 m 289.57163,0 c 4.7781,2.30007 5.3145,3.83895 5.5792,15.98347 0.2856,13.1189 0.063,14.37904 -2.5766,14.37904 -3.9513,0 -4.6258,-1.57399 -4.6258,-10.76496 0,-6.97287 -0.1925,-8.41569 -1.1734,-8.79043 -1.9653,-0.75425 -2.4689,1.23903 -2.4806,9.81634 -0.019,9.22611 -0.9181,10.89846 -4.9186,9.07618 l -1.7872,-0.81514 0.232,-12.38109 c 0.2547,-13.64123 0.5126,-14.44463 5.3567,-16.57372 2.9442,-1.29526 3.5766,-1.28823 6.3943,0.07 m -320.17425,7.32422 c 0.99777,0.6535 2.6092,2.89035 3.58122,4.96792 2.74518,5.88137 4.13644,9.09024 4.13644,9.54698 0,0.23198 0.87376,2.26494 1.94172,4.52054 2.20174,4.64702 1.66766,6.11794 -2.32352,6.41307 -2.00264,0.1477 -2.26263,-0.20151 -5.2911,-7.1743 -3.71011,-8.54219 -4.70557,-9.85617 -6.40137,-8.44849 -1.46857,1.2203 -1.36551,1.58804 3.59766,12.80505 l 1.92767,4.35892 -1.86436,1.86444 c -2.5367,2.53665 -3.79209,1.60677 -6.42246,-4.76882 -1.15241,-2.79193 -2.4008,-5.73848 -2.77323,-6.54421 -3.76634,-8.15571 -4.18789,-10.74857 -2.30947,-14.25023 2.56009,-4.77583 7.78327,-6.18587 12.2008,-3.29087 m 352.56155,-0.77529 c 4.4128,2.09395 6.1085,7.8793 3.8319,13.0744 -0.5549,1.2695 -1.7286,4.12235 -2.6046,6.34045 -0.8763,2.21813 -1.8996,4.69152 -2.272,5.49958 -0.3727,0.80579 -1.0094,2.38208 -1.417,3.49933 -0.958,2.64909 -2.3915,3.13625 -4.7314,1.6021 -2.4616,-1.61383 -2.457,-1.66066 1.4382,-10.50967 2.6163,-5.94227 3.1456,-7.78561 2.4757,-8.5937 -2.0963,-2.52492 -3.7686,-0.43799 -7.2211,9.0036 -2.0916,5.71743 -3.5321,7.14152 -6.1976,6.12967 -3.0753,-1.1688 -2.9676,-2.14082 1.3327,-12.11177 6.2866,-14.57813 8.9381,-16.9836 15.3652,-13.93399 M 313.5258,128.06397 c 3.45479,2.29069 16.8407,16.00454 16.8407,17.25295 0,1.21564 -2.57645,3.5368 -3.9232,3.5368 -0.36563,0 -3.53916,-2.81304 -7.05488,-6.25145 -4.62593,-4.5299 -6.72927,-6.12261 -7.62401,-5.77832 -2.11037,0.80807 -0.679,3.2604 5.46453,9.37601 3.19478,3.17842 5.80637,6.01955 5.80637,6.31704 0,1.03527 -3.04722,4.40106 -3.98418,4.40106 -1.06566,0 -14.59452,-13.53114 -16.66036,-16.66273 -4.6423,-7.04076 4.23949,-16.76578 11.13503,-12.19136 m 409.73106,0.7284 c 6.42474,5.38713 5.3731,8.92626 -6.1249,20.59768 -8.1324,8.25874 -8.0387,8.20487 -10.4558,5.93291 -2.5508,-2.39614 -2.1995,-3.18545 4.1668,-9.35729 5.8017,-5.62606 7.1367,-8.19784 4.7314,-9.11832 -0.7658,-0.29513 -2.8365,1.35847 -6.4131,5.12248 -6.3593,6.69177 -7.4249,7.3593 -9.7602,6.10855 -3.7194,-1.99089 -3.1175,-3.23931 5.694,-11.81895 10.355,-10.08101 13.5007,-11.37396 18.1618,-7.46706 m -268.2385,4.91167 c 8.6476,4.21135 15.1918,12.09302 17.794,21.42919 1.9558,7.01034 1.827,52.2367 -0.1664,58.7903 -9.4392,31.04177 -51.3818,31.44462 -61.8773,0.59492 -1.9558,-5.75021 -1.8293,-54.89282 0.1567,-60.66647 6.3967,-18.59273 27.4957,-28.23339 44.0927,-20.14797 m 141.8277,-1.14769 c 0.8083,0.45666 2.621,1.34445 4.0333,1.96981 6.0828,2.69829 12.7652,10.45811 15.8125,18.3585 1.3093,3.39393 1.4147,5.77129 1.4147,31.88966 v 28.22637 l -2.3773,5.03583 c -13.379,28.3552 -52.7404,25.13695 -60.7579,-4.97025 -1.2835,-4.82033 -1.4358,-51.14287 -0.1881,-57.02894 2.2087,-10.40192 10.3105,-19.54133 20.7827,-23.44351 4.174,-1.5529 18.56,-1.57868 21.2794,-0.0373 m -212.78125,4.45729 c 1.1758,0.10075 1.28353,1.33742 1.28353,14.73506 0,16.99532 0.43555,16.11464 -7.71068,15.59231 -23.57227,-1.51309 -39.85323,13.44681 -36.204,33.2669 2.87388,15.58995 13.00175,22.87901 32.91785,23.68943 l 10.62909,0.43094 0.20178,14.24317 c 0.11695,8.35246 -0.0911,14.5313 -0.50108,14.94118 -2.98872,2.98872 -30.52649,-0.19218 -40.02664,-4.62124 -51.78235,-24.14854 -42.14861,-101.12636 13.93635,-111.36666 5.94466,-1.08446 18.35616,-1.52948 25.47424,-0.91112 m 286.19181,1.1758 c 55.5861,11.93138 64.21974,87.40316 12.7278,111.26593 -9.0435,4.19028 -36.7968,7.3125 -39.6495,4.46198 -0.4143,-0.41454 -0.6205,-6.5536 -0.5039,-14.94587 l 0.2018,-14.24317 10.6291,-0.43094 c 19.9208,-0.81045 29.6012,-7.78563 32.5922,-23.4927 3.825,-20.06599 -11.3621,-34.38881 -35.5247,-33.50579 -3.4267,0.12656 -6.645,-0.0354 -7.1485,-0.35363 -1.2438,-0.79398 -1.3163,-28.39504 -0.071,-29.63407 1.1547,-1.15708 20.1854,-0.53172 26.7508,0.87835 m -197.2759,2.82976 c 8.6687,8.94971 9.1394,11.71823 9.1394,53.66313 0,37.86704 0.497,34.80807 -5.8625,36.30008 -9.5775,2.24388 -14.6625,10.57757 -14.6625,24.02909 0,9.93345 1.4171,9.13005 -15.871,8.98485 -24.7716,-0.20837 -39.2513,-8.93332 -44.088,-26.56339 l -0.7383,-2.6936 2.3071,1.4124 c 8.3477,5.11312 8.0456,5.05689 27.4136,5.06626 23.0851,0.008 29.1375,-1.89723 37.9163,-11.9314 8.5445,-9.7695 9.3525,-14.023 9.0386,-47.69041 -0.2762,-29.77224 -0.2435,-29.56379 -6.3708,-38.6072 -3.8648,-5.70101 -3.9468,-5.86496 -2.9115,-5.86496 0.5038,0 2.6139,1.752 4.6892,3.89515 m 85.0837,-0.22732 c -1.4476,2.01665 -2.6351,3.88812 -2.6351,4.15747 0,0.26932 -0.4521,1.01185 -1.0048,1.6466 -4.5205,5.20446 -6.467,58.46007 -2.5554,69.88317 6.3475,18.53653 17.6183,24.74815 44.8938,24.74112 18.6326,-0.005 20.6118,-0.31385 26.0575,-4.0591 6.6823,-4.59549 2.2345,6.97754 -5.8041,15.11216 -9.6032,9.71563 -15.0349,11.5496 -34.7285,11.72291 -17.2482,0.15237 -15.8616,0.91819 -15.8616,-8.75528 0,-13.93635 -5.6121,-22.51599 -16.1287,-24.65914 -4.6471,-0.94863 -4.3964,1.18049 -4.3964,-37.46184 0,-42.71549 0.019,-42.83496 9.0925,-52.11728 4.8157,-4.92575 6.5419,-5.04284 3.0708,-0.21084 m 24.4904,11.78148 c -7.5115,0.84551 -13.6645,5.48086 -17.4403,13.14235 -2.8178,5.71506 -3.073,31.02534 -0.3727,36.81538 8.4367,18.08682 34.2411,18.17113 42.4952,0.14057 2.6163,-5.7151 2.3938,-33.21067 -0.309,-38.09426 -4.7476,-8.57963 -14.0581,-13.16576 -24.3733,-12.00401 m -150.6508,1.63021 c -4.476,2.14315 -8.6265,6.26084 -11.2381,11.14439 -2.7895,5.22088 -3.0285,31.40012 -0.3399,37.18313 8.2611,17.76592 33.6698,18.39364 41.9544,1.0376 l 2.2461,-4.7079 -0.044,-14.55705 c -0.044,-16.57136 -0.471,-18.40533 -5.6401,-24.40616 -6.0992,-7.0806 -18.5506,-9.71331 -26.9405,-5.69401 m -131.99711,3.08475 c 3.29084,1.41237 7.77857,3.19948 9.97559,3.9701 4.60484,1.61615 5.48788,3.52741 2.89977,6.28189 l -1.58107,1.68175 -6.72692,-2.94655 c -8.2704,-3.62111 -10.38078,-4.07319 -11.03428,-2.36803 -0.75425,1.96515 0.54534,2.92077 7.99645,5.86732 8.23529,3.2604 9.15347,4.08488 7.59356,6.82295 -1.58337,2.7826 -5.84165,1.62552 -20.30258,-5.51597 -7.23991,-3.57894 -8.17448,-10.81649 -1.92764,-14.93648 3.10572,-2.04712 6.33339,-1.76605 13.10712,1.14302 m 441.57855,-0.75187 c 4.1692,3.50869 4.7195,7.63338 1.5529,11.6597 -1.6256,2.0682 -3.7054,3.16436 -13.4984,7.10871 -3.22534,1.29761 -6.26084,2.66781 -6.74574,3.04492 -2.471,1.91361 -6.071,-2.75682 -3.7944,-4.92576 0.555,-0.52938 3.9795,-2.20637 7.6076,-3.7265 8.20034,-3.43371 8.61724,-3.73353 7.65694,-5.52536 -1.0329,-1.93 -1.8926,-1.7918 -9.57754,1.54354 -7.8722,3.41266 -8.8724,3.53211 -10.1231,1.19456 -1.2907,-2.41017 -0.7499,-4.291 1.4146,-4.92339 1.0073,-0.29279 5.2959,-2.01668 9.5306,-3.83193 9.18164,-3.93262 12.79104,-4.29802 15.97654,-1.61849 m -357.03972,15.65324 c 0.72147,0.45905 0.88534,5.75957 0.73298,23.99861 l -0.19465,23.4084 -10.99444,-0.0302 c -12.57313,-0.0354 -15.36983,-0.8479 -21.10126,-6.132 -13.72557,-12.65046 -8.49069,-35.14301 9.46259,-40.65431 3.86476,-1.18753 20.45724,-1.63022 22.09445,-0.59031 m 280.88411,0.62075 c 17.9252,5.38952 23.2046,27.512 9.6595,40.47631 -5.7385,5.49258 -8.2495,6.24442 -20.9585,6.27956 l -10.9945,0.0302 -0.3676,-22.59094 c -0.2018,-12.42326 -0.1288,-23.22803 0.1595,-24.008 0.726,-1.95343 16.1966,-2.08227 22.5019,-0.18751 m -359.83649,14.18931 c 1.73563,0.92987 1.81291,2.75215 0.21331,5.03584 -1.16172,1.65829 -1.48023,1.70749 -8.79273,1.38192 -6.47635,-0.28807 -7.7528,-0.15456 -8.71084,0.9041 -1.91595,2.11504 0.19217,2.84815 8.84665,3.07302 8.49536,0.22265 10.85166,1.54119 9.42054,5.27005 -0.87374,2.27432 -23.76208,1.68641 -26.57984,-0.68626 -5.56517,-4.68215 -4.14575,-12.97136 2.56714,-14.98334 3.0145,-0.90176 21.34491,-0.8994 23.03593,0.005 m 439.71187,-0.0511 c 6.6589,1.90894 8.3266,10.48389 2.9254,15.0302 -2.1665,1.82225 -2.4313,1.85739 -14.2713,1.85739 -13.07674,0 -13.22664,-0.05 -12.14454,-4.03101 l 0.5978,-2.19935 8.49304,-0.20618 c 8.9755,-0.21798 11.4208,-1.08446 8.9192,-3.15969 -0.8781,-0.73079 -3.1995,-0.93688 -8.7248,-0.77532 -8.71084,0.25532 -12.75824,-2.5952 -9.01064,-6.34278 1.0845,-1.08444 19.56014,-1.22264 23.21634,-0.17324 m -220.47314,2.40314 c 12.1258,5.47383 16.7706,14.00661 16.7706,30.82159 v 10.78838 h -1.745 -1.7426 l -0.3071,-11.17954 c -0.4824,-17.62071 -6.2187,-25.79277 -19.874,-28.31772 -16.4941,-3.04961 -27.0669,7.68957 -27.519,27.94999 -0.2578,11.49338 -0.2674,11.54727 -1.9488,11.54727 -4.6118,0 -3.4829,-21.18091 1.5881,-29.85191 2.0541,-3.51102 9.0856,-10.22388 11.9126,-11.3716 6.4154,-2.60925 7.2586,-2.77321 12.8753,-2.51789 4.2793,0.19684 6.9799,0.7729 9.9897,2.13143 m -4.1739,6.88384 c 9.5774,3.26276 13.613,11.39035 13.613,27.4113 0,9.27061 -0.2717,10.36208 -3.4032,13.70445 -3.7077,3.9584 -4.8882,7.88633 -5.2349,17.43568 -0.3815,10.51434 0.3273,9.87022 -10.9242,9.88425 -13.1891,0.0192 -12.6903,0.4123 -12.7113,-10.05056 -0.019,-9.70625 -1.0892,-13.25008 -5.3403,-17.65347 l -2.34,-2.42658 v -12.23589 c 0,-11.19123 0.1406,-12.52162 1.642,-15.56654 4.6306,-9.39709 15.002,-13.80754 24.6989,-10.50264 m -211.57964,18.08427 c 1.34914,2.82474 0.73034,3.37518 -7.93075,7.07357 -7.93555,3.38923 -8.65695,3.93965 -7.3055,5.56753 1.28592,1.55054 2.11504,1.38659 9.88195,-1.94643 6.75964,-2.89735 7.07824,-2.96294 8.45544,-1.71685 1.97687,1.78714 1.85975,4.49945 -0.22045,5.13654 -1.44048,0.43802 -4.64938,1.75433 -9.71322,3.98651 -11.50516,5.06626 -15.10515,4.77347 -18.34219,-1.48734 -3.41257,-6.59811 0.51519,-10.67126 15.62985,-16.21535 2.29768,-0.8432 4.50409,-1.83397 4.9023,-2.20404 1.29989,-1.20159 3.63981,-0.29279 4.64227,1.80586 m 422.10758,1.53182 c 12.1257,5.06861 15.2316,8.03389 13.9129,13.28287 -1.4382,5.73146 -7.6896,8.32669 -13.6764,5.67993 -1.7872,-0.78937 -6.28894,-2.70529 -10.00614,-4.25583 -7.3405,-3.06134 -8.1275,-3.88112 -6.3452,-6.60047 1.5249,-2.32583 1.6303,-2.31177 9.7157,1.1758 7.32654,3.1597 9.25194,3.37988 9.25194,1.05402 0,-1.52948 -1.1336,-2.22512 -10.09744,-6.19289 -5.5348,-2.45 -6.3803,-3.59533 -4.6284,-6.26784 1.5413,-2.34927 0.8902,-2.46639 11.87304,2.12441 m -410.57914,19.84111 c 2.12445,2.12443 2.27902,3.61175 0.51522,4.97495 -4.89761,3.78973 -10.64551,10.79538 -9.746,11.87984 1.48265,1.78481 2.01203,1.48499 7.7059,-4.35892 5.9985,-6.15541 8.2189,-6.92834 10.3902,-3.61174 l 1.23669,1.88553 -8.54919,8.34307 c -10.95464,10.69701 -15.94367,11.69247 -19.93246,3.97946 -2.66543,-5.15762 -1.90659,-6.74567 8.25404,-17.29045 8.13465,-8.43911 7.72238,-8.20254 10.12549,-5.80174 m 166.83571,-0.33029 c 8.2564,3.77803 10.1724,7.46942 10.1724,19.59755 0,8.50233 -0.079,8.98952 -1.4663,8.98952 -1.3656,0 -1.4662,-0.49185 -1.4756,-7.14618 -0.019,-12.61999 -4.0989,-18.51076 -12.8191,-18.51076 -8.4743,0 -11.9712,4.74072 -12.2547,16.61589 l -0.2081,8.67568 h -1.8317 c -2.8177,0 -3.1549,-13.17749 -0.4869,-19.00498 3.9655,-8.65925 12.8262,-12.66918 20.3705,-9.21672 m 65.6555,0.62303 c 6.9588,3.57658 9.0293,7.96128 9.0293,19.09631 0,8.85132 0,8.86773 -1.7426,8.86773 -1.7286,0 -1.7474,-0.0914 -2.0471,-9.07619 -0.4237,-12.69263 -4.1036,-17.2038 -13.407,-16.43085 -8.0949,0.66989 -10.9571,4.99367 -10.997,16.61353 l -0.025,8.52811 h -1.8316 c -2.82,0 -3.1621,-13.89419 -0.4868,-19.73809 3.8412,-8.38991 13.571,-11.94543 21.5136,-7.86055 m 164.1749,5.42227 c 8.5796,8.71551 9.8022,10.36914 9.8022,13.27116 0,4.34486 -4.9679,9.27061 -9.3478,9.27061 -4.3121,0 -20.7617,-16.65336 -19.0424,-19.27901 2.2438,-3.42201 3.6093,-2.96997 9.7835,3.23931 6.0126,6.05003 6.83,6.49974 8.3782,4.6353 0.8126,-0.97905 0.096,-1.99793 -5.0429,-7.16258 -6.4786,-6.51376 -6.8018,-7.23049 -4.394,-9.79291 2.1408,-2.28135 1.5365,-2.63737 9.8632,5.81812 m -232.4795,1.60446 c 4.2208,1.7637 5.4855,4.76411 5.4878,13.01348 0,8.41569 0.3487,8.08309 -8.3945,8.10654 -8.753,0.0247 -8.4625,0.29043 -8.4625,-7.7388 0,-11.1725 4.3659,-16.30671 11.3692,-13.38122 m 66.2855,1.03527 c 3.1574,2.28602 5.509,17.97671 2.9349,19.56708 -0.6418,0.39591 -9.4861,0.63245 -14.796,0.39349 -2.6164,-0.11695 -1.8339,-15.508 0.9533,-18.6794 3.1668,-3.60705 7.0666,-4.06613 10.9078,-1.28119 m -210.68714,7.89102 c 2.58345,1.6911 2.13376,4.2418 -2.31644,13.19854 -1.4429,2.90438 -1.10091,5.77832 0.68872,5.77832 1.54593,0 2.47111,-1.52482 5.78535,-9.52121 2.61159,-6.30767 3.7125,-7.13685 6.48573,-4.89061 l 1.74264,1.41001 -4.2325,9.89597 c -6.10386,14.27132 -10.30583,16.97894 -17.26234,11.12567 -3.74289,-3.15031 -3.64683,-5.34735 0.71706,-16.51047 4.97956,-12.73477 4.97256,-12.72541 8.39221,-10.48622 m 297.98731,56.95399 c -0.025,60.50952 -0.1362,62.84707 -3.4056,73.45274 -2.7123,8.7881 -7.912,18.46626 -14.5172,27.01545 -2.4898,3.21823 -2.6139,1.00013 -2.6139,-46.76289 0,-50.76111 0.044,-50.1123 -3.8155,-53.73108 -3.1621,-2.96293 -6.0337,-3.49226 -9.4042,-1.7356 -3.9795,2.0729 -4.3425,1.9745 -7.3592,-1.98623 -1.7357,-2.28133 -4.0803,-4.18088 -6.9636,-5.64009 l -4.3472,-2.19938 -70.8694,-0.19437 -70.8715,-0.19217 -4.2723,1.58571 c -3.2276,1.19922 -5.3216,2.68654 -8.5703,6.08747 l -4.3003,4.50181 -3.4689,-1.71688 c -4.3589,-2.15721 -8.076,-1.05635 -11.0226,3.26509 l -1.834,2.68421 -0.1993,48.18229 c -0.2205,53.49684 -0.071,52.08447 -4.743,45.54026 -8.3618,-11.72059 -11.9174,-19.80604 -15.04658,-34.23425 -1.26486,-5.82515 -2.2978,-121.32821 -1.08447,-121.32821 1.14536,0 2.85985,1.78714 4.57905,4.76646 5.612,9.725 21.1013,19.83412 33.2762,21.71493 10.5191,1.62319 174.0734,0.40758 179.0108,-1.33273 10.4089,-3.66561 20.8085,-11.08816 25.6077,-18.27418 3.1972,-4.78519 5.6073,-7.73641 6.0008,-7.34292 0.1425,0.14276 0.2479,26.18627 0.2347,57.87448 m 52.5108,-57.57705 c 1.5623,1.00716 8.3244,18.72624 8.3244,21.81799 0,9.23081 -11.7674,11.54494 -15.9975,3.14331 -3.4267,-6.80189 -7.9684,-18.09618 -7.5421,-18.74966 2.778,-4.24886 5.7034,-2.25324 8.828,6.03128 2.4757,6.55593 3.5672,8.01514 5.4574,7.29141 1.7449,-0.66989 1.4826,-2.41253 -1.2672,-8.45786 -3.7734,-8.28451 -3.8507,-8.72486 -1.8409,-10.27074 1.8924,-1.45687 2.7591,-1.62785 4.0379,-0.80576 m -324.92532,7.94722 c 0.94624,0.36305 1.16172,1.75203 1.1688,7.51393 0.008,7.96597 0.44975,10.36911 1.88312,10.36911 1.81991,0 2.50625,-2.78257 2.50625,-10.16533 0,-8.03389 0.55063,-8.91926 4.86944,-7.83479 l 1.82931,0.45904 -0.23363,11.65734 -0.23198,11.65736 -2.14552,2.23449 c -3.9279,4.0966 -10.32458,3.66564 -13.43272,-0.90876 -1.64899,-2.42189 -2.62798,-23.47165 -1.16172,-24.93788 0.61172,-0.61136 3.40788,-0.63473 4.94912,-0.0442 m 289.57395,0 c 0.9509,0.36543 1.1594,1.78011 1.1594,7.9238 0,5.11781 0.3115,7.90741 0.9884,8.83259 1.9417,2.65612 2.6771,0.56686 2.6771,-7.62398 0,-8.88412 0.4566,-9.83508 4.5347,-9.44393 l 2.4289,0.23418 0.2037,10.61037 c 0.1293,6.57702 -0.1027,11.35521 -0.6067,12.57315 -2.7545,6.6473 -11.1959,7.68491 -15.1754,1.86445 -1.6466,-2.41019 -2.628,-23.45993 -1.1594,-24.92616 0.6092,-0.61136 3.4079,-0.63475 4.9491,-0.0442 m -149.9654,45.43003 c 1.2742,0.63711 3.2205,2.34225 4.326,3.78976 l 2.0121,2.635 v 13.62015 13.6225 h -11.73 -11.7299 l -0.1993,-13.56394 -0.1968,-13.56159 2.2462,-2.72401 c 3.9677,-4.811 10.17,-6.36154 15.2714,-3.81787 m 28.9853,0.88537 c 5.16,3.59767 5.6261,5.32158 5.4036,19.95124 l -0.195,12.8308 h -11.73 -11.73 l -0.1993,-13.47258 -0.1993,-13.47025 1.9323,-2.53667 c 4.3706,-5.72909 11.2803,-7.09462 16.7166,-3.30254 m -55.3237,4.60249 c 4.647,3.36815 5.2606,5.53006 5.0217,17.75655 l -0.2037,10.423 h -11.73 -11.7299 l -0.2018,-10.87738 c -0.1894,-10.04354 -0.089,-11.07414 1.3702,-13.42574 3.8952,-6.30065 11.7253,-8.03859 17.4731,-3.87643 m 81.2806,-1.21092 c 6.0266,3.15031 7.4764,6.76673 7.4764,18.66065 0,11.79321 0.7826,11.0952 -12.4631,11.0952 -7.3452,0 -10.978,-0.27637 -11.5823,-0.87834 -1.0235,-1.02591 -1.1688,-15.25269 -0.2062,-20.237 1.4195,-7.33825 10.4067,-11.96652 16.7752,-8.64053 m -136.6066,3.17372 1.862,2.00968 v 56.12015 56.12248 l -2.3821,4.00055 c -2.3679,3.97479 -6.9072,7.2516 -8.5984,6.20694 -0.4984,-0.30923 -0.7498,-20.65624 -0.7498,-61.20985 v -60.74608 l 1.8995,-2.25558 c 2.4641,-2.93016 5.3965,-3.02149 7.9684,-0.24845 m 188.1243,-0.11476 1.7778,1.89253 0.038,60.48377 c 0.025,44.79539 -0.1848,60.78356 -0.8153,61.64551 -1.9393,2.6514 -9.2401,-4.58846 -10.6173,-10.52839 -1.3352,-5.75257 -0.8623,-109.68494 0.5082,-111.74142 2.7895,-4.19027 6.2069,-4.84611 9.1114,-1.752 m -160.7389,2.48981 c 4.914,3.56022 5.5066,4.99834 5.8602,14.23381 0.4055,10.59398 1.1126,10.06696 -13.154,9.80931 l -11.2638,-0.20151 -0.209,-8.65225 c -0.1877,-7.8793 -0.062,-8.84899 1.3796,-10.87738 4.7197,-6.62855 11.7722,-8.37822 17.3866,-4.31206 m 138.7428,0.19904 c 5.0498,3.88342 5.8766,6.16714 5.6448,15.57826 l -0.1993,8.06433 h -12.0979 -12.0953 v -9.19561 c 0,-8.71081 0.096,-9.31275 1.8317,-11.47232 4.7054,-5.84388 11.6034,-7.05718 16.9132,-2.97464 m 5.6612,34.62538 c 0.1804,5.5605 0.019,6.72927 -1.0563,7.51392 -1.3514,0.98843 -155.1339,1.44048 -159.9824,0.4708 l -2.2906,-0.45674 v -6.75034 c 0,-3.7148 0.2221,-6.97284 0.4921,-7.24455 0.2718,-0.26932 36.9724,-0.40757 81.557,-0.30451 l 81.0651,0.18751 0.215,6.58404 m -0.6418,12.40218 c 0.5454,0.65819 0.7755,3.36348 0.6391,7.51392 l -0.213,6.48802 h -81.3754 -81.3719 l -0.2133,-6.90259 c -0.1549,-5.02879 0.044,-7.06655 0.733,-7.50221 1.8246,-1.15941 160.8325,-0.76122 161.7999,0.40288 m -138.6422,18.91361 c 1.1079,1.10788 1.1313,5.53942 0.053,9.82103 -2.6,10.31994 -17.2647,11.87517 -22.598,2.39611 -1.4826,-2.63501 -2.19,-11.43013 -1.0119,-12.6083 0.9159,-0.91582 22.6097,-0.55516 23.5559,0.39121 m 27.8494,6.68711 c 0.471,16.16148 -14.1495,22.1834 -22.7479,9.36665 -1.3117,-1.95109 -1.9441,-15.29955 -0.7825,-16.4613 0.2788,-0.27865 5.64,-0.41694 11.9126,-0.30685 l 11.4067,0.20151 0.2106,7.20005 m 27.6478,0.51758 c 0,8.68506 -0.7985,10.47922 -6.1038,13.72087 -9.0552,5.53239 -17.7238,-1.26248 -17.7238,-13.88949 0,-8.64289 -1.0494,-7.98706 12.4209,-7.75049 l 11.4067,0.20151 v 7.71771 m 27.3786,-7.43662 c 2.3749,1.50604 0.8082,15.05827 -2.087,18.0704 -6.3803,6.63322 -14.5711,6.21162 -19.7147,-1.01185 -1.5482,-2.1736 -2.3891,-15.8851 -1.0563,-17.21783 0.7188,-0.71912 21.7009,-0.57383 22.858,0.15923 m 27.8235,0.23198 c 1.1313,1.13127 1.1758,12.56846 0.051,14.74675 -6.8862,13.40233 -22.947,9.1535 -23.912,-6.32406 -0.5921,-9.50716 -0.8596,-9.30104 12.1516,-9.30104 7.4413,0 11.0975,0.27399 11.7041,0.87835 m 28.3694,5.04517 c 0,17.8854 -23.2632,18.7286 -24.4085,0.88307 -0.4522,-7.03612 -0.8268,-6.84639 13.0463,-6.62388 l 11.3622,0.18284 v 5.55814 m -157.6237,22.92353 2.9418,1.57633 h 73.3076 73.3099 l 2.9325,-1.57166 c 1.6139,-0.86426 3.5626,-2.26727 4.3308,-3.1175 3.5157,-3.88812 4.1013,-2.50622 4.1013,9.70624 0,12.30381 0.157,11.82598 -4.8204,14.56641 -11.9197,6.55827 -18.4451,7.14619 -79.5496,7.16024 -63.0907,0.0165 -66.6416,-0.31384 -80.9433,-7.50689 -4.0708,-2.04712 -4.0099,-1.82694 -4.0216,-14.22912 -0.01,-12.13752 0.3727,-13.18684 3.6445,-9.95923 1.0025,0.99077 3.148,2.50853 4.7665,3.37518"
       stroke="none"
       fill="#252927"
       fill-rule="evenodd"
       style="fill:#ffffff;fill-opacity:0.465585;stroke-width:2.34224" />
  </g>
</svg>
