<?xml version="1.0" encoding="UTF-8" standalone="no"?>
<!-- Created with Inkscape (http://www.inkscape.org/) -->

<svg
   width="920"
   height="680"
   viewBox="0 0 243.41665 179.91667"
   version="1.1"
   id="svg827"
   inkscape:version="1.1.2 (0a00cf5339, 2022-02-04)"
   sodipodi:docname="large-promo-tile.svg"
   inkscape:export-filename="/home/naveen/workspace/yaka-sinhala-english-dictionary/src/assets/large-promo-tile.png"
   inkscape:export-xdpi="96"
   inkscape:export-ydpi="96"
   xmlns:inkscape="http://www.inkscape.org/namespaces/inkscape"
   xmlns:sodipodi="http://sodipodi.sourceforge.net/DTD/sodipodi-0.dtd"
   xmlns="http://www.w3.org/2000/svg"
   xmlns:svg="http://www.w3.org/2000/svg">
  <sodipodi:namedview
     id="namedview829"
     pagecolor="#ffffff"
     bordercolor="#666666"
     borderopacity="1.0"
     inkscape:pageshadow="2"
     inkscape:pageopacity="1"
     inkscape:pagecheckerboard="0"
     inkscape:document-units="mm"
     showgrid="false"
     units="px"
     inkscape:zoom="0.37593995"
     inkscape:cx="465.49988"
     inkscape:cy="65.169983"
     inkscape:window-width="1862"
     inkscape:window-height="1016"
     inkscape:window-x="58"
     inkscape:window-y="27"
     inkscape:window-maximized="1"
     inkscape:current-layer="layer1" />
  <defs
     id="defs824">
    <rect
       x="193.20647"
       y="74.536415"
       width="281.48245"
       height="197.05791"
       id="rect4755" />
    <filter
       inkscape:collect="always"
       style="color-interpolation-filters:sRGB"
       id="filter48803"
       x="-0.12068872"
       y="-0.098459266"
       width="1.2413774"
       height="1.1969185">
      <feGaussianBlur
         inkscape:collect="always"
         stdDeviation="1.4774106"
         id="feGaussianBlur48805" />
    </filter>
  </defs>
  <g
     inkscape:label="Layer 1"
     inkscape:groupmode="layer"
     id="layer1">
    <path
       d="m 39.039706,28.316581 c -0.430439,-0.441855 -1.490977,-1.894289 -0.463642,-4.648437 l 0.823525,-0.09176 -0.234382,-2.103517 -21.123513,2.353663 c -2.43482,0.271297 -4.195076,2.477805 -3.92331,4.916832 l 2.623905,23.54887 c 0.221843,1.990979 0.939967,3.447493 2.134843,4.32806 1.275065,0.940847 2.649863,0.894142 3.115793,0.842226 0.0873,-0.0097 0.143738,-0.01924 0.160331,-0.0232 L 43.470297,55.064093 40.472201,28.156967 Z m -20.246349,2.255927 c -1.274732,0.142035 -2.428836,-0.783539 -2.571457,-2.063529 -0.142621,-1.279991 0.778392,-2.43678 2.054176,-2.578933 l 18.002948,-2.005957 c -0.539862,2.083304 -0.157,3.62722 0.384759,4.657227 z"
       id="path48801"
       style="mix-blend-mode:normal;fill:#006969;fill-opacity:0.347733;stroke-width:0.0661416;filter:url(#filter48803)"
       transform="matrix(2.2969424,0,0,2.2969424,-5.209483,7.6783313)" />
    <path
       id="path0"
       d="m 203.12695,-5.6726979 c -2.3957,0.5161678 -4.59173,2.1849676 -5.63772,4.2829075 l -0.77129,1.54850442 -0.13382,11.45977298 c -0.13834,11.91366 -0.19122,12.379489 -1.22514,10.946164 -3.55516,-4.929612 -11.37444,-7.090692 -13.45704,-3.720672 -0.52641,0.850611 -0.53834,1.289992 -0.53834,19.045308 0,16.165857 -0.0461,18.221143 -0.41978,18.593978 -0.34638,0.346386 -1.15946,0.419757 -4.63868,0.419757 -38.41394,0 -53.37344,48.225408 -21.5118,69.349038 6.26738,4.15493 11.48194,5.68467 20.20646,5.92697 3.18317,0.0879 5.88688,0.26022 6.00887,0.38307 0.12126,0.12199 0.2499,3.96723 0.28408,8.54449 0.13575,17.9959 0.16543,18.4259 1.57921,22.74294 0.79944,2.44262 3.17892,7.025 4.09009,7.87731 0.0784,0.0734 0.58016,0.67401 1.11425,1.33521 0.53409,0.66121 1.22515,1.49049 1.5357,1.8437 0.30956,0.35236 0.57079,0.83355 0.5793,1.06817 0.01,0.23462 0.0193,1.95035 0.0193,3.81367 0.003,3.85888 0.1219,4.11228 1.8087,3.88619 1.12535,-0.151 3.37684,-1.63638 3.63965,-2.40082 0.30117,-0.87706 1.12618,-1.08353 2.07063,-0.51788 1.10487,0.66291 4.08753,1.75668 6.46447,2.37096 1.73108,0.44792 3.50395,0.48375 23.89983,0.48375 h 22.03055 l 2.13551,-0.6194 c 2.66868,-0.77383 5.47306,-1.87015 6.03701,-2.35902 0.57334,-0.49825 1.08181,-0.26106 2.0655,0.96323 1.35573,1.68672 4.18312,2.70796 5.06274,1.82834 0.21936,-0.21926 0.31987,-1.52205 0.31987,-4.12337 v -3.80342 l 1.58866,-1.84114 c 2.97243,-3.4451 5.10022,-7.49168 6.49006,-12.34196 0.54517,-1.90256 0.57843,-2.66018 0.66974,-15.08489 0.0829,-11.14068 0.15596,-13.14733 0.49568,-13.52273 0.3404,-0.37625 1.1057,-0.44706 5.16594,-0.48033 21.87782,-0.17831 38.04026,-16.12235 38.04965,-37.536904 0.009,-21.651738 -16.42778,-37.768108 -38.54108,-37.789439 -2.29417,-0.0025 -4.35202,-0.117719 -4.57214,-0.256805 -0.34723,-0.220116 -0.41804,-2.703692 -0.53408,-18.80471 l -0.13323,-18.551322 -0.77893,-0.812216 c -2.50916,-2.618377 -8.78167,-0.993944 -12.52284,3.242045 -0.8122,0.919714 -1.54421,1.604811 -1.627,1.521201 -0.0836,-0.08278 -0.18352,-5.309274 -0.22188,-11.614197 l -0.071,-11.46403898 -0.73371,-1.39322882 c -5.32548,-10.1023732 -25.59765,-2.3248824 -29.83195,11.4452708 -0.37709,1.226007 -1.21828,1.15178 -1.49644,-0.132235 -1.8923,-8.732189 -15.41847,-17.6042995 -24.01416,-15.7512143 m 5.20692,1.5476488 c 8.46258,1.4188213 14.79309,6.9285889 17.80735,15.4986775 l 0.75165,2.136334 v 21.886356 21.887213 l -0.80115,0.190256 c -0.4411,0.104924 -1.48964,0.327617 -2.33,0.495691 -0.84123,0.167218 -2.09113,0.602339 -2.77707,0.967495 -0.68596,0.364305 -1.49988,0.627077 -1.80873,0.582714 l -0.56137,-0.08019 -0.13391,-20.961522 c -0.14838,-23.330777 -0.0289,-21.917076 -2.03397,-24.241962 -2.39486,-2.777922 -6.37743,-3.606347 -8.42503,-1.753264 -1.32753,1.201262 -1.29,0.557971 -1.29425,22.309531 -0.003,11.206385 -0.0922,20.506785 -0.20057,20.668037 -0.10738,0.161269 -1.08268,0.374542 -2.16704,0.472656 -1.08353,0.09812 -2.8752,0.482893 -3.98175,0.854022 -1.59713,0.535789 -2.05614,0.604045 -2.23104,0.328469 -0.33188,-0.522991 -0.27313,-55.0993985 0.0606,-56.54978672 0.92313,-4.00392438 4.45611,-5.64115498 10.12627,-4.69072388 m 45.00471,0.055471 c 1.90768,0.6501151 3.70699,2.545003 4.27608,4.50217253 0.46155,1.58860207 0.36684,56.32455107 -0.0981,56.78355607 -0.10061,0.09813 -1.08099,-0.116019 -2.17984,-0.476067 -1.09792,-0.360914 -2.88701,-0.730338 -3.97482,-0.82248 -1.49133,-0.126262 -2.00325,-0.272153 -2.08427,-0.592098 -0.0581,-0.233751 -0.1323,-9.617781 -0.16377,-20.853171 l -0.0572,-20.428297 -0.62197,-0.871938 c -2.25493,-3.161848 -8.08549,-1.559593 -10.23889,2.813753 l -0.62197,1.26269 -0.13322,20.933372 c -0.15275,23.887896 0.0648,22.040784 -2.45119,20.79345 -1.51092,-0.749938 -2.77277,-1.115094 -4.82468,-1.396639 -1.69438,-0.232913 -1.57749,1.546797 -1.46827,-22.31124 0.10474,-22.805222 0.007,-21.281461 1.6611,-25.6130029 3.46471,-9.06577878 15.5209,-16.2656768 22.98102,-13.7240836 M 213.27315,13.64306 c 1.40003,0.636464 2.6286,1.979356 3.17637,3.471549 0.75078,2.047606 0.52382,40.746527 -0.23895,40.668889 -0.29343,-0.03064 -1.55531,-0.413788 -2.80351,-0.85317 -1.24904,-0.439382 -2.66869,-0.805391 -3.15586,-0.813069 -2.09794,-0.03583 -1.91791,1.937544 -1.91791,-21.061345 0,-18.390073 0.0435,-20.555419 0.42912,-21.104858 0.83101,-1.187612 2.35049,-1.290847 4.51069,-0.307979 m 33.64649,0.03412 c 0.52384,0.505075 0.53493,0.912891 0.60575,21.136423 0.0792,22.91784 0.20741,21.288288 -1.6765,21.288288 -0.97089,0 -3.13197,0.590392 -5.15484,1.407729 -1.21917,0.493133 -1.45293,0.518725 -1.66965,0.183411 -0.60745,-0.938489 -0.17319,-39.804628 0.45815,-40.982002 1.7038,-3.181468 5.62581,-4.781162 7.43709,-3.03387 m -58.18764,5.532802 c 0.27989,0.155264 0.98884,0.493986 1.57665,0.751643 2.67982,1.177374 5.45518,5.113899 6.01487,8.532548 0.14156,0.865116 0.25765,7.838925 0.25861,15.514038 l 0.002,13.941646 -0.58442,0.545172 c -0.32085,0.299467 -0.6723,0.544325 -0.78064,0.544325 -0.10738,0 -0.5426,0.291792 -0.96663,0.648409 -1.38299,1.163723 -1.38386,1.161164 -1.46489,-11.080113 -0.0742,-11.214056 -0.0819,-11.353977 -0.66036,-12.088557 -1.56557,-1.990446 -3.68995,-2.593636 -5.03966,-1.43247 l -0.78406,0.674001 -0.14672,17.447322 c -0.14092,16.813411 -0.16736,17.524954 -0.72521,19.583653 -0.77213,2.850441 -0.92568,33.333335 -0.18252,36.277615 1.39067,5.51233 5.45176,9.71931 10.96408,11.35739 2.89397,0.86 60.25341,0.88901 63.25057,0.0324 5.13783,-1.47001 8.75099,-4.84685 10.7892,-10.08531 l 0.70045,-1.80019 V 91.483671 74.393832 l -0.6484,-2.270284 -0.64925,-2.269432 0.0622,-16.556607 c 0.0742,-19.583657 0.11416,-19.350743 -3.25568,-18.718541 -3.22413,0.604895 -3.38625,1.297671 -3.38625,14.438189 0,12.047605 -0.007,12.094532 -1.47259,10.755906 -0.20052,-0.183411 -0.78914,-0.633903 -1.30875,-1.000766 l -0.94274,-0.668031 -0.007,-14.514118 c -0.009,-17.564207 0.0257,-17.785177 3.30946,-21.331803 2.85042,-3.079092 8.23734,-4.644656 9.88055,-2.870916 l 0.68851,0.74311 -0.009,44.087537 c -0.007,36.264824 -0.0742,44.358844 -0.37369,45.610444 -1.62274,6.79038 -6.69995,11.78995 -13.23523,13.03473 -2.09536,0.39928 -61.60651,0.38392 -63.57476,-0.0161 -5.44409,-1.10657 -10.33445,-5.33658 -12.33685,-10.66803 -1.09716,-2.92382 -1.03064,1.95631 -1.00161,-73.513358 l 0.006,-18.637492 0.69193,-0.691921 c 0.74226,-0.742259 4.08925,-0.820748 5.34167,-0.126274 m 1.33266,17.304841 c 1.29937,0.849759 1.31217,0.985412 1.31217,13.715558 v 11.938397 l -1.02122,1.03916 c -0.5614,0.570772 -1.19532,1.368484 -1.40859,1.772886 -0.21348,0.40355 -0.50507,0.733726 -0.64756,0.733726 -0.14317,0 -0.33275,0 -0.42062,0 -0.28666,0 -0.10157,-28.884053 0.18865,-29.426669 0.29086,-0.54347 0.92997,-0.470095 1.99727,0.226938 m 77.66485,-0.287543 c 0.49313,0.493133 0.65523,29.754289 0.16469,29.754289 -0.13988,0 -0.47009,-0.30969 -0.73458,-0.689365 -0.26376,-0.379657 -0.99054,-1.284871 -1.6142,-2.011771 l -1.13556,-1.321559 V 50.204867 c 0,-12.945995 -0.023,-12.748912 1.65944,-13.826468 1.05876,-0.677414 1.12702,-0.684241 1.66023,-0.151001 M 212.1558,58.08219 c 6.49858,1.780566 11.65942,6.72468 13.95955,13.374289 0.73202,2.115006 0.73971,2.213975 0.84548,10.203907 l 0.10566,8.066717 -0.75502,0.168067 c -2.9358,0.652674 -4.92623,1.696954 -6.64793,3.489465 -0.76017,0.790033 -1.45635,1.436735 -1.54933,1.436735 -0.0921,0 -0.16791,-3.03899 -0.16791,-6.752836 0,-9.167306 -0.55887,-11.219179 -3.99797,-14.657453 -3.61317,-3.613171 -10.2312,-5.06271 -15.76315,-3.452776 -3.97407,1.156899 -6.55322,3.352955 -8.48564,7.225492 l -0.99307,1.988741 v 11.229414 11.229418 l 1.00587,2.00239 c 0.97431,1.94181 2.54671,3.87595 3.83841,4.72229 1.13131,0.74141 0.83439,1.49817 -0.50507,1.28743 -3.09701,-0.4863 -4.87075,-1.65344 -6.02425,-3.96382 l -0.61257,-1.226 0.0964,-15.430427 c 0.0938,-15.003842 0.11253,-15.477349 0.67488,-17.102638 2.74121,-7.919977 8.26378,-12.756591 16.3467,-14.315333 1.34203,-0.259353 7.10606,0.05972 8.62897,0.476921 m 41.1578,-0.255974 c 6.90385,1.320708 12.54328,6.399624 15.0755,13.575637 l 0.96152,2.725024 V 89.48136 104.835 l -0.73456,1.24904 c -1.3028,2.21653 -2.69688,3.08079 -5.74015,3.55942 -1.15091,0.18086 -2.11757,-0.58527 -1.1168,-0.88474 1.55363,-0.46668 4.7479,-5.13863 5.29223,-7.74166 0.47349,-2.261747 0.39758,-19.848984 -0.094,-21.734487 -0.87362,-3.354664 -3.40581,-6.522483 -6.55232,-8.198107 -5.05247,-2.6909 -12.91445,-2.174731 -17.22379,1.130452 -4.32218,3.316268 -5.20689,5.938058 -5.20689,15.429568 0,3.782956 -0.0965,6.937977 -0.21316,7.010493 -0.1176,0.07251 -0.86852,-0.53323 -1.66882,-1.34545 -1.51097,-1.53229 -3.00401,-2.419587 -5.06099,-3.007421 -2.49808,-0.714101 -2.24811,0.226111 -2.17644,-8.185306 0.0469,-5.593383 0.16377,-7.856838 0.46669,-9.0581 2.75318,-10.932518 12.87519,-17.359443 23.99202,-15.232493 m -72.73863,0.685945 c 0.49401,0.264482 0.52129,0.604046 0.52129,6.563433 v 6.28445 l -0.60061,-0.08533 c -0.59126,-0.08446 -0.60319,-0.162095 -0.73459,-4.758985 -0.15348,-5.370701 -0.34126,-5.879187 -2.56122,-6.954181 -3.82732,-1.853084 -6.78184,0.735428 -6.78867,5.948298 -0.006,4.479995 -0.20992,4.448428 -2.13122,-0.329327 -1.52887,-3.800868 -4.71121,-4.904018 -7.70497,-2.669566 -2.20629,1.645764 -2.37606,3.463015 -0.68425,7.325319 1.63128,3.72579 1.37021,3.929699 -1.4589,1.141539 -3.75908,-3.706172 -5.47478,-4.035496 -8.13329,-1.560448 -2.42556,2.257487 -2.01942,4.82297 1.26697,8.007848 1.11425,1.080115 2.02629,2.071498 2.02629,2.202888 0,0.132234 0.12027,0.239747 0.267,0.239747 0.14673,0 0.26699,0.133958 0.26699,0.297758 0,0.377098 -0.3754,0.258514 -3.36236,-1.057078 -4.01757,-1.77033 -5.74949,-1.631264 -7.44987,0.598923 -2.40167,3.149048 -0.94361,6.450815 3.56454,8.07013 2.08856,0.75079 3.63449,1.667096 2.9443,1.745587 -0.20314,0.02297 -1.7601,0.05375 -3.45962,0.06657 -4.54568,0.0367 -6.38682,1.411995 -6.38853,4.774335 -0.003,3.405851 1.8019,4.727413 6.46105,4.734239 4.52692,0.0062 4.41432,0.398428 -0.64839,2.267727 -3.41183,1.26013 -4.60286,4.80846 -2.57148,7.66232 1.64663,2.31209 4.33668,2.3283 8.82777,0.052 2.3462,-1.18846 2.28565,-0.58612 -0.18605,1.85821 -3.90155,3.85718 -4.10118,7.04206 -0.57162,9.11014 2.45455,1.43845 4.41174,0.73885 7.72031,-2.76 2.02201,-2.13804 2.64058,-2.0604 1.53058,0.19195 -2.45713,4.98422 -2.3701,7.20076 0.35493,9.04275 3.16015,2.13548 5.84252,0.69448 7.91486,-4.2522 1.41455,-3.37599 1.59884,-3.2847 1.6048,0.79942 0.006,4.74448 1.28658,6.46703 4.80592,6.46362 3.64986,-0.004 4.36907,-1.12192 4.54397,-7.06766 0.13157,-4.46549 0.14414,-4.54825 0.73459,-4.63186 l 0.60061,-0.0853 v 6.24008 c 0,7.52411 0.39759,6.88252 -4.25902,6.87655 -13.00401,-0.0181 -23.42546,-4.96716 -30.64329,-14.55422 -13.76759,-18.285988 -7.05057,-45.103666 13.67292,-54.589207 0.73456,-0.336148 1.56044,-0.726899 1.83517,-0.868526 3.34528,-1.725107 16.88592,-3.405851 18.87294,-2.341949 m 105.06441,0.151874 c 1.94609,0.231203 7.56847,1.70378 8.81156,2.306971 4.30679,2.090263 6.74683,3.598668 9.66215,5.97304 4.15834,3.387085 7.55396,8.066719 10.24995,14.125075 3.19599,7.183689 3.24548,19.756002 0.10474,26.744312 -4.23768,9.42752 -9.19034,14.78713 -17.85597,19.32002 -2.48445,1.29938 -3.04922,1.50926 -6.56685,2.43409 -4.81786,1.26696 -14.68901,1.84456 -15.05845,0.88133 -0.39928,-1.04087 -0.17411,-12.60046 0.24827,-12.76257 0.58531,-0.22438 0.62454,0.0324 0.71242,4.63954 0.11186,5.84933 1.01867,7.21014 4.8042,7.21014 h 1.84286 l 1.28231,-1.28317 c 1.46488,-1.46489 1.69864,-2.23872 1.6227,-5.37497 -0.10474,-4.34263 0.12288,-4.39553 1.63809,-0.38136 1.91537,5.07465 5.50466,6.45764 8.56327,3.29835 1.89062,-1.95376 1.94351,-2.87689 0.37879,-6.58391 -1.78736,-4.23343 -1.6628,-4.38273 1.24226,-1.49987 3.67798,3.64986 6.29807,4.05341 8.55298,1.319 2.11843,-2.5706 1.70123,-4.33496 -1.88806,-7.97543 -2.2242,-2.25663 -2.64909,-3.48861 -0.78746,-2.2865 2.62607,1.6961 6.29298,2.44263 7.84316,1.59714 4.12765,-2.25322 3.28727,-7.4166 -1.50326,-9.23471 -4.70524,-1.78654 -4.71121,-2.026281 -0.054,-2.032254 4.48427,-0.0057 6.47558,-1.475128 6.45677,-4.761536 -0.0184,-3.249723 -2.03052,-4.713762 -6.51477,-4.743625 -1.77462,-0.01194 -3.3325,-0.04178 -3.46303,-0.06657 -0.43596,-0.08446 1.02466,-1.009299 2.37267,-1.503282 5.4961,-2.014336 7.00028,-5.43469 3.82903,-8.702329 -1.89661,-1.953759 -3.36404,-1.970823 -7.40638,-0.08786 -3.80087,1.770324 -3.88107,1.593719 -0.6996,-1.539972 3.58589,-3.532121 4.00821,-6.021669 1.42906,-8.426756 -2.47417,-2.307827 -4.60027,-1.839435 -8.22882,1.812986 -2.27197,2.287348 -2.4085,2.381197 -2.4085,1.654295 0,-0.42317 0.1006,-0.883882 0.22441,-1.023802 1.49733,-1.694397 2.41788,-5.867253 1.64578,-7.461825 -2.14148,-4.423683 -7.32446,-3.691661 -9.26798,1.309614 -0.40442,1.041723 -1.00675,2.373518 -1.33863,2.961351 l -0.60318,1.068175 -0.0184,-0.80113 c -0.009,-0.441091 -0.0409,-2.071498 -0.0701,-3.62512 -0.0802,-4.328124 -1.93416,-6.432042 -5.31526,-6.031054 -3.32993,0.394167 -4.05939,1.706341 -4.16944,7.498509 -0.0887,4.617357 -0.17227,5.112194 -0.802,4.722293 -0.46924,-0.289213 -0.45897,-12.214825 0.009,-12.780477 0.30958,-0.373692 7.07279,-0.312269 10.4906,0.09383 m -54.82554,0.518728 c 3.97663,0.836957 4.58151,1.413699 2.9895,2.853852 -2.05611,1.860758 -4.28801,5.329745 -5.1591,8.018086 -0.17824,0.550292 -0.40525,0.999062 -0.5042,0.996503 -0.43938,-0.0094 -0.79433,-0.472658 -1.11427,-1.451242 -0.79173,-2.428976 -2.66273,-5.239317 -5.02514,-7.551403 -1.58096,-1.546798 -1.30622,-1.836022 2.62178,-2.759149 2.54074,-0.597221 3.75819,-0.617699 6.19143,-0.106647 m -54.46633,1.614194 c 1.72766,0.831843 1.935,1.41285 2.03226,5.687227 0.0974,4.319601 8.4e-4,4.999576 -0.74568,5.235906 -1.30022,0.412933 -1.56044,-0.154423 -1.65599,-3.609764 -0.14769,-5.316954 -1.55789,-5.172768 -1.55789,0.159545 0,3.288119 -0.17413,3.693373 -1.51948,3.539802 l -0.74994,-0.08616 -0.0819,-4.272674 c -0.0929,-4.870744 0.12543,-5.664191 1.80444,-6.551488 1.1731,-0.621105 1.38044,-0.629638 2.47419,-0.102375 m 105.47736,0 c 1.74046,0.837812 1.93584,1.398344 2.03224,5.822026 0.10405,4.778604 0.023,5.237612 -0.93851,5.237612 -1.43928,0 -1.68499,-0.573331 -1.68499,-3.921173 0,-2.539883 -0.0701,-3.065437 -0.42741,-3.201942 -0.71585,-0.274735 -0.89928,0.451324 -0.90355,3.575634 -0.007,3.360636 -0.33441,3.969799 -1.79164,3.306033 l -0.65098,-0.296919 0.0845,-4.509856 c 0.0928,-4.968858 0.18674,-5.261495 1.95121,-6.037026 1.07242,-0.471803 1.30278,-0.469242 2.32914,0.02547 m -116.62447,2.667873 c 0.36344,0.23804 0.95041,1.052811 1.30447,1.809575 0.99994,2.142306 1.50671,3.311151 1.50671,3.477516 0,0.08446 0.31827,0.825018 0.70728,1.646623 0.80199,1.69269 0.60745,2.22848 -0.84635,2.335977 -0.72947,0.05375 -0.82417,-0.07336 -1.9273,-2.613257 -1.35142,-3.111514 -1.71402,-3.590142 -2.33172,-3.077384 -0.53493,0.444498 -0.49739,0.578446 1.31046,4.664279 l 0.70216,1.587748 -0.6791,0.679126 c -0.924,0.923979 -1.38128,0.585272 -2.3394,-1.737056 -0.41977,-1.016976 -0.8745,-2.090264 -1.01016,-2.383756 -1.3719,-2.970739 -1.52545,-3.915198 -0.84123,-5.190687 0.93252,-1.73961 2.83508,-2.253218 4.44418,-1.198704 m 128.42165,-0.282409 c 1.60736,0.762737 2.22505,2.870064 1.39578,4.762396 -0.20213,0.462418 -0.62966,1.50158 -0.94873,2.309532 -0.31922,0.807952 -0.69193,1.708897 -0.82758,2.003241 -0.13575,0.293501 -0.3677,0.867675 -0.51617,1.274636 -0.34893,0.964936 -0.8711,1.142393 -1.7234,0.583568 -0.89666,-0.587834 -0.89498,-0.604898 0.52387,-3.828174 0.95297,-2.164492 1.14578,-2.835938 0.90177,-3.13028 -0.76357,-0.919719 -1.37274,-0.159546 -2.63032,3.279588 -0.76187,2.082585 -1.28656,2.601313 -2.2575,2.232743 -1.12017,-0.425731 -1.08094,-0.779796 0.48546,-4.411742 2.28991,-5.310129 3.25571,-6.18633 5.59682,-5.075508 m -138.687,6.70933 c 1.25842,0.834399 6.13428,5.829709 6.13428,6.284448 0,0.442793 -0.93848,1.288284 -1.42904,1.288284 -0.13318,0 -1.28915,-1.024654 -2.56976,-2.277106 -1.68501,-1.650034 -2.45116,-2.230186 -2.77707,-2.104773 -0.76871,0.294339 -0.24733,1.187611 1.99047,3.415241 1.16371,1.157748 2.11499,2.192645 2.11499,2.300996 0,0.377103 -1.10996,1.603105 -1.45125,1.603105 -0.38817,0 -5.3161,-4.92876 -6.06859,-6.069447 -1.69097,-2.564626 1.54425,-6.106989 4.05597,-4.440748 m 149.24582,0.26532 c 2.34023,1.962287 1.95717,3.251428 -2.23102,7.502772 -2.96223,3.008273 -2.9281,2.988653 -3.80857,2.161078 -0.92913,-0.872795 -0.80115,-1.16031 1.51778,-3.408412 2.1133,-2.049312 2.59959,-2.986094 1.72342,-3.321388 -0.27894,-0.107497 -1.03319,0.494837 -2.33599,1.865882 -2.31638,2.437504 -2.70454,2.680656 -3.55516,2.225064 -1.35483,-0.725193 -1.13557,-1.179935 2.07404,-4.305095 3.77186,-3.672041 4.91769,-4.142992 6.6155,-2.719901 m -97.70672,1.789095 c 3.14993,1.533999 5.53367,4.404916 6.48153,7.805649 0.7124,2.553536 0.6655,19.027384 -0.0606,21.414551 -3.43828,11.30706 -18.716,11.4538 -22.53903,0.2167 -0.7124,-2.094531 -0.66632,-19.994882 0.0571,-22.097946 2.33002,-6.772461 10.01538,-10.284109 16.06091,-7.338965 m 51.66118,-0.418053 c 0.2944,0.166345 0.9547,0.48972 1.46914,0.717517 2.21568,0.982852 4.64977,3.809401 5.75975,6.687141 0.47693,1.236242 0.51532,2.10221 0.51532,11.615904 v 10.281542 l -0.86597,1.83432 c -4.87331,10.32847 -19.21085,9.15621 -22.13125,-1.81043 -0.46752,-1.755822 -0.52299,-18.628954 -0.0685,-20.772968 0.80453,-3.788928 3.75564,-7.117995 7.57017,-8.539377 1.52037,-0.565648 6.76052,-0.575035 7.75106,-0.01355 m -77.50622,1.623584 c 0.42829,0.0367 0.46753,0.487161 0.46753,5.367288 0,6.190598 0.15865,5.869809 -2.80864,5.679549 -8.58627,-0.551145 -14.51666,4.898046 -13.18742,12.11757 1.04682,5.678694 4.73593,8.333754 11.99043,8.628954 l 3.87168,0.15697 0.0735,5.18812 c 0.0426,3.04241 -0.0332,5.29307 -0.18252,5.44237 -1.08865,1.08865 -11.11937,-0.07 -14.57983,-1.6833 -18.86188,-8.79618 -15.35276,-36.835594 5.07636,-40.565649 2.16536,-0.395017 6.68629,-0.557122 9.27907,-0.331883 m 104.24625,0.42829 c 20.24743,4.346045 23.39222,31.836872 4.63615,40.528962 -3.29412,1.52632 -13.40333,2.6636 -14.44246,1.62529 -0.15091,-0.151 -0.22602,-2.38717 -0.18353,-5.44408 l 0.0735,-5.18812 3.87168,-0.15697 c 7.2562,-0.29521 10.78233,-2.83594 11.87182,-8.557289 1.39325,-7.309105 -4.1387,-12.526236 -12.93999,-12.20459 -1.2482,0.04608 -2.42045,-0.01286 -2.60388,-0.128813 -0.45303,-0.289212 -0.47946,-10.342975 -0.0257,-10.794301 0.42062,-0.421464 7.35261,-0.193679 9.74407,0.319943 m -71.85835,1.030746 c 3.15761,3.259961 3.32907,4.268406 3.32907,19.546964 0,13.79319 0.181,12.67895 -2.13546,13.22242 -3.48861,0.81734 -5.34084,3.85291 -5.34084,8.75267 0,3.61829 0.51616,3.32565 -5.78108,3.27276 -9.02311,-0.0759 -14.29742,-3.25399 -16.0592,-9.6758 l -0.26893,-0.98115 0.84039,0.51447 c 3.04067,1.86247 2.93062,1.84199 9.98548,1.8454 8.40883,0.003 10.61344,-0.69107 13.81112,-4.34605 3.11237,-3.55857 3.4067,-5.10792 3.29236,-17.371376 -0.10061,-10.844637 -0.0887,-10.768707 -2.3206,-14.062794 -1.40775,-2.076615 -1.43761,-2.136335 -1.0605,-2.136335 0.18348,0 0.95212,0.638171 1.70803,1.418821 m 30.992,-0.08276 c -0.52726,0.734578 -0.95982,1.41626 -0.95982,1.514374 0,0.09813 -0.16469,0.36857 -0.366,0.599778 -1.64663,1.895742 -2.35563,21.294257 -0.93081,25.455162 2.31208,6.75199 6.41752,9.01459 16.35271,9.01203 6.78696,-0.002 7.50788,-0.11432 9.4915,-1.47854 2.43407,-1.67392 0.81392,2.54159 -2.11415,5.50465 -3.498,3.53895 -5.47651,4.20698 -12.64996,4.27011 -6.28273,0.0555 -5.77766,0.33445 -5.77766,-3.18914 0,-5.07636 -2.04421,-8.20152 -5.87493,-8.98217 -1.69269,-0.34554 -1.60138,0.43 -1.60138,-13.645594 0,-15.559251 0.007,-15.602765 3.31198,-18.983875 1.75411,-1.794218 2.38289,-1.836874 1.11852,-0.07679 m 8.92073,4.291442 c -2.7361,0.307978 -4.97736,1.996417 -6.3527,4.787133 -1.02637,2.081737 -1.11935,11.301085 -0.13575,13.41012 3.0731,6.588184 12.47244,6.618894 15.47902,0.0512 0.95298,-2.081732 0.87195,-12.09709 -0.11255,-13.875946 -1.72936,-3.125162 -5.12071,-4.795666 -8.87805,-4.372496 m -54.87504,0.593805 c -1.63041,0.780653 -3.14222,2.280527 -4.0935,4.059382 -1.0161,1.901715 -1.10316,11.43759 -0.12383,13.544066 3.00914,6.471293 12.26432,6.699943 15.28201,0.377957 l 0.81818,-1.714874 -0.0161,-5.302446 c -0.0161,-6.036174 -0.17156,-6.704207 -2.05445,-8.890028 -2.22163,-2.579131 -6.7571,-3.538096 -9.81313,-2.074057 m -48.08038,1.123628 c 1.1987,0.514458 2.83337,1.165427 3.63364,1.44612 1.67733,0.588688 1.99898,1.284875 1.05625,2.288203 l -0.57591,0.612576 -2.4503,-1.073288 c -3.01252,-1.319 -3.78123,-1.483664 -4.01927,-0.862557 -0.27474,0.715808 0.19864,1.063903 2.91273,2.13719 2.99973,1.187612 3.33418,1.48793 2.76598,2.485283 -0.57675,1.013565 -2.12784,0.592099 -7.39528,-2.009214 -2.63716,-1.303643 -2.97758,-3.939936 -0.70215,-5.440661 1.13127,-0.745671 2.30696,-0.643291 4.77431,0.416348 m 160.84636,-0.273865 c 1.51865,1.278047 1.7191,2.780481 0.56565,4.247077 -0.59213,0.753349 -1.34973,1.152631 -4.91684,2.589371 -1.17482,0.472655 -2.28052,0.971758 -2.45713,1.10912 -0.90008,0.697041 -2.2114,-1.00418 -1.38212,-1.794218 0.20214,-0.192828 1.44951,-0.803684 2.77108,-1.357392 2.98697,-1.250745 3.13884,-1.359953 2.78904,-2.012627 -0.37624,-0.703009 -0.68938,-0.652674 -3.48862,0.562241 -2.8675,1.243069 -3.23182,1.286577 -3.68739,0.435115 -0.47012,-0.87791 -0.27313,-1.563008 0.51529,-1.793361 0.36689,-0.106647 1.92904,-0.734578 3.47153,-1.395785 3.34444,-1.432472 4.65917,-1.565569 5.81951,-0.589541 m -130.0529,5.701733 c 0.2628,0.167217 0.32249,2.097942 0.26699,8.741574 l -0.0709,8.526581 -4.00476,-0.011 c -4.5798,-0.0129 -5.59851,-0.30885 -7.6862,-2.2336 -4.99958,-4.607966 -3.09276,-12.800953 3.44678,-14.80846 1.40775,-0.432558 7.45161,-0.593806 8.04797,-0.215017 m 102.3129,0.226111 c 6.52931,1.963144 8.45236,10.021328 3.5185,14.743616 -2.09026,2.00069 -3.00488,2.27455 -7.63418,2.28735 l -4.00477,0.011 -0.13391,-8.228821 c -0.0735,-4.525211 -0.0469,-8.460881 0.0581,-8.744988 0.26443,-0.711545 5.89965,-0.758469 8.19639,-0.06827 m -131.07159,5.168497 c 0.63221,0.338709 0.66036,1.002478 0.0777,1.834318 -0.42316,0.604045 -0.53918,0.621959 -3.20278,0.50337 -2.35903,-0.104924 -2.82398,-0.0563 -3.17295,0.329322 -0.69789,0.770413 0.07,1.037453 3.22242,1.119357 3.09446,0.08106 3.95275,0.561387 3.43146,1.919633 -0.31826,0.828427 -8.65541,0.614283 -9.68179,-0.249969 -2.02713,-1.705485 -1.5101,-4.724855 0.93509,-5.457726 1.09804,-0.32847 7.77495,-0.327618 8.39091,0.0017 m 160.16639,-0.0186 c 2.42555,0.695335 3.03302,3.818786 1.06562,5.474792 -0.78918,0.663764 -0.88561,0.676562 -5.19837,0.676562 -4.76326,0 -4.81786,-0.01815 -4.42368,-1.468306 l 0.21775,-0.801123 3.09359,-0.07506 c 3.26936,-0.07936 4.16006,-0.395017 3.24887,-1.150925 -0.31988,-0.26619 -1.16543,-0.341268 -3.17805,-0.282409 -3.17295,0.093 -4.64722,-0.945311 -3.28213,-2.310382 0.39501,-0.395016 7.1248,-0.445356 8.45661,-0.06314 m -80.30802,0.875348 c 4.41686,1.993856 6.10872,5.101953 6.10872,11.22686 v 3.9297 h -0.63559 -0.63476 l -0.11186,-4.07218 c -0.17572,-6.418396 -2.2652,-9.395103 -7.23916,-10.314821 -6.00802,-1.110825 -9.85923,2.800955 -10.02388,10.180871 -0.0939,4.1865 -0.0974,4.20613 -0.70987,4.20613 -1.67987,0 -1.26865,-7.715213 0.57846,-10.873649 0.74823,-1.278901 3.30946,-3.724083 4.33923,-4.142138 2.33681,-0.950431 2.64394,-1.010149 4.68987,-0.917158 1.55873,0.07169 2.54242,0.281539 3.63875,0.776385 m -1.52033,2.507464 c 3.4886,1.188468 4.95858,4.148965 4.95858,9.984646 0,3.37685 -0.099,3.77442 -1.23964,4.99189 -1.35056,1.44186 -1.78055,2.87262 -1.90683,6.351 -0.13897,3.82988 0.11921,3.59526 -3.97918,3.60037 -4.80417,0.007 -4.62246,0.15018 -4.63013,-3.66095 -0.007,-3.53553 -0.39673,-4.82638 -1.94523,-6.43033 l -0.85233,-0.88389 v -4.45696 c 0,-4.07644 0.0512,-4.561043 0.59808,-5.670161 1.68673,-3.422919 5.46454,-5.029435 8.99668,-3.825615 m -77.06856,6.587246 c 0.49143,1.02892 0.26603,1.22942 -2.8888,2.57657 -2.89055,1.23454 -3.15332,1.43503 -2.66105,2.02799 0.4684,0.56479 0.77041,0.50507 3.59953,-0.70899 2.46222,-1.05537 2.57827,-1.07926 3.07992,-0.62537 0.72008,0.65097 0.67742,1.63894 -0.0803,1.871 -0.5247,0.15955 -1.69355,0.63902 -3.53807,1.4521 -4.19079,1.8454 -5.5021,1.73875 -6.6812,-0.54177 -1.24304,-2.40338 0.18766,-3.88704 5.69322,-5.90649 0.83694,-0.30714 1.64063,-0.66803 1.78568,-0.80283 0.47349,-0.43768 1.32581,-0.10665 1.69096,0.65779 m 153.75398,0.55797 c 4.41684,1.84626 5.54815,2.92637 5.06781,4.83833 -0.52384,2.0877 -2.80096,3.03302 -4.98165,2.06893 -0.65098,-0.28753 -2.29076,-0.98541 -3.64474,-1.5502 -2.67383,-1.1151 -2.96049,-1.41371 -2.31126,-2.40424 0.55545,-0.84719 0.59381,-0.84207 3.53897,0.42829 2.6687,1.15093 3.37003,1.23113 3.37003,0.38393 0,-0.55712 -0.41294,-0.81051 -3.67802,-2.25578 -2.01605,-0.89242 -2.32403,-1.30961 -1.68589,-2.28308 0.56142,-0.85573 0.32423,-0.89839 4.32475,0.77382 m -149.55471,7.2272 c 0.77384,0.77383 0.83014,1.31559 0.18767,1.81214 -1.78397,1.38042 -3.87766,3.93225 -3.55001,4.32727 0.54006,0.65012 0.73289,0.54091 2.8069,-1.58775 2.18497,-2.24213 2.99376,-2.52367 3.78466,-1.31559 l 0.45047,0.68681 -3.11407,3.03899 c -3.99026,3.89642 -5.80753,4.25902 -7.26046,1.44953 -0.97089,-1.87868 -0.69448,-2.45713 3.00656,-6.2981 2.96307,-3.07397 2.8129,-2.9878 3.68824,-2.1133 m 60.77042,-0.12031 c 3.00743,1.37616 3.70533,2.72076 3.70533,7.13847 0,3.097 -0.0289,3.27446 -0.53408,3.27446 -0.49743,0 -0.53409,-0.17916 -0.53751,-2.60302 -0.007,-4.59687 -1.49304,-6.7426 -4.66941,-6.7426 -3.08677,0 -4.36053,1.72682 -4.46379,6.05239 l -0.0758,3.16014 h -0.6672 c -1.02635,0 -1.14921,-4.79994 -0.17735,-6.92262 1.44442,-3.15416 4.67197,-4.61479 7.42001,-3.35722 m 23.91523,0.22694 c 2.53475,1.30278 3.28895,2.89992 3.28895,6.95589 0,3.22412 -8.5e-4,3.2301 -0.63476,3.2301 -0.62964,0 -0.63649,-0.0333 -0.74566,-3.30603 -0.15435,-4.62333 -1.49476,-6.26654 -4.88355,-5.98499 -2.94859,0.24401 -3.99117,1.81896 -4.00569,6.05153 l -0.009,3.10639 h -0.66715 c -1.02722,0 -1.1518,-5.061 -0.17732,-7.18966 1.39916,-3.05605 4.94325,-4.35116 7.83638,-2.86323 m 59.80122,1.97508 c 3.12515,3.17465 3.5705,3.77699 3.5705,4.83406 0,1.58263 -1.80957,3.37685 -3.40498,3.37685 -1.5707,0 -7.56252,-6.06604 -6.93626,-7.02244 0.81732,-1.24648 1.31472,-1.08182 3.56366,1.17993 2.19011,2.20374 2.48786,2.36755 3.05181,1.68842 0.296,-0.35662 0.0351,-0.72775 -1.83689,-2.60899 -2.35986,-2.37266 -2.4776,-2.63373 -1.60053,-3.5671 0.77979,-0.83099 0.55967,-0.96067 3.59269,2.11927 m -84.68138,0.58443 c 1.53744,0.64243 1.99811,1.73534 1.99896,4.7402 0.002,3.06544 0.12702,2.94429 -3.05773,2.95283 -3.18832,0.009 -3.0825,0.10579 -3.0825,-2.81888 8.3e-4,-4.06962 1.59029,-5.93977 4.14127,-4.87415 m 24.1447,0.3771 c 1.15008,0.83269 2.00666,6.54807 1.06905,7.12737 -0.23379,0.14421 -3.45536,0.23037 -5.3895,0.14333 -0.95303,-0.0426 -0.668,-5.64884 0.34725,-6.80403 1.1535,-1.31388 2.57402,-1.4811 3.9732,-0.46668 m -76.74345,2.87433 c 0.94103,0.61599 0.77723,1.54509 -0.84377,4.80761 -0.52558,1.05793 -0.40101,2.10477 0.25087,2.10477 0.56311,0 0.90011,-0.55542 2.10733,-3.46813 0.95128,-2.29759 1.35229,-2.59962 2.36245,-1.78142 l 0.63476,0.5136 -1.5417,3.60464 c -2.22335,5.19837 -3.75393,6.18463 -6.28786,4.05256 -1.36336,-1.14751 -1.32837,-1.94779 0.26119,-6.01399 1.81382,-4.63868 1.81127,-4.63527 3.05689,-3.81964 m 108.54281,20.74567 c -0.009,22.04078 -0.0496,22.89224 -1.24049,26.75539 -0.98798,3.20109 -2.88199,6.72639 -5.28795,9.84046 -0.90692,1.17225 -0.95213,0.3643 -0.95213,-17.03353 0,-18.48989 0.0161,-18.25356 -1.38981,-19.57171 -1.1518,-1.07926 -2.19778,-1.27207 -3.42548,-0.6322 -1.44955,0.75506 -1.58179,0.71922 -2.68064,-0.72349 -0.63221,-0.83098 -1.48626,-1.5229 -2.53649,-2.05442 l -1.58349,-0.80113 -25.8144,-0.0708 -25.81518,-0.07 -1.55618,0.5776 c -1.17568,0.43682 -1.93842,0.97858 -3.12177,2.21738 l -1.56641,1.6398 -1.26355,-0.62538 c -1.58775,-0.78577 -2.94171,-0.38478 -4.01501,1.18932 l -0.66804,0.97773 -0.0726,17.55055 c -0.0803,19.48639 -0.0258,18.97193 -1.72766,16.58818 -3.04581,-4.26926 -4.34093,-7.21441 -5.48075,-12.46993 -0.46073,-2.12183 -0.83698,-44.19418 -0.39502,-44.19418 0.4172,0 1.0417,0.65097 1.66795,1.7362 2.04419,3.54236 7.6862,7.22464 12.12096,7.90973 3.8316,0.59125 63.40675,0.14846 65.20521,-0.48545 3.79149,-1.33521 7.57956,-4.0389 9.32769,-6.65643 1.1646,-1.74302 2.04249,-2.81801 2.18582,-2.67468 0.0519,0.052 0.0903,9.53843 0.0855,21.08096 m 19.12723,-20.97261 c 0.56905,0.36686 3.03217,6.82109 3.03217,7.94727 0.002,3.36235 -4.28632,4.20528 -5.82715,1.14496 -1.24819,-2.47761 -2.90249,-6.59159 -2.74722,-6.82962 1.01188,-1.54766 2.07747,-0.82075 3.21561,2.19691 0.90178,2.38802 1.29938,2.91954 1.98789,2.65592 0.63558,-0.24401 0.54005,-0.87877 -0.46157,-3.0808 -1.37447,-3.01766 -1.40263,-3.17806 -0.67057,-3.74115 0.68933,-0.53067 1.005,-0.59295 1.47084,-0.2935 m -118.35508,2.8948 c 0.34467,0.13224 0.42316,0.63818 0.42574,2.73697 0.003,2.90163 0.16382,3.77698 0.68593,3.77698 0.66291,0 0.91291,-1.01356 0.91291,-3.70275 0,-2.92637 0.20057,-3.24887 1.77371,-2.85385 l 0.66633,0.16721 -0.0851,4.24622 -0.0845,4.24623 -0.78151,0.81392 c -1.43075,1.4922 -3.76076,1.33522 -4.89291,-0.33102 -0.60065,-0.88218 -0.95725,-8.54962 -0.42316,-9.0837 0.22282,-0.22269 1.24133,-0.2312 1.80273,-0.0161 m 105.47821,0 c 0.34638,0.13311 0.42231,0.64841 0.42231,2.88627 0,1.86418 0.11347,2.8803 0.36003,3.2173 0.70727,0.9675 0.97516,0.20648 0.97516,-2.77706 0,-3.23607 0.1663,-3.58246 1.65178,-3.43998 l 0.88471,0.0853 0.0742,3.86486 c 0.0471,2.3957 -0.0374,4.13617 -0.22097,4.57981 -1.00333,2.4213 -4.07815,2.79925 -5.52771,0.67913 -0.59977,-0.87792 -0.95725,-8.54535 -0.42229,-9.07943 0.22189,-0.22269 1.24134,-0.23121 1.80273,-0.0161 m -54.62549,16.54803 c 0.46412,0.23207 1.17309,0.85317 1.57577,1.38043 l 0.73289,0.95981 v 4.96118 4.96204 h -4.27266 -4.27266 l -0.0726,-4.94071 -0.0717,-4.93985 0.8182,-0.99223 c 1.44526,-1.75242 3.70446,-2.31721 5.56266,-1.39067 m 10.55797,0.3225 c 1.87956,1.31046 2.04933,1.9384 1.96827,7.2673 l -0.071,4.67366 h -4.27269 -4.2727 l -0.0726,-4.90743 -0.0726,-4.90658 0.70386,-0.92399 c 1.59201,-2.08684 4.10886,-2.58424 6.08908,-1.20296 m -20.15186,1.67647 c 1.69269,1.22686 1.9162,2.01434 1.82919,6.46788 l -0.0742,3.79661 h -4.27268 -4.27266 l -0.0735,-3.96212 c -0.069,-3.65839 -0.0323,-4.03379 0.4991,-4.89037 1.41882,-2.29503 4.27095,-2.92808 6.36463,-1.412 m 29.60672,-0.44108 c 2.19518,1.14751 2.7233,2.4648 2.7233,6.7972 0,4.29571 0.28505,4.04146 -4.53973,4.04146 -2.67552,0 -3.99879,-0.10067 -4.2189,-0.31994 -0.37282,-0.37369 -0.42574,-5.55584 -0.0751,-7.37139 0.51704,-2.67298 3.79066,-4.35884 6.11041,-3.14734 m -49.75939,1.15604 0.67825,0.73203 v 20.44194 20.44279 l -0.86767,1.45721 c -0.86254,1.44783 -2.516,2.64142 -3.132,2.2609 -0.18155,-0.11264 -0.27312,-7.5241 -0.27312,-22.29588 v -22.12695 l 0.6919,-0.8216 c 0.89756,-1.06732 1.9657,-1.10059 2.90251,-0.0905 m 68.52485,-0.0418 0.64758,0.68936 0.0138,22.0314 c 0.009,16.31686 -0.0673,22.1406 -0.29697,22.45457 -0.70642,0.96578 -3.36575,-1.67136 -3.86741,-3.835 -0.48633,-2.09539 -0.31408,-39.95308 0.18514,-40.70216 1.01609,-1.52632 2.26088,-1.76521 3.31883,-0.63817 m -58.54963,0.90692 c 1.78993,1.29682 2.00578,1.82066 2.1346,5.18471 0.1477,3.85889 0.40527,3.66692 -4.7914,3.57307 l -4.10288,-0.0734 -0.0761,-3.15161 c -0.0684,-2.87006 -0.0225,-3.22327 0.50252,-3.96212 1.71915,-2.41447 4.28804,-3.05179 6.3331,-1.57068 m 50.5375,0.0725 c 1.83941,1.41455 2.14059,2.2464 2.05615,5.67443 l -0.0726,2.93746 h -4.40668 -4.40577 v -3.34953 c 0,-3.17294 0.0351,-3.3922 0.66719,-4.17883 1.71398,-2.12865 4.22658,-2.5706 6.16072,-1.08352 m 2.06211,12.6124 c 0.0657,2.02543 0.007,2.45116 -0.38479,2.73697 -0.49225,0.36004 -56.50799,0.5247 -58.27406,0.17149 l -0.83439,-0.16637 v -2.45883 c 0,-1.35313 0.0809,-2.53988 0.17928,-2.63885 0.099,-0.0981 13.46728,-0.14846 29.70738,-0.11092 l 29.52821,0.0683 0.0783,2.39826 m -0.23378,4.51753 c 0.19868,0.23975 0.28248,1.22516 0.23282,2.73697 l -0.0776,2.36328 h -29.64125 -29.63996 l -0.0777,-2.51429 c -0.0564,-1.83175 0.0161,-2.57401 0.267,-2.7327 0.66462,-0.42232 58.58376,-0.27728 58.93613,0.14675 m -50.50087,6.88934 c 0.40355,0.40355 0.4121,2.01775 0.0193,3.57734 -0.94703,3.75907 -6.2887,4.32557 -8.23138,0.87279 -0.54005,-0.95981 -0.79772,-4.16346 -0.36857,-4.59261 0.33359,-0.33359 8.23564,-0.20222 8.58031,0.1425 m 10.1442,2.4358 c 0.17158,5.88687 -5.154,8.08037 -8.28597,3.41183 -0.47779,-0.71069 -0.70815,-5.57291 -0.28505,-5.99608 0.10157,-0.1015 2.05441,-0.15187 4.33922,-0.11177 l 4.15492,0.0734 0.0767,2.62264 m 10.0708,0.18853 c 0,3.16356 -0.29084,3.81709 -2.22332,4.99787 -3.29837,2.01519 -6.45595,-0.45986 -6.45595,-5.05929 0,-3.1482 -0.38223,-2.90931 4.52436,-2.82314 l 4.15491,0.0734 v 2.8112 m 9.97275,-2.70881 c 0.86508,0.54858 0.2944,5.48502 -0.76019,6.5822 -2.32405,2.41617 -5.30759,2.2626 -7.18116,-0.36857 -0.56393,-0.79174 -0.87022,-5.7862 -0.38476,-6.27165 0.26182,-0.26194 7.90462,-0.20902 8.32611,0.058 m 10.13478,0.0845 c 0.41209,0.41207 0.42831,4.5781 0.0184,5.37155 -2.5083,4.88184 -8.3585,3.33419 -8.71,-2.30356 -0.21568,-3.46301 -0.3131,-3.38793 4.42625,-3.38793 2.71051,0 4.0423,0.0998 4.26327,0.31994 m 10.33362,1.83772 c 0,6.51481 -8.47367,6.82195 -8.89087,0.32166 -0.16469,-2.56293 -0.30117,-2.49382 4.75215,-2.41277 l 4.13872,0.0666 v 2.02457 m -57.41491,8.34997 1.07156,0.57418 h 26.7025 26.70338 l 1.06817,-0.57248 c 0.58786,-0.31481 1.29768,-0.82586 1.57749,-1.13556 1.28062,-1.41626 1.49391,-0.9129 1.49391,3.53553 0,4.4817 0.0572,4.30765 -1.75583,5.30586 -4.34177,2.38887 -6.71869,2.60302 -28.9762,2.60814 -22.98098,0.006 -24.27439,-0.11432 -29.48382,-2.73441 -1.48282,-0.74567 -1.46064,-0.66547 -1.46489,-5.183 -0.003,-4.42113 0.13574,-4.80335 1.32752,-3.62768 0.36515,0.36089 1.14666,0.91374 1.73621,1.22942"
       stroke="none"
       fill="#252927"
       fill-rule="evenodd"
       style="fill:#008b8b;fill-opacity:0.182494;stroke-width:0.853169" />
    <rect
       x="17.449514"
       y="63.016682"
       style="fill:#ffffff;stroke-width:0.151923"
       width="49.325363"
       height="13.065434"
       id="rect53707"
       transform="rotate(-6.3578908)" />
    <path
       d="M 78.385146,66.642556 C 77.396452,65.627641 74.960457,62.291484 77.320187,55.965364 l 1.891589,-0.210767 -0.538362,-4.831658 -48.519493,5.406229 c -5.592641,0.623153 -9.635848,5.691375 -9.011617,11.29368 l 6.026959,54.090402 c 0.509561,4.57316 2.15905,7.91869 4.903611,9.9413 2.928751,2.16107 6.086583,2.05379 7.156797,1.93454 0.200524,-0.0223 0.330158,-0.0442 0.368272,-0.0533 l 48.964015,-5.45576 -6.886454,-61.804118 z m -46.504698,5.181735 c -2.927986,0.326246 -5.578896,-1.799744 -5.906489,-4.739808 -0.327592,-2.940065 1.787922,-5.597143 4.718324,-5.92366 l 41.351735,-4.607568 c -1.240032,4.785229 -0.36062,8.331516 0.883769,10.697382 z"
       id="path53709"
       style="fill:#008b8b;fill-opacity:1;stroke-width:0.151923" />
    <path
       d="m 55.295918,97.152025 c -1.304011,0.272849 -2.350882,0.283899 -3.140587,0.03328 -0.793495,-0.268772 -1.533916,-0.690428 -2.221256,-1.264972 -0.427975,0.845716 -0.96251,1.543587 -1.603592,2.093615 -0.644878,0.531917 -1.592148,0.92861 -2.84183,1.190085 -1.086674,0.227374 -2.123001,0.198433 -3.108985,-0.08676 -0.967867,-0.288996 -1.805775,-0.860393 -2.513734,-1.714185 -0.711752,-0.871903 -1.224888,-2.059475 -1.539418,-3.562709 -0.269052,-1.285902 -0.212743,-2.507551 0.16894,-3.664946 0.395991,-1.179299 1.136293,-2.203786 2.220905,-3.073465 1.080826,-0.887792 2.526802,-1.52116 4.337927,-1.900109 0.271671,-0.05685 0.536184,-0.10272 0.793527,-0.137679 0.257354,-0.03491 0.460367,-0.05846 0.609053,-0.07063 l 0.466701,2.908113 c -0.130581,0.0083 -0.268305,0.02775 -0.413192,0.05807 -0.148681,0.01217 -0.340751,0.04282 -0.576192,0.09218 -2.137992,0.476726 -5.171376,2.285611 -4.899071,3.690539 0.208425,0.996119 0.623032,1.712797 1.243838,2.15003 0.617012,0.41912 1.396403,0.530157 2.338198,0.333102 1.014226,-0.212214 1.758073,-0.632507 2.231528,-1.260886 0.491566,-0.632171 0.631243,-1.45537 0.419031,-2.469603 l -0.04548,-0.217337 2.85253,-0.596844 0.03969,0.190186 c 0.208424,0.99612 0.648305,1.698056 1.319651,2.105812 0.671345,0.407751 1.559405,0.49605 2.664198,0.26489 0.905562,-0.189475 1.569806,-0.583662 1.992717,-1.18256 0.44102,-0.60269 0.564901,-1.365872 0.371634,-2.289548 -0.344041,-0.355126 -1.20615,-1.081971 -2.254109,-1.286454 -0.508785,-0.08258 -1.114877,-0.08811 -1.818262,-0.01654 -0.689069,0.04964 -1.486368,0.169308 -2.391942,0.358689 l -1.467018,0.306938 -0.227374,-1.086677 c -0.367585,-1.756795 -0.264707,-3.252845 0.308601,-4.488147 0.591428,-1.239093 1.76554,-2.04243 3.522338,-2.410009 1.285895,-0.269053 2.346021,-0.21674 3.180372,0.156881 0.84866,0.351749 1.388582,1.080015 1.619737,2.184803 0.06445,0.307889 0.104373,0.724876 0.119969,1.250931 l -2.990867,0.342267 c -8.06e-4,-0.09434 -0.0071,-0.168664 -0.01838,-0.22301 l -0.04548,-0.217336 c -0.147785,-0.706342 -0.665404,-0.966671 -1.552862,-0.780986 -0.579557,0.121278 -0.980126,0.375215 -1.201693,0.761847 -0.207253,0.364736 -0.283512,0.768229 -0.228799,1.21048 0.83312,-0.174315 1.705188,-0.252818 2.616215,-0.235487 0.90724,-7.84e-4 1.770451,0.149416 2.589642,0.45063 0.83351,0.279301 1.561914,0.779086 2.185231,1.499357 0.623309,0.72027 1.065698,1.705245 1.327168,2.954922 0.310735,1.485127 0.304118,2.762565 -0.02044,3.832379 -0.310062,1.047891 -0.86145,1.891071 -1.654169,2.52954 -0.774602,0.634678 -1.696188,1.063806 -2.764749,1.287384 z"
       style="font-weight:bold;font-size:40px;line-height:0.75;-inkscape-font-specification:'sans-serif Bold';text-align:end;text-anchor:end;white-space:pre;fill:#ffffff;stroke-width:0.693879"
       id="path53711" />
    <g
       id="g53726"
       transform="matrix(0.60399486,-0.06729942,0.06729942,0.60399486,-115.02803,69.850409)">
      <path
         d="m 273.96242,107.91869 c -1.45481,0.13905 -2.75529,-0.0272 -3.90145,-0.49877 -1.11584,-0.47448 -2.13797,-1.24847 -3.06639,-2.32198 -0.57119,1.06392 -1.37047,1.98141 -2.39785,2.75249 -0.99996,0.73787 -2.27282,1.18068 -3.81856,1.32842 -1.60635,0.15354 -2.97325,-0.0675 -4.10068,-0.66324 -1.12742,-0.59571 -2.01751,-1.4282 -2.67025,-2.49747 -0.62243,-1.07217 -0.99304,-2.22958 -1.11181,-3.47224 l -0.0435,-0.45462 -0.73343,1.44645 -7.47861,1.60704 c 1.54063,-2.44117 5.91966,-8.477411 7.40412,-10.546185 1.51477,-2.07167 2.93149,-3.889285 4.25015,-5.452842 -0.62845,-1.775063 -1.60946,-2.598861 -2.94304,-2.471396 -0.7274,0.06953 -1.20577,0.34464 -1.43509,0.825342 -0.20191,0.447495 -0.27535,0.959175 -0.2203,1.535039 0.0319,0.333394 0.0955,0.679043 0.19087,1.036956 0.0953,0.357913 0.20446,0.699217 0.32726,1.02392 l -4.49202,3.395266 c -0.2369,-0.558482 -0.88709,-3.03405 -1.03306,-3.601224 -0.14886,-0.597481 -0.25661,-1.244771 -0.32324,-1.941869 -0.17961,-1.879133 0.28606,-3.40704 1.39701,-4.583719 1.10806,-1.206988 2.79865,-1.919116 5.0718,-2.136386 1.66698,-0.159332 3.07933,0.05741 4.23707,0.650215 1.15774,0.592807 2.11279,1.464966 2.86514,2.616475 2.16864,-1.950655 4.38508,-3.401218 6.64932,-4.351689 2.26423,-0.950471 4.85116,-1.564759 7.76079,-1.842866 3.57642,-0.341839 6.65296,0.0064 9.22963,1.044707 2.57377,1.008 4.58917,2.574033 6.0462,4.698095 1.48443,2.090858 2.3686,4.621408 2.6525,7.591652 0.26362,2.758084 0.0184,5.151903 -0.73581,7.181459 -0.72385,2.02666 -1.85487,3.63345 -3.39303,4.82038 -1.51076,1.15372 -3.31179,1.83053 -5.40308,2.03042 l -0.81833,0.0782 c -0.33339,0.0319 -0.59392,0.0261 -0.78156,-0.0171 l -0.27008,-4.74552 c 0.12414,0.0187 0.26198,0.0208 0.41352,0.006 l 0.40916,-0.0391 c 1.51543,-0.14485 2.69446,-0.60927 3.53709,-1.39328 0.87005,-0.817211 1.44413,-1.850818 1.72226,-3.100824 0.30844,-1.252901 0.39314,-2.606759 0.25409,-4.061572 -0.29259,-3.061169 -1.52163,-5.359951 -3.68713,-6.896344 -2.16549,-1.536393 -5.18799,-2.119185 -9.06749,-1.748377 -2.00037,0.191198 -3.73152,0.479007 -5.19347,0.863425 -1.43164,0.381522 -2.71675,0.856088 -3.85533,1.423698 -1.10827,0.564712 -2.16095,1.23116 -3.15802,1.999343 0.67103,-0.339407 1.42217,-0.640594 2.25343,-0.90356 0.82837,-0.293275 1.69717,-0.483366 2.60643,-0.570274 4.2432,-0.405571 7.53058,0.228369 9.86209,1.90182 2.33152,1.673451 3.65662,4.177151 3.97528,7.511097 0.29549,3.091478 -0.10489,5.622468 -1.20114,7.592958 -1.06594,1.9676 -2.99311,3.08466 -5.7815,3.35118 z m -5.73291,-12.940245 c 0.15064,1.576048 0.54219,2.792628 1.17465,3.649741 0.63246,0.857114 2.70117,2.609644 5.40769,0.919904 4.42636,-5.128211 -3.64597,-7.980258 -8.47338,-7.554497 -1.69728,0.162228 -3.16001,0.378505 -4.38818,0.648819 -3.48817,0.863904 -5.17109,3.017564 -5.17109,3.017564 0,0 -0.0273,0.354339 -0.0431,0.508783 l 0.0261,0.272777 c 0.12167,1.272962 0.36736,2.243508 0.73708,2.911636 0.39713,0.634923 0.85119,1.065598 1.36221,1.292028 0.53842,0.19322 1.09556,0.26231 1.67143,0.20726 1.12142,-0.10718 1.9793,-0.5715 2.57367,-1.392947 0.59148,-0.851757 0.46715,-5.672384 0.63517,-3.914484 l -0.0478,-0.500092 4.50083,-0.430196 z"
         style="font-weight:bold;font-size:40px;line-height:0.75;-inkscape-font-specification:'sans-serif Bold';text-align:end;text-anchor:end;white-space:pre;fill:#ffffff;stroke-width:1.14175"
         id="path53713" />
      <path
         d="m 298.78509,105.5461 c -0.69709,0.0666 -1.49091,0.0814 -2.38145,0.0441 -0.88764,-0.007 -1.67644,-0.0997 -2.36641,-0.27848 l -2.71527,-7.769165 c 0.49943,0.105191 4.01847,1.084013 4.5121,1.128587 0.52104,0.01137 1.02403,-0.0061 1.50897,-0.05247 1.4245,-0.136156 2.48519,-0.558686 3.18208,-1.267591 0.69398,-0.739214 1.11797,-1.743182 1.27198,-3.011908 0.18431,-1.271622 0.41117,-0.498083 0.24605,-2.225674 -0.24624,-2.576232 -0.79825,-4.511528 -1.65602,-5.805889 -0.86066,-1.32467 -2.27603,-1.892853 -4.24609,-1.704553 -0.45462,0.04345 -0.95182,0.121566 -1.49158,0.234325 -0.50945,0.109861 -3.3245,1.882087 -3.88008,2.14929 l 0.93872,-6.043073 c 0.64942,-0.245585 1.33202,-0.463757 2.04784,-0.654518 0.74324,-0.223966 1.69072,-0.390992 2.84244,-0.501075 3.12179,-0.298385 5.69333,0.526316 7.71463,2.474102 2.04872,1.914581 3.28165,5.054092 3.69881,9.418532 0.41137,4.303823 -0.18936,7.618598 -1.8022,9.94432 -1.58542,2.29252 -4.06026,3.59956 -7.42452,3.92112 z"
         style="font-weight:bold;font-size:40px;line-height:0.75;-inkscape-font-specification:'sans-serif Bold';text-align:end;text-anchor:end;white-space:pre;fill:#ffffff;stroke-width:1.14175"
         id="path53715" />
    </g>
    <polyline
       style="fill:#ee1e45;fill-opacity:1"
       points="143.208,102.624 143.208,357.664 226.536,284.064 304.312,356.32 304.312,102.624 "
       id="polyline53719"
       transform="matrix(0.10475125,-0.01167178,0.01478783,0.13271687,41.94912,56.913365)" />
    <text
       xml:space="preserve"
       style="font-style:normal;font-weight:normal;font-size:24.3092px;line-height:0.75;font-family:sans-serif;fill:#008b8b;fill-opacity:1;stroke:none;stroke-width:0.607732"
       x="160.93222"
       y="88.243965"
       id="text20459"><tspan
         sodipodi:role="line"
         id="tspan20457"
         style="font-size:45.3775px;text-align:center;text-anchor:middle;fill:#008b8b;fill-opacity:1;stroke-width:0.607732"
         x="160.93222"
         y="88.243965">YAKA</tspan><tspan
         sodipodi:role="line"
         style="font-style:normal;font-variant:normal;font-weight:normal;font-stretch:normal;font-size:13.7753px;font-family:Dyuthi;-inkscape-font-specification:Dyuthi;text-align:center;text-anchor:middle;fill:#333333;fill-opacity:1;stroke-width:0.607732"
         x="160.93222"
         y="108.90366"
         id="tspan20461">SINHALA &amp; ENGLISH</tspan><tspan
         sodipodi:role="line"
         style="font-style:normal;font-variant:normal;font-weight:normal;font-stretch:normal;font-size:22.6887px;font-family:Dyuthi;-inkscape-font-specification:Dyuthi;text-align:center;text-anchor:middle;fill:#333333;fill-opacity:1;stroke-width:0.607732"
         x="160.93222"
         y="127.13556"
         id="tspan20463">DICTIONARY</tspan></text>
  </g>
</svg>
