<?xml version="1.0" encoding="UTF-8" standalone="no"?>
<!-- Created with Inkscape (http://www.inkscape.org/) -->

<svg
   width="440"
   height="280"
   viewBox="0 0 116.41666 74.083335"
   version="1.1"
   id="svg827"
   inkscape:version="1.1.2 (0a00cf5339, 2022-02-04)"
   sodipodi:docname="small-promo-tile.svg"
   inkscape:export-filename="/home/naveen/yaka.png"
   inkscape:export-xdpi="96"
   inkscape:export-ydpi="96"
   xmlns:inkscape="http://www.inkscape.org/namespaces/inkscape"
   xmlns:sodipodi="http://sodipodi.sourceforge.net/DTD/sodipodi-0.dtd"
   xmlns="http://www.w3.org/2000/svg"
   xmlns:svg="http://www.w3.org/2000/svg">
  <sodipodi:namedview
     id="namedview829"
     pagecolor="#ffffff"
     bordercolor="#666666"
     borderopacity="1.0"
     inkscape:pageshadow="2"
     inkscape:pageopacity="1"
     inkscape:pagecheckerboard="0"
     inkscape:document-units="mm"
     showgrid="false"
     units="px"
     inkscape:zoom="1.0633188"
     inkscape:cx="137.30596"
     inkscape:cy="182.91787"
     inkscape:window-width="1862"
     inkscape:window-height="1016"
     inkscape:window-x="58"
     inkscape:window-y="27"
     inkscape:window-maximized="1"
     inkscape:current-layer="layer1" />
  <defs
     id="defs824">
    <rect
       x="193.20647"
       y="74.536417"
       width="281.48244"
       height="197.05791"
       id="rect4755" />
    <filter
       inkscape:collect="always"
       style="color-interpolation-filters:sRGB"
       id="filter48803"
       x="-0.12068872"
       y="-0.098459266"
       width="1.2413774"
       height="1.1969185">
      <feGaussianBlur
         inkscape:collect="always"
         stdDeviation="1.4774106"
         id="feGaussianBlur48805" />
    </filter>
  </defs>
  <g
     inkscape:label="Layer 1"
     inkscape:groupmode="layer"
     id="layer1">
    <path
       d="m 39.039706,28.316581 c -0.430439,-0.441855 -1.490977,-1.894289 -0.463642,-4.648437 l 0.823525,-0.09176 -0.234382,-2.103517 -21.123513,2.353663 c -2.43482,0.271297 -4.195076,2.477805 -3.92331,4.916832 l 2.623905,23.54887 c 0.221843,1.990979 0.939967,3.447493 2.134843,4.32806 1.275065,0.940847 2.649863,0.894142 3.115793,0.842226 0.0873,-0.0097 0.143738,-0.01924 0.160331,-0.0232 L 43.470297,55.064093 40.472201,28.156967 Z m -20.246349,2.255927 c -1.274732,0.142035 -2.428836,-0.783539 -2.571457,-2.063529 -0.142621,-1.279991 0.778392,-2.43678 2.054176,-2.578933 l 18.002948,-2.005957 c -0.539862,2.083304 -0.157,3.62722 0.384759,4.657227 z"
       id="path48801"
       style="mix-blend-mode:normal;fill:#006969;fill-opacity:0.34773269;stroke-width:0.0661416;filter:url(#filter48803)" />
    <path
       id="path0"
       d="m 96.000357,-5.8125224 c -1.042996,0.2247195 -1.999063,0.9512505 -2.454446,1.8646125 l -0.335788,0.674159 -0.05826,4.9891423 c -0.06023,5.1867478 -0.08325,5.3895517 -0.533381,4.7655374 -1.54778,-2.1461627 -4.951992,-3.0870134 -5.858673,-1.6198372 -0.22918,0.3703233 -0.234374,0.5616129 -0.234374,8.2915914 0,7.03799 -0.02008,7.932782 -0.182754,8.0951 -0.150802,0.150803 -0.504785,0.182746 -2.019504,0.182746 -16.723947,0 -23.236733,20.99548 -9.365408,30.191891 2.728578,1.808898 4.998796,2.474885 8.797113,2.580374 1.385831,0.03825 2.562923,0.113291 2.616031,0.166775 0.05279,0.05311 0.108798,1.72718 0.123679,3.719941 0.0591,7.834721 0.07202,8.021926 0.687525,9.901398 0.348044,1.063424 1.383978,3.058412 1.780666,3.429477 0.03411,0.03195 0.252582,0.293435 0.485102,0.581299 0.232521,0.287863 0.533382,0.6489 0.668587,0.802676 0.13477,0.153403 0.248497,0.362894 0.252203,0.465039 0.0042,0.102144 0.0084,0.849105 0.0084,1.660324 0.0014,1.680009 0.05307,1.790326 0.787437,1.691896 0.489932,-0.06574 1.470147,-0.712417 1.584561,-1.045225 0.131121,-0.381836 0.490297,-0.471725 0.901473,-0.225462 0.481017,0.288606 1.779555,0.764789 2.81438,1.032223 0.753646,0.195006 1.525487,0.210605 10.405064,0.210605 h 9.59125 l 0.92972,-0.269662 c 1.16184,-0.336895 2.38276,-0.814191 2.62828,-1.027024 0.24961,-0.216919 0.47098,-0.113656 0.89924,0.419352 0.59023,0.734331 1.82117,1.178942 2.20412,0.795989 0.0955,-0.09546 0.13926,-0.662642 0.13926,-1.795155 v -1.655865 l 0.69164,-0.801562 c 1.29408,-1.499863 2.22044,-3.261588 2.82552,-5.373209 0.23735,-0.828305 0.25183,-1.158141 0.29158,-6.567379 0.0361,-4.850224 0.0679,-5.723843 0.2158,-5.887274 0.1482,-0.163805 0.48138,-0.194634 2.24905,-0.20912 9.52476,-0.07763 16.56126,-7.019046 16.56535,-16.342117 0.004,-9.42633 -7.15202,-16.442775 -16.7793,-16.452062 -0.99879,-0.0011 -1.8947,-0.05125 -1.99053,-0.111803 -0.15117,-0.09583 -0.182,-1.177083 -0.23252,-8.186844 l -0.058,-8.0765292 -0.33912,-0.3536076 c -1.09239,-1.1399401 -3.8232,-0.4327248 -5.45196,1.4114613 -0.3536,0.400408 -0.67229,0.6986728 -0.70833,0.6622722 -0.0364,-0.036037 -0.0799,-2.3114528 -0.0966,-5.056373 l -0.0309,-4.9909996 -0.31943,-0.606558 c -2.31851,-4.3981833 -11.14423,-1.012164 -12.98768,4.9828289 -0.16417,0.5337558 -0.53039,0.5014404 -0.65149,-0.05757 -0.82384,-3.8016579 -6.712611,-7.6642321 -10.454844,-6.8574704 m 2.266892,0.6737865 c 3.684282,0.6177 6.440342,3.01644 7.752632,6.7475256 l 0.32724,0.9300773 v 9.528474 9.528847 l -0.34879,0.08283 c -0.19204,0.04568 -0.64853,0.142632 -1.01439,0.215805 -0.36624,0.0728 -0.9104,0.262235 -1.20903,0.42121 -0.29864,0.158604 -0.65299,0.273005 -0.78745,0.253691 l -0.2444,-0.03491 -0.0583,-9.125837 C 102.6199,3.2516601 102.6719,3.8671306 101.79899,2.8549654 100.75636,1.6455655 99.022503,1.2849009 98.131054,2.091662 97.5531,2.6146449 97.569441,2.334581 97.567588,11.80437 c -0.0011,4.878827 -0.04015,8.927862 -0.08732,8.998065 -0.04675,0.07021 -0.471358,0.163061 -0.943447,0.205776 -0.471724,0.04272 -1.251749,0.210233 -1.733497,0.371808 -0.695328,0.233262 -0.895167,0.262978 -0.971312,0.143003 -0.144485,-0.22769 -0.118907,-23.9881499 0.02639,-24.6195929 0.401896,-1.743154 1.940016,-2.455941 4.408586,-2.04216 m 19.593312,0.02415 c 0.83053,0.283035 1.61388,1.107996 1.86164,1.960072 0.20094,0.691616 0.15971,24.5215339 -0.0427,24.7213669 -0.0438,0.04272 -0.47062,-0.05051 -0.94902,-0.207261 -0.47799,-0.157128 -1.25689,-0.317961 -1.73048,-0.358076 -0.64927,-0.05497 -0.87214,-0.118485 -0.90741,-0.257777 -0.0253,-0.101766 -0.0576,-4.18721 -0.0713,-9.078665 l -0.0249,-8.8936912 -0.27078,-0.3796085 C 114.74364,1.015233 112.20524,1.7127929 111.26773,3.616779 l -0.27078,0.5497265 -0.058,9.1135815 c -0.0665,10.399867 0.0282,9.595706 -1.06715,9.052665 -0.6578,-0.326494 -1.20716,-0.485469 -2.10048,-0.608043 -0.73767,-0.101401 -0.68678,0.673416 -0.63923,-9.713452 0.0456,-9.9285127 0.003,-9.265126 0.72318,-11.15091202 1.5084,-3.94688988 6.7572,-7.08144738 10.00505,-5.97493588 m -17.4427,7.7114036 c 0.60952,0.2770917 1.14439,0.8617348 1.38287,1.511378 0.32686,0.8914489 0.22805,17.7394643 -0.10403,17.7056633 -0.12775,-0.01334 -0.67712,-0.180147 -1.22054,-0.371437 -0.543783,-0.19129 -1.161845,-0.350636 -1.373939,-0.353979 -0.913364,-0.0156 -0.834986,0.843532 -0.834986,-9.169296 0,-8.0063274 0.01895,-8.9490355 0.186825,-9.18824 0.361788,-0.5170404 1.023313,-0.5619848 1.96378,-0.1340823 m 14.64838,0.014853 c 0.22806,0.2198902 0.23289,0.3974373 0.26372,9.2019823 0.0345,9.977542 0.0903,9.268098 -0.72988,9.268098 -0.42269,0 -1.36354,0.257034 -2.24422,0.612871 -0.53078,0.214691 -0.63255,0.225833 -0.7269,0.07985 -0.26446,-0.408582 -0.0754,-17.3293974 0.19946,-17.8419806 0.74177,-1.3850885 2.44926,-2.0815334 3.23782,-1.3208297 m -25.332651,2.408768 c 0.121854,0.067596 0.430506,0.2150626 0.686415,0.3272363 1.166689,0.5125831 2.374975,2.2263944 2.618642,3.7147421 0.06163,0.3766379 0.112168,3.4127649 0.112589,6.7542129 l 7.3e-4,6.069654 -0.254435,0.237347 c -0.139683,0.130376 -0.29269,0.236978 -0.339859,0.236978 -0.04675,0 -0.236227,0.127035 -0.420834,0.282292 -0.6021,0.50664 -0.602479,0.505526 -0.637758,-4.823853 -0.03229,-4.882167 -0.03565,-4.943083 -0.287493,-5.262891 -0.681587,-0.866563 -1.606461,-1.129169 -2.194074,-0.623642 l -0.341347,0.293434 -0.06388,7.59589 c -0.06135,7.31991 -0.07286,7.629688 -0.315727,8.525966 -0.336154,1.240972 -0.403005,14.512047 -0.07946,15.793876 0.605441,2.399855 2.373486,4.23141 4.773337,4.944569 1.259919,0.374409 26.232005,0.387038 27.536855,0.01411 2.23681,-0.639986 3.80984,-2.110134 4.6972,-4.390757 l 0.30495,-0.783732 v -7.440256 -7.440256 l -0.28229,-0.988394 -0.28266,-0.988023 0.0271,-7.208107 c 0.0323,-8.525968 0.0497,-8.424566 -1.4174,-8.14933 -1.40366,0.263348 -1.47424,0.564956 -1.47424,6.28583 0,5.245062 -0.003,5.265492 -0.64111,4.682706 -0.0873,-0.07985 -0.34356,-0.275977 -0.56978,-0.435695 l -0.41043,-0.290835 -0.003,-6.318886 c -0.004,-7.6467773 0.0112,-7.7429793 1.44081,-9.2870433 1.24096,-1.3405175 3.58622,-2.0221039 4.30161,-1.2498859 l 0.29975,0.3235216 -0.004,19.1940106 c -0.003,15.788305 -0.0323,19.312128 -0.16269,19.857027 -0.70648,2.956268 -2.9169,5.132888 -5.76211,5.674815 -0.91224,0.173833 -26.821094,0.167146 -27.677994,-0.007 -2.370145,-0.481755 -4.49922,-2.323339 -5.370987,-4.644449 -0.477662,-1.272915 -0.4487,0.851704 -0.436065,-32.004875 l 0.0028,-8.1140441 0.30124,-0.3012354 c 0.323154,-0.323151 1.780301,-0.3573223 2.325558,-0.054975 m 0.580186,7.5338595 c 0.565698,0.369952 0.571272,0.42901 0.571272,5.971224 v 5.197517 l -0.444602,0.45241 c -0.244411,0.248492 -0.520395,0.595785 -0.613246,0.771846 -0.09294,0.17569 -0.219886,0.319436 -0.281923,0.319436 -0.06233,0 -0.144864,0 -0.183119,0 -0.124803,0 -0.04422,-12.575001 0.08213,-12.811235 0.126628,-0.236606 0.404872,-0.204661 0.869534,0.0988 M 124.1258,12.429157 c 0.21469,0.214691 0.28526,12.953868 0.0717,12.953868 -0.0609,0 -0.20466,-0.134827 -0.31981,-0.300123 -0.11483,-0.165288 -0.43124,-0.559383 -0.70276,-0.875847 l -0.49438,-0.575356 v -5.117288 c 0,-5.636186 -0.01,-5.550384 0.72246,-6.01951 0.46094,-0.29492 0.49066,-0.297892 0.7228,-0.06574 m -24.194641,9.514732 c 2.829231,0.77519 5.076061,2.927666 6.077451,5.822649 0.31869,0.920792 0.32204,0.963879 0.36809,4.442387 l 0.046,3.511937 -0.32871,0.07317 c -1.27813,0.284149 -2.14469,0.738788 -2.89425,1.519178 -0.33095,0.34395 -0.63404,0.625499 -0.67452,0.625499 -0.0401,0 -0.0731,-1.323059 -0.0731,-2.939924 0,-3.991091 -0.24331,-4.884397 -1.74056,-6.381289 -1.573037,-1.573035 -4.45427,-2.204108 -6.862669,-1.503205 -1.730155,0.503669 -2.853016,1.459747 -3.694319,3.1457 l -0.432346,0.865821 v 4.888853 4.888855 l 0.437919,0.871762 c 0.424175,0.845392 1.108738,1.687439 1.671095,2.055905 0.492529,0.322779 0.363262,0.652243 -0.219886,0.560498 -1.34832,-0.211718 -2.12054,-0.719844 -2.622727,-1.725696 l -0.266691,-0.533755 0.04198,-6.71781 c 0.04085,-6.532093 0.04899,-6.73824 0.293813,-7.445828 1.193418,-3.448052 3.597733,-5.553727 7.116723,-6.232343 0.584271,-0.112912 3.093707,0.026 3.75672,0.207633 M 117.8497,21.832449 c 3.00567,0.574985 5.46086,2.786149 6.56329,5.910308 l 0.41861,1.18637 v 6.684752 6.684382 l -0.3198,0.543784 c -0.56719,0.964992 -1.17412,1.341258 -2.49904,1.549634 -0.50106,0.07874 -0.92191,-0.254806 -0.48621,-0.38518 0.67639,-0.203176 2.06705,-2.237165 2.30403,-3.37042 0.20614,-0.984679 0.17309,-8.641483 -0.0409,-9.462358 -0.38034,-1.460491 -1.48276,-2.839637 -2.85263,-3.569139 -2.19965,-1.171514 -5.62245,-0.946794 -7.49857,0.492155 -1.88171,1.443775 -2.26688,2.585201 -2.26688,6.717438 0,1.646953 -0.042,3.020527 -0.0928,3.052098 -0.0512,0.03157 -0.37812,-0.232148 -0.72654,-0.585757 -0.65782,-0.6671 -1.30783,-1.053395 -2.20336,-1.309315 -1.08757,-0.310892 -0.97874,0.09844 -0.94754,-3.563566 0.0204,-2.435143 0.0713,-3.420564 0.20318,-3.943547 1.19863,-4.759596 5.60536,-7.557631 10.4452,-6.631639 m -31.66759,0.298634 c 0.215071,0.115145 0.226947,0.262978 0.226947,2.857465 v 2.736007 l -0.261482,-0.03715 c -0.257411,-0.03677 -0.262605,-0.07057 -0.319812,-2.071878 -0.06682,-2.338196 -0.148571,-2.559571 -1.115056,-3.027582 -1.666265,-0.806761 -2.952549,0.320177 -2.955525,2.589659 -0.0028,1.950417 -0.09139,1.936674 -0.927851,-0.143376 -0.66561,-1.654751 -2.051076,-2.13502 -3.354445,-1.162226 -0.960533,0.716502 -1.034446,1.507663 -0.297898,3.189161 0.710197,1.622065 0.59654,1.710839 -0.635147,0.496982 -1.63656,-1.613524 -2.38351,-1.756899 -3.54092,-0.679359 -1.055995,0.982823 -0.879179,2.099735 0.55159,3.486308 0.485102,0.47024 0.882169,0.90185 0.882169,0.959052 0,0.05757 0.05236,0.104377 0.116239,0.104377 0.06388,0 0.11624,0.05832 0.11624,0.129632 0,0.164174 -0.163437,0.112547 -1.463844,-0.460211 -1.749093,-0.770733 -2.503104,-0.710189 -3.243386,0.260748 -1.045592,1.370974 -0.41081,2.808436 1.551866,3.513423 0.909277,0.326865 1.582314,0.725789 1.281833,0.759961 -0.08844,0.01 -0.766281,0.0234 -1.506184,0.02898 -1.979016,0.01598 -2.780576,0.614728 -2.781321,2.078561 -0.0011,1.482776 0.784476,2.058133 2.812894,2.061105 1.970846,0.0027 1.921823,0.17346 -0.282288,0.987279 -1.485378,0.548613 -2.003907,2.093419 -1.119519,3.335876 0.716879,1.006595 1.888019,1.013652 3.843268,0.02266 1.021446,-0.517411 0.995082,-0.255177 -0.081,0.808991 -1.698582,1.679266 -1.785495,3.06584 -0.248861,3.966204 1.068615,0.626243 1.9207,0.321665 3.361127,-1.201599 0.880303,-0.93082 1.149604,-0.89702 0.666355,0.08357 -1.069739,2.169936 -1.031849,3.13493 0.154522,3.936862 1.375808,0.929708 2.543606,0.302352 3.445823,-1.851242 0.615843,-1.469776 0.696074,-1.430033 0.698671,0.348036 0.0028,2.065563 0.560125,2.815495 2.092308,2.814008 1.589011,-0.0018 1.902127,-0.48844 1.978272,-3.076985 0.05728,-1.944102 0.06275,-1.98013 0.319813,-2.016531 l 0.261482,-0.03715 v 2.71669 c 0,3.275704 0.173096,2.996383 -1.854214,2.993783 -5.661444,-0.0079 -10.19854,-2.162508 -13.340905,-6.336345 -5.993878,-7.961011 -3.069546,-19.636392 5.952661,-23.76603 0.319798,-0.146346 0.679354,-0.316464 0.798963,-0.378123 1.456403,-0.751045 7.351477,-1.482776 8.216548,-1.019594 m 45.740987,0.06612 c 0.84725,0.100657 3.29502,0.74176 3.83621,1.004366 1.87501,0.91002 2.93731,1.566721 4.20653,2.600431 1.81038,1.474606 3.2887,3.511938 4.46243,6.149512 1.39141,3.127501 1.41296,8.600997 0.0456,11.643438 -1.84492,4.10438 -4.00112,6.437747 -7.7738,8.411193 -1.08163,0.565698 -1.32751,0.657072 -2.85895,1.059709 -2.09751,0.551584 -6.39503,0.803047 -6.55587,0.383695 -0.17383,-0.453153 -0.0758,-5.485755 0.10809,-5.556328 0.25482,-0.09769 0.2719,0.01411 0.31016,2.019875 0.0487,2.546573 0.44349,3.139016 2.09156,3.139016 h 0.80231 l 0.55827,-0.558642 c 0.63775,-0.637758 0.73952,-0.974652 0.70646,-2.340054 -0.0456,-1.890614 0.0535,-1.913643 0.71316,-0.166032 0.83388,2.209308 2.39652,2.811408 3.72812,1.435975 0.8231,-0.850591 0.84613,-1.252486 0.16491,-2.866379 -0.77815,-1.843071 -0.72392,-1.908073 0.54083,-0.652987 1.60125,1.589008 2.74194,1.764698 3.72364,0.574242 0.92228,-1.119139 0.74065,-1.887272 -0.82199,-3.472194 -0.96833,-0.982451 -1.15331,-1.518806 -0.34283,-0.995451 1.14329,0.738416 2.73972,1.063425 3.41461,0.695331 1.79702,-0.980966 1.43115,-3.228903 -0.65446,-4.020435 -2.04848,-0.77779 -2.05108,-0.882164 -0.0235,-0.884764 1.95228,-0.0025 2.81922,-0.642214 2.81103,-2.072989 -0.008,-1.414804 -0.88401,-2.05219 -2.83628,-2.065191 -0.7726,-0.0052 -1.45084,-0.01819 -1.50767,-0.02898 -0.1898,-0.03677 0.4461,-0.43941 1.03297,-0.654471 2.39279,-0.876964 3.04765,-2.366054 1.66701,-3.788658 -0.82571,-0.850591 -1.46457,-0.85802 -3.22445,-0.03825 -1.65475,0.770731 -1.68967,0.693844 -0.30458,-0.670444 1.56116,-1.537749 1.74502,-2.621602 0.62216,-3.668684 -1.07716,-1.004739 -2.00278,-0.800819 -3.58251,0.789304 -0.98913,0.995823 -1.04857,1.036681 -1.04857,0.720216 0,-0.184232 0.0438,-0.384808 0.0977,-0.445724 0.65188,-0.737675 1.05265,-2.554375 0.71651,-3.24859 -0.93232,-1.925901 -3.18879,-1.607207 -4.03492,0.570155 -0.17607,0.453526 -0.4383,1.033338 -0.58279,1.289258 l -0.2626,0.465042 -0.008,-0.348781 c -0.004,-0.192034 -0.0178,-0.90185 -0.0305,-1.578237 -0.0349,-1.884298 -0.84206,-2.800263 -2.31406,-2.625688 -1.44972,0.171605 -1.7673,0.742875 -1.81521,3.264561 -0.0386,2.010219 -0.075,2.225652 -0.34916,2.055904 -0.20429,-0.125912 -0.19982,-5.317863 0.004,-5.564126 0.13478,-0.162691 3.07922,-0.13595 4.5672,0.04085 m -23.86892,0.225834 c 1.73127,0.364379 1.99461,0.61547 1.30151,1.242457 -0.89515,0.810102 -1.86683,2.320365 -2.24607,3.490765 -0.0776,0.239576 -0.17643,0.434953 -0.21951,0.433839 -0.19129,-0.0041 -0.34582,-0.205777 -0.48511,-0.631815 -0.34469,-1.057482 -1.15925,-2.280996 -2.18775,-3.287589 -0.68829,-0.673416 -0.56868,-0.799333 1.14142,-1.201227 1.10614,-0.260007 1.63617,-0.268922 2.69551,-0.04643 m -23.712537,0.702758 c 0.752158,0.362152 0.842426,0.6151 0.884767,2.475999 0.0424,1.880587 3.65e-4,2.176622 -0.324642,2.279511 -0.566063,0.179775 -0.679354,-0.06723 -0.720951,-1.571552 -0.0643,-2.314796 -0.678245,-2.252023 -0.678245,0.06946 0,1.43152 -0.07581,1.607952 -0.661525,1.541093 l -0.326495,-0.03751 -0.03566,-1.860157 c -0.04043,-2.120534 0.05461,-2.46597 0.785584,-2.852265 0.510723,-0.270405 0.600991,-0.27412 1.077165,-0.04457 m 45.920769,0 c 0.75773,0.364751 0.84279,0.608785 0.88476,2.534685 0.0453,2.08042 0.01,2.280254 -0.40859,2.280254 -0.62661,0 -0.73358,-0.249606 -0.73358,-1.707127 0,-1.105767 -0.0305,-1.334573 -0.18608,-1.394002 -0.31165,-0.119609 -0.39151,0.196489 -0.39337,1.556693 -0.003,1.463091 -0.14559,1.728297 -0.78001,1.439319 l -0.28341,-0.129267 0.0368,-1.963417 c 0.0404,-2.163249 0.0813,-2.290652 0.84948,-2.628288 0.46689,-0.205405 0.56718,-0.20429 1.01402,0.01109 m -50.773957,1.161482 c 0.158228,0.103633 0.413772,0.458353 0.567916,0.787819 0.435336,0.932677 0.655966,1.441547 0.655966,1.513976 0,0.03677 0.138561,0.359181 0.307922,0.716876 0.349153,0.736932 0.264458,0.970194 -0.36847,1.016994 -0.317581,0.0234 -0.358812,-0.03194 -0.839071,-1.137711 -0.588357,-1.354633 -0.74622,-1.563009 -1.015143,-1.339774 -0.232886,0.193517 -0.216545,0.251833 0.570527,2.030647 l 0.30569,0.691244 -0.295652,0.295665 c -0.402275,0.402265 -0.601356,0.254805 -1.018484,-0.756247 -0.182754,-0.442752 -0.380726,-0.91002 -0.439786,-1.037795 -0.597271,-1.293345 -0.664123,-1.704526 -0.366239,-2.259825 0.405982,-0.757359 1.234285,-0.980964 1.934824,-0.521869 m 55.909827,-0.12295 c 0.69978,0.332066 0.9687,1.249515 0.60767,2.073363 -0.088,0.201319 -0.27413,0.65373 -0.41304,1.005481 -0.13898,0.351751 -0.30124,0.743988 -0.3603,0.872134 -0.0591,0.127779 -0.16008,0.377752 -0.22472,0.554927 -0.15191,0.420096 -0.37924,0.497354 -0.7503,0.254063 -0.39037,-0.25592 -0.38964,-0.263349 0.22807,-1.666639 0.41489,-0.942336 0.49883,-1.234658 0.3926,-1.362803 -0.33243,-0.40041 -0.59764,-0.06946 -1.14514,1.427806 -0.33169,0.906677 -0.56012,1.132511 -0.98283,0.97205 -0.48768,-0.185347 -0.4706,-0.339493 0.21135,-1.920702 0.99694,-2.311825 1.41741,-2.693289 2.43664,-2.20968 m -60.378963,2.920983 c 0.547869,0.363265 2.670627,2.53803 2.670627,2.736006 0,0.192775 -0.408578,0.560869 -0.622147,0.560869 -0.05798,0 -0.561248,-0.446095 -1.118776,-0.991364 -0.733585,-0.718361 -1.067141,-0.970937 -1.209029,-0.916337 -0.334665,0.128144 -0.107676,0.51704 0.866573,1.486864 0.506637,0.504039 0.920789,0.954593 0.920789,1.001765 0,0.164176 -0.483235,0.69793 -0.63182,0.69793 -0.168996,0 -2.314426,-2.145792 -2.64203,-2.642403 -0.736182,-1.116539 0.672307,-2.658747 1.765813,-1.93333 m 64.975863,0.11551 c 1.01885,0.854304 0.85208,1.415546 -0.9713,3.266417 -1.28964,1.309686 -1.27478,1.301144 -1.6581,0.94085 -0.40451,-0.379981 -0.34879,-0.505154 0.66078,-1.483891 0.92005,-0.892191 1.13176,-1.30003 0.75031,-1.446004 -0.12144,-0.0468 -0.44981,0.215433 -1.017,0.812333 -1.00846,1.061195 -1.17745,1.167054 -1.54778,0.968707 -0.58984,-0.315721 -0.49438,-0.513698 0.90296,-1.874272 1.64212,-1.598665 2.14097,-1.803699 2.88013,-1.18414 m -42.537729,0.778903 c 1.371357,0.667844 2.409144,1.91773 2.821809,3.398278 0.31015,1.111711 0.28973,8.283788 -0.0264,9.32307 -1.496891,4.922654 -8.148222,4.986542 -9.81262,0.09434 -0.310154,-0.911877 -0.290093,-8.704998 0.02485,-9.620591 1.014399,-2.948468 4.360307,-4.477304 6.9923,-3.195102 m 22.49128,-0.182004 c 0.12817,0.07242 0.41564,0.213205 0.63961,0.312379 0.96462,0.427896 2.02433,1.658466 2.50757,2.911323 0.20764,0.538212 0.22435,0.915221 0.22435,5.057116 v 4.476188 l -0.37701,0.79859 c -2.12165,4.496617 -8.36366,3.986262 -9.63509,-0.78819 -0.20354,-0.764418 -0.22769,-8.110328 -0.0298,-9.043749 0.35026,-1.649553 1.63506,-3.0989 3.29576,-3.717715 0.66191,-0.246261 2.94327,-0.250348 3.37451,-0.0059 m -33.743213,0.706846 c 0.18646,0.01598 0.203545,0.212091 0.203545,2.33671 0,2.695147 0.06907,2.555488 -1.222773,2.472656 -3.738133,-0.239947 -6.319994,2.13242 -5.741296,5.275522 0.455748,2.472284 2.061844,3.628195 5.220171,3.756713 l 1.685582,0.06834 0.03201,2.258708 c 0.01853,1.324546 -0.01446,2.304396 -0.07946,2.369398 -0.473956,0.473954 -4.840947,-0.03046 -6.347496,-0.732845 -8.211733,-3.829517 -6.684,-16.036796 2.21005,-17.660718 0.942717,-0.171975 2.910952,-0.242549 4.039751,-0.144489 M 131.58899,28.691 c 8.81495,1.8921 10.18407,13.860545 2.0184,17.644745 -1.43413,0.664502 -5.83529,1.159628 -6.28769,0.707589 -0.0657,-0.06574 -0.0984,-1.039281 -0.0799,-2.370141 l 0.032,-2.258708 1.68558,-0.06834 c 3.15907,-0.128523 4.69421,-1.234657 5.16853,-3.725513 0.60657,-3.182102 -1.80183,-5.453439 -5.63357,-5.313407 -0.54342,0.02006 -1.05377,-0.0056 -1.13363,-0.05608 -0.19723,-0.125912 -0.20874,-4.502932 -0.0112,-4.699422 0.18312,-0.183489 3.20104,-0.08432 4.24219,0.139291 m -31.28435,0.448747 c 1.3747,1.419261 1.44935,1.858299 1.44935,8.509993 0,6.005024 0.0788,5.519927 -0.9297,5.756533 -1.518803,0.355837 -2.325192,1.677409 -2.325192,3.810572 0,1.575265 0.224715,1.447862 -2.516862,1.424833 -3.928313,-0.03306 -6.224545,-1.416661 -6.991556,-4.212468 l -0.117081,-0.427153 0.365873,0.223977 c 1.323794,0.810848 1.275881,0.801933 4.347294,0.803418 3.660878,0.0015 4.620681,-0.300864 6.012829,-1.892101 1.355005,-1.549264 1.483145,-2.223793 1.433365,-7.562829 -0.0438,-4.721336 -0.0386,-4.688279 -1.0103,-6.122397 -0.61288,-0.904078 -0.62588,-0.930078 -0.461699,-0.930078 0.07988,0 0.414517,0.277835 0.743609,0.6177 m 13.49272,-0.03603 c -0.22955,0.319807 -0.41787,0.616585 -0.41787,0.6593 0,0.04272 -0.0717,0.160461 -0.15934,0.26112 -0.71688,0.825333 -1.02555,9.270697 -0.40524,11.082196 1.00659,2.939554 2.79394,3.924605 7.11934,3.92349 2.95478,-7.43e-4 3.26864,-0.04977 4.13223,-0.643701 1.0597,-0.728758 0.35435,1.106512 -0.92042,2.396513 -1.52289,1.54072 -2.38426,1.831555 -5.5073,1.859041 -2.73526,0.02415 -2.51537,0.145604 -2.51537,-1.388431 0,-2.21005 -0.88997,-3.570625 -2.55772,-3.910488 -0.73693,-0.150433 -0.69718,0.187204 -0.69718,-5.940765 0,-6.773897 0.003,-6.792841 1.44191,-8.264846 0.76367,-0.781133 1.03742,-0.799704 0.48696,-0.03343 m 3.88374,1.868328 c -1.19119,0.134082 -2.16695,0.869163 -2.76572,2.084133 -0.44684,0.906308 -0.48732,4.920056 -0.0591,5.838248 1.33791,2.868238 5.43002,2.88161 6.73897,0.02229 0.41489,-0.906306 0.37961,-5.266606 -0.049,-6.041051 -0.7529,-1.360575 -2.22936,-2.087848 -3.86516,-1.903616 m -23.890473,0.25852 c -0.709818,0.339866 -1.368002,0.992853 -1.782153,1.767298 -0.44237,0.827933 -0.480274,4.979485 -0.05391,5.896563 1.310064,2.817351 5.339412,2.916896 6.653197,0.164548 l 0.356201,-0.74659 -0.007,-2.30848 c -0.007,-2.627917 -0.07469,-2.918753 -0.894425,-3.870375 -0.967216,-1.122854 -2.941782,-1.54035 -4.272258,-0.902964 m -20.932344,0.489184 c 0.52187,0.223975 1.233541,0.507382 1.58195,0.629585 0.730244,0.256292 0.870279,0.559385 0.459847,0.996195 l -0.250728,0.266692 -1.066763,-0.467268 c -1.311539,-0.574242 -1.646204,-0.64593 -1.749837,-0.375524 -0.119609,0.311635 0.08648,0.463182 1.26809,0.93045 1.305965,0.51704 1.451573,0.647787 1.2042,1.081996 -0.251094,0.441267 -0.926377,0.257777 -3.219619,-0.874734 -1.148116,-0.567556 -1.296321,-1.715296 -0.30569,-2.368654 0.492515,-0.324636 1.004361,-0.280064 2.07855,0.181262 m 70.026295,-0.11923 c 0.66116,0.556412 0.74843,1.210514 0.24626,1.849013 -0.25779,0.327979 -0.58762,0.501811 -2.1406,1.127312 -0.51147,0.205776 -0.99285,0.423066 -1.06974,0.482868 -0.39186,0.303465 -0.96276,-0.437181 -0.60172,-0.781133 0.088,-0.08395 0.63106,-0.349893 1.20642,-0.590956 1.30041,-0.544526 1.36653,-0.592071 1.21424,-0.87622 -0.1638,-0.306063 -0.30013,-0.284149 -1.51881,0.244778 -1.2484,0.541184 -1.40701,0.560126 -1.60535,0.189432 -0.20467,-0.382208 -0.11891,-0.680473 0.22434,-0.78076 0.15973,-0.04643 0.83983,-0.319807 1.51137,-0.607671 1.45604,-0.623643 2.02842,-0.681588 2.53359,-0.256663 M 86.264848,34.08285 c 0.114415,0.0728 0.1404,0.913363 0.11624,3.805744 l -0.03088,3.712142 -1.74352,-0.0048 c -1.993869,-0.0056 -2.437376,-0.134461 -3.346275,-0.972423 -2.176623,-2.006131 -1.346467,-5.573041 1.500597,-6.447032 0.612881,-0.188319 3.244144,-0.25852 3.503773,-0.09361 m 44.543087,0.09844 c 2.84261,0.854677 3.67983,4.362899 1.53182,6.418803 -0.91002,0.87102 -1.30821,0.990251 -3.32363,0.995823 l -1.74352,0.0048 -0.0583,-3.58251 c -0.032,-1.970102 -0.0204,-3.683541 0.0253,-3.80723 0.11512,-0.309779 2.56848,-0.330208 3.56839,-0.02972 m -57.063508,2.250164 c 0.27524,0.147461 0.287496,0.43644 0.03383,0.798591 -0.184228,0.262978 -0.234739,0.270777 -1.394367,0.219148 -1.027033,-0.04568 -1.229455,-0.02451 -1.381381,0.143374 -0.303836,0.335408 0.03046,0.451667 1.402916,0.487325 1.347211,0.03529 1.720876,0.244406 1.493928,0.835734 -0.13856,0.360665 -3.768231,0.267435 -4.215079,-0.108827 -0.882534,-0.742502 -0.65744,-2.057019 0.407104,-2.376083 0.478042,-0.143003 3.384909,-0.142632 3.653074,7.43e-4 m 69.730263,-0.0081 c 1.05599,0.302722 1.32046,1.662552 0.46393,2.383513 -0.34358,0.288977 -0.38556,0.294549 -2.26317,0.294549 -2.07374,0 -2.09751,-0.0079 -1.9259,-0.639244 l 0.0948,-0.348778 1.34683,-0.03268 c 1.42335,-0.03455 1.81113,-0.171975 1.41443,-0.501068 -0.13926,-0.115889 -0.50738,-0.148575 -1.3836,-0.12295 -1.38138,0.04049 -2.02322,-0.411552 -1.42891,-1.005851 0.17197,-0.171975 3.10186,-0.193891 3.68168,-0.02749 m -34.96301,0.381093 c 1.92293,0.868048 2.6595,2.221193 2.6595,4.88774 v 1.71084 h -0.27671 -0.27635 l -0.0487,-1.772869 c -0.0765,-2.794322 -0.98618,-4.090265 -3.15165,-4.490675 -2.61566,-0.48361 -4.29233,1.219428 -4.36401,4.432359 -0.0409,1.822641 -0.0424,1.831185 -0.30905,1.831185 -0.73135,0 -0.55232,-3.358905 0.25184,-4.733966 0.32575,-0.556784 1.44081,-1.621322 1.88913,-1.803327 1.01736,-0.413781 1.15107,-0.43978 2.04179,-0.399295 0.67861,0.03121 1.10687,0.122571 1.58417,0.338008 m -0.66189,1.091653 c 1.5188,0.517413 2.15877,1.806299 2.15877,4.346929 0,1.470148 -0.0431,1.643238 -0.53969,2.173278 -0.58798,0.627728 -0.77518,1.250628 -0.83016,2.764978 -0.0605,1.66738 0.0519,1.565236 -1.73238,1.567463 -2.09155,0.0029 -2.01244,0.06538 -2.01578,-1.593836 -0.003,-1.539235 -0.17272,-2.101219 -0.84688,-2.79952 l -0.37107,-0.38481 v -1.940388 c 0,-1.774726 0.0223,-1.985702 0.26038,-2.468569 0.73434,-1.490207 2.37905,-2.189622 3.91681,-1.665525 m -33.552676,2.867833 c 0.213948,0.447952 0.115818,0.53524 -1.257673,1.12174 -1.258431,0.53747 -1.372831,0.624757 -1.158518,0.882905 0.203924,0.245891 0.335409,0.219891 1.567097,-0.308664 1.071956,-0.459467 1.122481,-0.469868 1.340879,-0.272263 0.313495,0.283407 0.294922,0.71353 -0.03496,0.814561 -0.228435,0.06946 -0.737305,0.278207 -1.540339,0.632187 -1.824508,0.803418 -2.395401,0.756988 -2.908735,-0.235864 -0.541173,-1.046338 0.0817,-1.692266 2.478607,-2.571458 0.364371,-0.133717 0.714268,-0.290836 0.777414,-0.349522 0.206142,-0.190547 0.577209,-0.04643 0.736182,0.286378 m 66.938542,0.242919 c 1.92292,0.803791 2.41545,1.274029 2.20633,2.106419 -0.22806,0.908908 -1.21943,1.32046 -2.16882,0.900736 -0.28341,-0.125182 -0.99731,-0.42901 -1.58678,-0.674901 -1.16408,-0.485468 -1.28888,-0.615471 -1.00623,-1.04671 0.24182,-0.368837 0.25852,-0.366607 1.54073,0.186461 1.16185,0.501069 1.46718,0.535984 1.46718,0.167148 0,-0.242549 -0.17978,-0.352867 -1.60127,-0.982081 -0.87771,-0.388523 -1.01179,-0.570155 -0.73397,-0.993965 0.24442,-0.372551 0.14116,-0.391123 1.88283,0.336893 m -65.110342,3.146444 c 0.336898,0.336893 0.361409,0.572755 0.0817,0.788933 -0.77667,0.600985 -1.68818,1.711952 -1.545534,1.883927 0.235118,0.283036 0.319069,0.235492 1.222015,-0.691243 0.951253,-0.976137 1.303369,-1.098712 1.647693,-0.572757 l 0.196118,0.299008 -1.355746,1.323059 c -1.737202,1.696353 -2.528374,1.854213 -3.160924,0.631071 -0.422687,-0.817905 -0.302348,-1.069739 1.308942,-2.741948 1.290004,-1.338288 1.224627,-1.300773 1.605717,-0.92005 m 26.457091,-0.05238 c 1.30932,0.599128 1.61316,1.184513 1.61316,3.107813 0,1.348317 -0.0126,1.425576 -0.23252,1.425576 -0.21656,0 -0.23252,-0.078 -0.23401,-1.133254 -0.003,-2.001303 -0.65001,-2.935468 -2.03288,-2.935468 -1.34386,0 -1.898408,0.751789 -1.94336,2.634976 l -0.03299,1.375802 h -0.290472 c -0.446834,0 -0.500321,-2.089706 -0.07721,-3.01384 0.628844,-1.373202 2.033992,-2.009103 3.230382,-1.461605 m 10.41177,0.0988 c 1.10353,0.567183 1.43188,1.262513 1.43188,3.028326 0,1.40366 -3.7e-4,1.40626 -0.27635,1.40626 -0.27412,0 -0.2771,-0.01449 -0.32463,-1.439318 -0.0672,-2.012817 -0.65076,-2.728206 -2.12611,-2.605631 -1.2837,0.10623 -1.7376,0.791903 -1.74392,2.634603 l -0.004,1.352402 h -0.29045 c -0.44721,0 -0.50145,-2.203364 -0.0772,-3.1301 0.60914,-1.330487 2.1521,-1.894329 3.41166,-1.246542 m 26.03514,0.859876 c 1.36057,1.382118 1.55446,1.644353 1.55446,2.104562 0,0.689016 -0.78782,1.470148 -1.4824,1.470148 -0.68382,0 -3.29243,-2.640917 -3.01978,-3.057298 0.35583,-0.54267 0.57238,-0.470982 1.55148,0.513697 0.95349,0.959422 1.08312,1.030738 1.32864,0.735074 0.12887,-0.15526 0.0153,-0.316836 -0.79971,-1.135854 -1.02739,-1.032966 -1.07865,-1.146627 -0.69681,-1.552979 0.33949,-0.361779 0.24366,-0.418238 1.56412,0.92265 m -36.867,0.254435 c 0.66934,0.279692 0.8699,0.755502 0.87027,2.063704 7.4e-4,1.334574 0.0553,1.281829 -1.33122,1.285544 -1.38807,0.0041 -1.342,0.04606 -1.342,-1.227229 3.6e-4,-1.771754 0.69235,-2.585945 1.80295,-2.122019 m 10.51167,0.164175 c 0.5007,0.362522 0.87362,2.85078 0.46542,3.102985 -0.10178,0.06278 -1.50433,0.100292 -2.34638,0.0624 -0.41491,-0.01857 -0.29082,-2.459286 0.15118,-2.962211 0.50219,-0.572014 1.12063,-0.644815 1.72978,-0.203176 m -33.411134,1.251371 c 0.409687,0.268178 0.338372,0.672672 -0.367347,2.093048 -0.228815,0.460582 -0.174584,0.916335 0.10922,0.916335 0.245155,0 0.391872,-0.241806 0.917448,-1.509891 0.414152,-1.00028 0.588736,-1.13177 1.028522,-0.775561 l 0.276349,0.223605 -0.671198,1.569321 c -0.967959,2.263167 -1.634314,2.692548 -2.737492,1.764326 -0.593551,-0.499582 -0.578319,-0.847991 0.113712,-2.61826 0.789669,-2.019502 0.78856,-2.018017 1.330856,-1.662923 m 47.255344,9.031862 c -0.004,9.595705 -0.0216,9.966399 -0.54006,11.648267 -0.43013,1.393631 -1.25471,2.92841 -2.30217,4.284155 -0.39484,0.510354 -0.41452,0.158603 -0.41452,-7.415741 0,-8.049784 0.007,-7.946896 -0.60507,-8.520766 -0.50145,-0.469868 -0.95683,-0.553813 -1.49132,-0.275235 -0.63108,0.328722 -0.68865,0.313121 -1.16705,-0.314979 -0.27524,-0.361778 -0.64706,-0.663013 -1.10429,-0.894419 l -0.68939,-0.348779 -11.23859,-0.03083 -11.238932,-0.03046 -0.677502,0.251463 c -0.511846,0.190176 -0.843912,0.426038 -1.3591,0.965363 l -0.681951,0.713904 -0.550101,-0.272264 c -0.691245,-0.342094 -1.280711,-0.167518 -1.747984,0.517783 l -0.290837,0.425667 -0.03159,7.640831 c -0.03496,8.483623 -0.01123,8.259646 -0.752158,7.221851 -1.326027,-1.858671 -1.889872,-3.140872 -2.386107,-5.428924 -0.200583,-0.923764 -0.364385,-19.240439 -0.171973,-19.240439 0.181631,0 0.453516,0.283407 0.726159,0.755875 0.889961,1.542206 3.346275,3.145329 5.276999,3.443592 1.668131,0.257407 27.604847,0.06463 28.387827,-0.211347 1.65067,-0.581299 3.29985,-1.758383 4.06092,-2.897952 0.50702,-0.758845 0.88922,-1.226856 0.95162,-1.164454 0.0226,0.02266 0.0393,4.152665 0.0372,9.177836 m 8.32726,-9.130664 c 0.24774,0.159717 1.32009,2.969638 1.32009,3.459935 0.001,1.463834 -1.8661,1.830815 -2.53692,0.498469 -0.54341,-1.078653 -1.26363,-2.869723 -1.19603,-2.973353 0.44053,-0.673788 0.90445,-0.357323 1.39995,0.956451 0.3926,1.039651 0.5657,1.271057 0.86545,1.156283 0.27671,-0.10623 0.23512,-0.38258 -0.20095,-1.34126 -0.59839,-1.313772 -0.61065,-1.383603 -0.29194,-1.628751 0.30011,-0.231034 0.43754,-0.258149 0.64035,-0.127779 M 83.319308,47.89104 c 0.150058,0.05757 0.184228,0.277836 0.185351,1.191571 0.0014,1.263258 0.07132,1.644351 0.298629,1.644351 0.288604,0 0.397445,-0.441267 0.397445,-1.612035 0,-1.27403 0.08732,-1.414434 0.772206,-1.242458 l 0.290093,0.0728 -0.03706,1.848641 -0.03678,1.848644 -0.340239,0.35435 c -0.622891,0.649644 -1.63729,0.581299 -2.130184,-0.144117 -0.261496,-0.384066 -0.416749,-3.722171 -0.184228,-3.954691 0.09701,-0.09695 0.540429,-0.100656 0.78484,-0.007 m 45.921139,0 c 0.1508,0.05795 0.18386,0.282292 0.18386,1.256572 0,0.811589 0.0494,1.253971 0.15674,1.400688 0.30792,0.421211 0.42455,0.08989 0.42455,-1.209026 0,-1.408862 0.0724,-1.559665 0.71912,-1.497634 l 0.38517,0.03715 0.0323,1.682609 c 0.0205,1.042995 -0.0163,1.800727 -0.0962,1.993873 -0.43681,1.05414 -1.77547,1.218687 -2.40655,0.295665 -0.26112,-0.38221 -0.41675,-3.720314 -0.18385,-3.952833 0.0966,-0.09695 0.54043,-0.100657 0.78484,-0.007 m -23.78183,7.204373 c 0.20206,0.101035 0.51072,0.371438 0.68603,0.600985 l 0.31907,0.417868 v 2.159906 2.160277 h -1.86015 -1.86015 l -0.0316,-2.150991 -0.0312,-2.15062 0.35621,-0.431982 c 0.62921,-0.762932 1.61278,-1.008822 2.42177,-0.605443 m 4.59653,0.140404 c 0.81829,0.570527 0.8922,0.843904 0.85691,3.163901 l -0.0309,2.034731 h -1.86016 -1.86017 l -0.0316,-2.136505 -0.0316,-2.136135 0.30643,-0.402267 c 0.6931,-0.908532 1.78884,-1.12508 2.65095,-0.523725 m -8.77334,0.729873 c 0.73693,0.534127 0.83424,0.876963 0.79636,2.815864 l -0.0323,1.652895 h -1.86016 -1.860153 l -0.03201,-1.724953 c -0.03004,-1.592722 -0.01404,-1.756155 0.217289,-2.129077 0.617697,-0.999166 1.859404,-1.274772 2.770914,-0.614729 m 12.88962,-0.192032 c 0.9557,0.499582 1.18562,1.073081 1.18562,2.959239 0,1.870185 0.1241,1.759497 -1.97642,1.759497 -1.16482,0 -1.74092,-0.04383 -1.83675,-0.139291 -0.16231,-0.16269 -0.18535,-2.418799 -0.0327,-3.209216 0.2251,-1.163713 1.65031,-1.897673 2.66024,-1.370232 m -21.663319,0.503297 0.295287,0.318694 v 8.899631 8.900003 l -0.37775,0.634415 c -0.375517,0.630329 -1.095373,1.149969 -1.363552,0.984307 -0.07904,-0.04904 -0.118906,-3.275703 -0.118906,-9.706764 v -9.633219 l 0.301225,-0.357694 c 0.390764,-0.464669 0.855791,-0.479155 1.26364,-0.03938 m 29.833075,-0.01819 0.28193,0.300122 0.006,9.591619 c 0.004,7.103733 -0.0293,9.639163 -0.12929,9.775852 -0.30755,0.420467 -1.46532,-0.727645 -1.68372,-1.669609 -0.21173,-0.91225 -0.13674,-17.394026 0.0806,-17.720148 0.44237,-0.664501 0.9843,-0.768503 1.44489,-0.277836 m -25.490246,0.394839 c 0.779266,0.564584 0.87324,0.792646 0.929325,2.257222 0.0643,1.680011 0.176436,1.596438 -2.085991,1.555578 l -1.786238,-0.03194 -0.03313,-1.372089 c -0.02976,-1.249514 -0.0098,-1.403288 0.218777,-1.724954 0.748451,-1.051165 1.866847,-1.328629 2.757187,-0.683814 m 22.002076,0.03157 c 0.80081,0.615842 0.93193,0.977994 0.89517,2.470428 l -0.0316,1.278857 h -1.9185 -1.9181 v -1.458259 c 0,-1.381373 0.0153,-1.476833 0.29047,-1.819298 0.7462,-0.926735 1.84009,-1.119141 2.68214,-0.471725 m 0.89776,5.490953 c 0.0286,0.881792 0.003,1.067139 -0.16752,1.191571 -0.21431,0.156746 -24.601399,0.228434 -25.370276,0.07466 l -0.363262,-0.07243 v -1.070481 c 0,-0.589099 0.03524,-1.105767 0.07805,-1.148855 0.0431,-0.04272 5.863136,-0.06463 12.933448,-0.04829 l 12.85544,0.02972 0.0341,1.044109 m -0.10178,1.966759 c 0.0865,0.104377 0.12298,0.533385 0.10136,1.191571 l -0.0338,1.02888 H 106.81161 93.907514 l -0.03383,-1.094625 c -0.02457,-0.797475 0.007,-1.120626 0.116239,-1.189712 0.289349,-0.183862 25.505107,-0.120718 25.658517,0.06389 m -21.986131,2.999353 c 0.175693,0.17569 0.179413,0.878448 0.0084,1.557436 -0.412299,1.636551 -2.737858,1.883185 -3.583624,0.379979 -0.235118,-0.417866 -0.3473,-1.812612 -0.160461,-1.999445 0.145229,-0.145232 3.585477,-0.08804 3.735535,0.06204 m 4.416391,1.060452 c 0.0747,2.562916 -2.243853,3.517881 -3.60739,1.485377 -0.20801,-0.309407 -0.308301,-2.426227 -0.124101,-2.61046 0.04422,-0.04419 0.894411,-0.06612 1.889131,-0.04866 l 1.80889,0.03194 0.0334,1.141798 m 4.38444,0.08208 c 0,1.377289 -0.12662,1.66181 -0.96795,2.175878 -1.43598,0.877335 -2.81067,-0.200204 -2.81067,-2.202621 0,-1.370604 -0.16641,-1.266601 1.96973,-1.229085 l 1.80889,0.03194 v 1.223885 m 4.34175,-1.179312 c 0.37662,0.238834 0.12817,2.387968 -0.33096,2.865636 -1.0118,1.05191 -2.31072,0.985051 -3.1264,-0.160461 -0.24551,-0.344693 -0.37886,-2.519086 -0.16751,-2.730433 0.11399,-0.114036 3.44137,-0.091 3.62487,0.02525 m 4.41229,0.03677 c 0.17941,0.179403 0.18647,1.993131 0.008,2.338567 -1.09202,2.125363 -3.63897,1.451576 -3.792,-1.00288 -0.0939,-1.507662 -0.13631,-1.474976 1.92702,-1.474976 1.18005,0 1.75986,0.04346 1.85606,0.13929 m 4.49886,0.800075 c 0,2.836293 -3.68911,2.97001 -3.87074,0.140035 -0.0717,-1.115797 -0.13112,-1.085711 2.0689,-1.050425 l 1.80184,0.02898 v 0.88142 m -24.996234,3.635254 0.466516,0.249978 h 11.625238 11.62562 l 0.46504,-0.249235 c 0.25593,-0.137059 0.56496,-0.35955 0.68678,-0.494382 0.55753,-0.616585 0.65039,-0.397438 0.65039,1.539234 0,1.951159 0.0249,1.875386 -0.76442,2.309968 -1.89024,1.040023 -2.92506,1.133255 -12.61512,1.135483 -10.005031,0.0027 -10.568132,-0.04977 -12.836117,-1.190455 -0.645563,-0.324637 -0.635905,-0.289721 -0.637758,-2.256481 -0.0014,-1.924787 0.0591,-2.09119 0.577954,-1.57935 0.158973,0.157117 0.49921,0.397808 0.755877,0.53524"
       stroke="none"
       fill="#252927"
       fill-rule="evenodd"
       style="fill:#008b8b;fill-opacity:0.182494;stroke-width:0.371437" />
    <rect
       x="10.221086"
       y="24.363907"
       style="fill:#ffffff;stroke-width:0.0661416"
       width="21.474358"
       height="5.6881857"
       id="rect53707"
       transform="rotate(-6.3578908)" />
    <path
       d="m 36.393871,25.670746 c -0.430439,-0.441855 -1.490977,-1.894289 -0.463642,-4.648437 l 0.823525,-0.09176 -0.234382,-2.103517 -21.123513,2.353663 c -2.43482,0.271297 -4.195076,2.477805 -3.92331,4.916832 l 2.623905,23.54887 c 0.221843,1.990979 0.939967,3.447493 2.134843,4.32806 1.275065,0.940847 2.649863,0.894142 3.115793,0.842226 0.0873,-0.0097 0.143738,-0.01924 0.160331,-0.0232 L 40.824462,52.418258 37.826366,25.511132 Z m -20.246349,2.255927 c -1.274732,0.142035 -2.428836,-0.783539 -2.571457,-2.063529 -0.142621,-1.279991 0.778392,-2.43678 2.054176,-2.578933 l 18.002948,-2.005957 c -0.539862,2.083304 -0.157,3.62722 0.384759,4.657227 z"
       id="path53709"
       style="fill:#008b8b;fill-opacity:1;stroke-width:0.0661416" />
    <path
       d="m 26.341713,38.95339 c -0.567716,0.118788 -1.023483,0.123599 -1.36729,0.01449 -0.345457,-0.117013 -0.667808,-0.300586 -0.967049,-0.55072 -0.186324,0.368192 -0.41904,0.672018 -0.698142,0.911479 -0.280755,0.231576 -0.69316,0.404281 -1.237223,0.518117 -0.473096,0.09899 -0.924273,0.08639 -1.353532,-0.03777 -0.421372,-0.125818 -0.786165,-0.374582 -1.094383,-0.74629 -0.309869,-0.379593 -0.533269,-0.896616 -0.670203,-1.551066 -0.117135,-0.559832 -0.09262,-1.091691 0.07355,-1.595576 0.172399,-0.513421 0.494698,-0.959443 0.966896,-1.338068 0.47055,-0.38651 1.100072,-0.662254 1.888566,-0.827234 0.118275,-0.02475 0.233434,-0.04472 0.345471,-0.05994 0.112042,-0.0152 0.200426,-0.02545 0.265158,-0.03075 l 0.203184,1.26608 c -0.05685,0.0036 -0.11681,0.01208 -0.179888,0.02528 -0.06473,0.0053 -0.14835,0.01864 -0.250852,0.04013 -0.930799,0.207548 -2.251417,0.995067 -2.132866,1.606718 0.09074,0.433672 0.271244,0.745686 0.541519,0.93604 0.268623,0.182469 0.60794,0.23081 1.017961,0.14502 0.441555,-0.09239 0.765397,-0.275369 0.971521,-0.548941 0.214009,-0.275223 0.274819,-0.633612 0.18243,-1.07517 l -0.0198,-0.09462 1.241881,-0.259843 0.01728,0.0828 c 0.09074,0.433672 0.282247,0.739268 0.574525,0.916789 0.292278,0.177519 0.678905,0.215961 1.159889,0.115323 0.394247,-0.08249 0.683433,-0.254104 0.867552,-0.514841 0.192003,-0.262388 0.245936,-0.594648 0.161795,-0.996781 -0.149782,-0.154608 -0.525111,-0.471048 -0.981352,-0.560072 -0.221505,-0.03595 -0.485374,-0.03836 -0.791601,-0.0072 -0.299994,0.02161 -0.647107,0.07371 -1.041359,0.156159 l -0.638683,0.133629 -0.09899,-0.473097 c -0.160032,-0.764841 -0.115243,-1.416163 0.134353,-1.953966 0.257485,-0.539453 0.768648,-0.889195 1.53349,-1.049225 0.559829,-0.117135 1.021367,-0.09436 1.384611,0.0683 0.369474,0.153138 0.604535,0.470197 0.705171,0.951179 0.02806,0.134043 0.04544,0.315583 0.05223,0.544607 l -1.302108,0.14901 c -3.51e-4,-0.04107 -0.0031,-0.07343 -0.008,-0.09709 l -0.0198,-0.09462 c -0.06434,-0.307514 -0.289691,-0.420851 -0.676056,-0.340011 -0.252317,0.0528 -0.426709,0.163354 -0.523171,0.331679 -0.09023,0.158792 -0.12343,0.334457 -0.09961,0.526996 0.362708,-0.07589 0.742373,-0.110067 1.138999,-0.102522 0.394977,-3.41e-4 0.770786,0.06505 1.12743,0.196187 0.362878,0.121597 0.679997,0.339184 0.951365,0.652762 0.271365,0.313578 0.463964,0.742398 0.577798,1.286459 0.135282,0.646567 0.132401,1.202714 -0.0089,1.66847 -0.134989,0.456211 -0.375042,0.823299 -0.720161,1.101264 -0.337232,0.276314 -0.738455,0.46314 -1.203665,0.560477 z"
       style="font-weight:bold;font-size:40px;line-height:0.75;-inkscape-font-specification:'sans-serif Bold';text-align:end;text-anchor:end;white-space:pre;fill:#ffffff;stroke-width:0.302088"
       id="path53711" />
    <g
       id="g53726"
       transform="matrix(0.26295603,-0.02929957,0.02929957,0.26295603,-47.810774,27.067321)">
      <path
         d="m 273.96242,107.91869 c -1.45481,0.13905 -2.75529,-0.0272 -3.90145,-0.49877 -1.11584,-0.47448 -2.13797,-1.24847 -3.06639,-2.32198 -0.57119,1.06392 -1.37047,1.98141 -2.39785,2.75249 -0.99996,0.73787 -2.27282,1.18068 -3.81856,1.32842 -1.60635,0.15354 -2.97325,-0.0675 -4.10068,-0.66324 -1.12742,-0.59571 -2.01751,-1.4282 -2.67025,-2.49747 -0.62243,-1.07217 -0.99304,-2.22958 -1.11181,-3.47224 l -0.0435,-0.45462 -0.73343,1.44645 -7.47861,1.60704 c 1.54063,-2.44117 5.91966,-8.477411 7.40412,-10.546185 1.51477,-2.07167 2.93149,-3.889285 4.25015,-5.452842 -0.62845,-1.775063 -1.60946,-2.598861 -2.94304,-2.471396 -0.7274,0.06953 -1.20577,0.34464 -1.43509,0.825342 -0.20191,0.447495 -0.27535,0.959175 -0.2203,1.535039 0.0319,0.333394 0.0955,0.679043 0.19087,1.036956 0.0953,0.357913 0.20446,0.699217 0.32726,1.02392 l -4.49202,3.395266 c -0.2369,-0.558482 -0.88709,-3.03405 -1.03306,-3.601224 -0.14886,-0.597481 -0.25661,-1.244771 -0.32324,-1.941869 -0.17961,-1.879133 0.28606,-3.40704 1.39701,-4.583719 1.10806,-1.206988 2.79865,-1.919116 5.0718,-2.136386 1.66698,-0.159332 3.07933,0.05741 4.23707,0.650215 1.15774,0.592807 2.11279,1.464966 2.86514,2.616475 2.16864,-1.950655 4.38508,-3.401218 6.64932,-4.351689 2.26423,-0.950471 4.85116,-1.564759 7.76079,-1.842866 3.57642,-0.341839 6.65296,0.0064 9.22963,1.044707 2.57377,1.008 4.58917,2.574033 6.0462,4.698095 1.48443,2.090858 2.3686,4.621408 2.6525,7.591652 0.26362,2.758084 0.0184,5.151903 -0.73581,7.181459 -0.72385,2.02666 -1.85487,3.63345 -3.39303,4.82038 -1.51076,1.15372 -3.31179,1.83053 -5.40308,2.03042 l -0.81833,0.0782 c -0.33339,0.0319 -0.59392,0.0261 -0.78156,-0.0171 l -0.27008,-4.74552 c 0.12414,0.0187 0.26198,0.0208 0.41352,0.006 l 0.40916,-0.0391 c 1.51543,-0.14485 2.69446,-0.60927 3.53709,-1.39328 0.87005,-0.817211 1.44413,-1.850818 1.72226,-3.100824 0.30844,-1.252901 0.39314,-2.606759 0.25409,-4.061572 -0.29259,-3.061169 -1.52163,-5.359951 -3.68713,-6.896344 -2.16549,-1.536393 -5.18799,-2.119185 -9.06749,-1.748377 -2.00037,0.191198 -3.73152,0.479007 -5.19347,0.863425 -1.43164,0.381522 -2.71675,0.856088 -3.85533,1.423698 -1.10827,0.564712 -2.16095,1.23116 -3.15802,1.999343 0.67103,-0.339407 1.42217,-0.640594 2.25343,-0.90356 0.82837,-0.293275 1.69717,-0.483366 2.60643,-0.570274 4.2432,-0.405571 7.53058,0.228369 9.86209,1.90182 2.33152,1.673451 3.65662,4.177151 3.97528,7.511097 0.29549,3.091478 -0.10489,5.622468 -1.20114,7.592958 -1.06594,1.9676 -2.99311,3.08466 -5.7815,3.35118 z m -5.73291,-12.940245 c 0.15064,1.576048 0.54219,2.792628 1.17465,3.649741 0.63246,0.857114 2.70117,2.609644 5.40769,0.919904 4.42636,-5.128211 -3.64597,-7.980258 -8.47338,-7.554497 -1.69728,0.162228 -3.16001,0.378505 -4.38818,0.648819 -3.48817,0.863904 -5.17109,3.017564 -5.17109,3.017564 0,0 -0.0273,0.354339 -0.0431,0.508783 l 0.0261,0.272777 c 0.12167,1.272962 0.36736,2.243508 0.73708,2.911636 0.39713,0.634923 0.85119,1.065598 1.36221,1.292028 0.53842,0.19322 1.09556,0.26231 1.67143,0.20726 1.12142,-0.10718 1.9793,-0.5715 2.57367,-1.392947 0.59148,-0.851757 0.46715,-5.672384 0.63517,-3.914484 l -0.0478,-0.500092 4.50083,-0.430196 z"
         style="font-weight:bold;font-size:40px;line-height:0.75;-inkscape-font-specification:'sans-serif Bold';text-align:end;text-anchor:end;white-space:pre;fill:#ffffff;stroke-width:1.14175"
         id="path53713" />
      <path
         d="m 298.78509,105.5461 c -0.69709,0.0666 -1.49091,0.0814 -2.38145,0.0441 -0.88764,-0.007 -1.67644,-0.0997 -2.36641,-0.27848 l -2.71527,-7.769165 c 0.49943,0.105191 4.01847,1.084013 4.5121,1.128587 0.52104,0.01137 1.02403,-0.0061 1.50897,-0.05247 1.4245,-0.136156 2.48519,-0.558686 3.18208,-1.267591 0.69398,-0.739214 1.11797,-1.743182 1.27198,-3.011908 0.18431,-1.271622 0.41117,-0.498083 0.24605,-2.225674 -0.24624,-2.576232 -0.79825,-4.511528 -1.65602,-5.805889 -0.86066,-1.32467 -2.27603,-1.892853 -4.24609,-1.704553 -0.45462,0.04345 -0.95182,0.121566 -1.49158,0.234325 -0.50945,0.109861 -3.3245,1.882087 -3.88008,2.14929 l 0.93872,-6.043073 c 0.64942,-0.245585 1.33202,-0.463757 2.04784,-0.654518 0.74324,-0.223966 1.69072,-0.390992 2.84244,-0.501075 3.12179,-0.298385 5.69333,0.526316 7.71463,2.474102 2.04872,1.914581 3.28165,5.054092 3.69881,9.418532 0.41137,4.303823 -0.18936,7.618598 -1.8022,9.94432 -1.58542,2.29252 -4.06026,3.59956 -7.42452,3.92112 z"
         style="font-weight:bold;font-size:40px;line-height:0.75;-inkscape-font-specification:'sans-serif Bold';text-align:end;text-anchor:end;white-space:pre;fill:#ffffff;stroke-width:1.14175"
         id="path53715" />
    </g>
    <polyline
       style="fill:#ee1e45;fill-opacity:1"
       points="143.208,102.624 143.208,357.664 226.536,284.064 304.312,356.32 304.312,102.624 "
       id="polyline53719"
       transform="matrix(0.04560465,-0.00508144,0.00643805,0.0577798,20.531033,21.435032)" />
    <text
       xml:space="preserve"
       style="font-style:normal;font-weight:normal;font-size:10.5833px;line-height:0.75;font-family:sans-serif;fill:#008b8b;fill-opacity:1;stroke:none;stroke-width:0.264583"
       x="72.331734"
       y="35.075165"
       id="text20459"><tspan
         sodipodi:role="line"
         id="tspan20457"
         style="font-size:19.7556px;text-align:center;text-anchor:middle;fill:#008b8b;fill-opacity:1;stroke-width:0.264583"
         x="72.331734"
         y="35.075165">YAKA</tspan><tspan
         sodipodi:role="line"
         style="font-style:normal;font-variant:normal;font-weight:normal;font-stretch:normal;font-size:5.99722px;font-family:Dyuthi;-inkscape-font-specification:Dyuthi;text-align:center;text-anchor:middle;fill:#333333;fill-opacity:1;stroke-width:0.264583"
         x="72.331734"
         y="44.069603"
         id="tspan20461">SINHALA &amp; ENGLISH</tspan><tspan
         sodipodi:role="line"
         style="font-style:normal;font-variant:normal;font-weight:normal;font-stretch:normal;font-size:9.87778px;font-family:Dyuthi;-inkscape-font-specification:Dyuthi;text-align:center;text-anchor:middle;fill:#333333;fill-opacity:1;stroke-width:0.264583"
         x="72.331734"
         y="52.00708"
         id="tspan20463">DICTIONARY</tspan></text>
  </g>
</svg>
