<?xml version="1.0" encoding="UTF-8" standalone="no"?>
<!-- Generator: Adobe Illustrator 19.0.0, SVG Export Plug-In . SVG Version: 6.00 Build 0)  -->

<svg
   version="1.1"
   id="Layer_1"
   x="0px"
   y="0px"
   viewBox="0 0 512.032 512.032"
   style="enable-background:new 0 0 512.032 512.032;"
   xml:space="preserve"
   xmlns="http://www.w3.org/2000/svg"
   xmlns:svg="http://www.w3.org/2000/svg"><defs
   id="defs41" />
<rect
   x="83.368"
   y="24.32"
   style="fill:#ffffff"
   width="324.672"
   height="86"
   id="rect2" />
<path
   d="M432.712,102.624c-5.728-7.36-19.232-30.96,0.816-70.624h12.528V0H124.712c-37.04,0-67.184,30.208-67.184,67.312v358.24  c0,30.288,8.352,53.376,24.832,68.608c17.584,16.272,38.32,17.872,45.408,17.872c1.328,0,2.192-0.048,2.448-0.08h324.288V102.624  H432.712z M124.712,102.624c-19.392,0-35.184-15.84-35.184-35.312S105.304,32,124.712,32h273.872  c-11.6,30.4-8.432,54.24-2.016,70.624H124.712z"
   id="path4"
   style="fill:#008b8b;fill-opacity:1" />
<polyline
   style="fill:#ee1e45;fill-opacity:1"
   points="143.208,102.624 143.208,357.664 226.536,284.064 304.312,356.32 304.312,102.624 "
   id="polyline6" />
<g
   id="g8">
</g>
<g
   id="g10">
</g>
<g
   id="g12">
</g>
<g
   id="g14">
</g>
<g
   id="g16">
</g>
<g
   id="g18">
</g>
<g
   id="g20">
</g>
<g
   id="g22">
</g>
<g
   id="g24">
</g>
<g
   id="g26">
</g>
<g
   id="g28">
</g>
<g
   id="g30">
</g>
<g
   id="g32">
</g>
<g
   id="g34">
</g>
<g
   id="g36">
</g>
</svg>
