<?xml version="1.0" encoding="UTF-8" standalone="no"?>
<svg
   id="svg"
   version="1.1"
   width="128"
   height="128"
   viewBox="0 0 128 128.00001"
   xmlns="http://www.w3.org/2000/svg"
   xmlns:svg="http://www.w3.org/2000/svg">
  <defs
     id="defs11">
    <rect
       x="32.99385"
       y="42.297155"
       width="118.66453"
       height="138.27875"
       id="rect6695" />
    <rect
       x="32.993851"
       y="42.297153"
       width="118.66453"
       height="138.27875"
       id="rect6695-3" />
    <rect
       x="32.993851"
       y="42.297153"
       width="118.66453"
       height="138.27875"
       id="rect50876" />
  </defs>
  <rect
     x="20.459589"
     y="6.079618"
     style="fill:#ffffff;stroke-width:0.249984"
     width="81.162926"
     height="21.498655"
     id="rect53707" />
  <path
     d="m 107.79014,25.654397 c -1.43192,-1.839888 -4.8077,-7.739517 0.20399,-17.6548945 h 3.1318 V 0 H 30.79495 C 21.53553,0 14,7.5515291 14,16.82695 v 89.5544 c 0,7.57153 2.08787,13.34317 6.20761,17.15093 4.39572,4.06775 9.5794,4.46772 11.35129,4.46772 0.33198,0 0.54797,-0.012 0.61196,-0.02 H 113.2378 V 25.654397 Z m -76.99519,0 c -4.8477,0 -8.79545,-3.959755 -8.79545,-8.827447 0,-4.867699 3.94375,-8.8274475 8.79545,-8.8274475 H 99.25867 C 96.35885,15.599027 97.1508,21.558653 98.7547,25.654397 Z"
     id="path53709"
     style="fill:#008b8b;fill-opacity:1;stroke-width:0.249984" />
  <path
     d="m 64.47209,71.340525 c -2.18222,0.20858 -3.89622,0.03597 -5.14199,-0.517844 -1.24866,-0.584117 -2.38267,-1.408586 -3.40201,-2.473404 -0.85399,1.305046 -1.8553,2.348902 -3.00391,3.13157 -1.15152,0.752358 -2.77291,1.228482 -4.86421,1.42837 -1.81851,0.173817 -3.50799,-0.06231 -5.06844,-0.708386 -1.53013,-0.64897 -2.79628,-1.736078 -3.79846,-3.261319 -1.00508,-1.555551 -1.62784,-3.591134 -1.86829,-6.106748 -0.20568,-2.151911 0.10901,-4.139462 0.94407,-5.962652 0.86247,-1.856396 2.25979,-3.396886 4.19197,-4.621475 1.92929,-1.254896 4.40936,-2.02719 7.44022,-2.316885 0.45463,-0.04345 0.89556,-0.07031 1.32277,-0.08055 0.42722,-0.01024 0.76351,-0.01181 1.00888,-0.0047 l 0.2333,4.840796 c -0.21507,-0.01003 -0.44383,-0.0035 -0.68629,0.01972 -0.24537,-0.0071 -0.56505,0.0081 -0.95907,0.04579 -3.58321,0.39003 -8.87343,2.795443 -8.68412,5.142596 0.15934,1.666974 0.70677,2.914533 1.64233,3.742676 0.93265,0.797835 2.18699,1.121433 3.76305,0.970792 1.69727,-0.162228 2.9903,-0.714014 3.87906,-1.655357 0.91907,-0.944241 1.29749,-2.265002 1.13526,-3.962284 l -0.0348,-0.363703 4.77361,-0.456268 0.0304,0.318241 c 0.15934,1.666974 0.75079,2.895033 1.77437,3.684177 1.02358,0.789144 2.45977,1.095361 4.3086,0.918647 1.51543,-0.144847 2.67352,-0.668443 3.47425,-1.570786 0.83104,-0.905241 1.17269,-2.130731 1.02494,-3.67647 -0.49791,-0.643442 -1.77531,-1.98917 -3.45182,-2.514522 -0.81699,-0.227766 -1.80715,-0.347223 -2.97046,-0.358375 -1.13591,-0.04436 -2.46157,0.0059 -3.977,0.150736 l -2.455,0.234652 -0.17381,-1.818516 c -0.28101,-2.939936 0.15983,-5.367741 1.32248,-7.283413 1.19297,-1.91857 3.25942,-3.018357 6.19936,-3.29936 2.1519,-0.205683 3.87604,0.07301 5.1724,0.836084 1.32376,0.729867 2.07401,2.019212 2.25072,3.868038 0.0493,0.515246 0.0386,1.204436 -0.0318,2.067558 l -4.95345,0.01468 c 0.0159,-0.154443 0.0194,-0.277123 0.0107,-0.368049 L 64.8151,49.010879 C 64.70212,47.828843 63.90308,47.3088 62.41795,47.45075 c -0.96987,0.0927 -1.67121,0.435006 -2.104,1.026912 -0.40538,0.5587 -0.60362,1.204652 -0.59471,1.937852 1.3942,-0.13326 2.83463,-0.102718 4.32131,0.09162 1.48379,0.164033 2.86806,0.566968 4.15283,1.208806 1.31218,0.608632 2.4123,1.55868 3.30039,2.850144 0.88808,1.291464 1.43206,2.982843 1.63194,5.074137 0.23755,2.485307 -0.006,4.573144 -0.73179,6.263511 -0.698,1.657162 -1.75335,2.935575 -3.16605,3.835241 -1.38239,0.896768 -2.96769,1.430612 -4.75589,1.601531 z"
     style="font-weight:bold;font-size:40px;line-height:0.75;-inkscape-font-specification:'sans-serif Bold';text-align:end;text-anchor:end;white-space:pre;fill:#ffffff;stroke-width:1.14175"
     id="path53711" />
  <g
     id="g53726"
     transform="translate(-209.09077,-4.3426311)">
    <path
       d="m 273.96242,107.91869 c -1.45481,0.13905 -2.75529,-0.0272 -3.90145,-0.49877 -1.11584,-0.47448 -2.13797,-1.24847 -3.06639,-2.32198 -0.57119,1.06392 -1.37047,1.98141 -2.39785,2.75249 -0.99996,0.73787 -2.27282,1.18068 -3.81856,1.32842 -1.60635,0.15354 -2.97325,-0.0675 -4.10068,-0.66324 -1.12742,-0.59571 -2.01751,-1.4282 -2.67025,-2.49747 -0.62243,-1.07217 -0.99304,-2.22958 -1.11181,-3.47224 l -0.0435,-0.45462 -0.73343,1.44645 -7.47861,1.60704 c 1.54063,-2.44117 5.91966,-8.477411 7.40412,-10.546185 1.51477,-2.07167 2.93149,-3.889285 4.25015,-5.452842 -0.62845,-1.775063 -1.60946,-2.598861 -2.94304,-2.471396 -0.7274,0.06953 -1.20577,0.34464 -1.43509,0.825342 -0.20191,0.447495 -0.27535,0.959175 -0.2203,1.535039 0.0319,0.333394 0.0955,0.679043 0.19087,1.036956 0.0953,0.357913 0.20446,0.699217 0.32726,1.02392 l -4.49202,3.395266 c -0.2369,-0.558482 -0.88709,-3.03405 -1.03306,-3.601224 -0.14886,-0.597481 -0.25661,-1.244771 -0.32324,-1.941869 -0.17961,-1.879133 0.28606,-3.40704 1.39701,-4.583719 1.10806,-1.206988 2.79865,-1.919116 5.0718,-2.136386 1.66698,-0.159332 3.07933,0.05741 4.23707,0.650215 1.15774,0.592807 2.11279,1.464966 2.86514,2.616475 2.16864,-1.950655 4.38508,-3.401218 6.64932,-4.351689 2.26423,-0.950471 4.85116,-1.564759 7.76079,-1.842866 3.57642,-0.341839 6.65296,0.0064 9.22963,1.044707 2.57377,1.008 4.58917,2.574033 6.0462,4.698095 1.48443,2.090858 2.3686,4.621408 2.6525,7.591652 0.26362,2.758084 0.0184,5.151903 -0.73581,7.181459 -0.72385,2.02666 -1.85487,3.63345 -3.39303,4.82038 -1.51076,1.15372 -3.31179,1.83053 -5.40308,2.03042 l -0.81833,0.0782 c -0.33339,0.0319 -0.59392,0.0261 -0.78156,-0.0171 l -0.27008,-4.74552 c 0.12414,0.0187 0.26198,0.0208 0.41352,0.006 l 0.40916,-0.0391 c 1.51543,-0.14485 2.69446,-0.60927 3.53709,-1.39328 0.87005,-0.817211 1.44413,-1.850818 1.72226,-3.100824 0.30844,-1.252901 0.39314,-2.606759 0.25409,-4.061572 -0.29259,-3.061169 -1.52163,-5.359951 -3.68713,-6.896344 -2.16549,-1.536393 -5.18799,-2.119185 -9.06749,-1.748377 -2.00037,0.191198 -3.73152,0.479007 -5.19347,0.863425 -1.43164,0.381522 -2.71675,0.856088 -3.85533,1.423698 -1.10827,0.564712 -2.16095,1.23116 -3.15802,1.999343 0.67103,-0.339407 1.42217,-0.640594 2.25343,-0.90356 0.82837,-0.293275 1.69717,-0.483366 2.60643,-0.570274 4.2432,-0.405571 7.53058,0.228369 9.86209,1.90182 2.33152,1.673451 3.65662,4.177151 3.97528,7.511097 0.29549,3.091478 -0.10489,5.622468 -1.20114,7.592958 -1.06594,1.9676 -2.99311,3.08466 -5.7815,3.35118 z m -5.73291,-12.940245 c 0.15064,1.576048 0.54219,2.792628 1.17465,3.649741 0.63246,0.857114 2.70117,2.609644 5.40769,0.919904 4.42636,-5.128211 -3.64597,-7.980258 -8.47338,-7.554497 -1.69728,0.162228 -3.16001,0.378505 -4.38818,0.648819 -3.48817,0.863904 -5.17109,3.017564 -5.17109,3.017564 0,0 -0.0273,0.354339 -0.0431,0.508783 l 0.0261,0.272777 c 0.12167,1.272962 0.36736,2.243508 0.73708,2.911636 0.39713,0.634923 0.85119,1.065598 1.36221,1.292028 0.53842,0.19322 1.09556,0.26231 1.67143,0.20726 1.12142,-0.10718 1.9793,-0.5715 2.57367,-1.392947 0.59148,-0.851757 0.46715,-5.672384 0.63517,-3.914484 l -0.0478,-0.500092 4.50083,-0.430196 z"
       style="font-weight:bold;font-size:40px;line-height:0.75;-inkscape-font-specification:'sans-serif Bold';text-align:end;text-anchor:end;white-space:pre;fill:#ffffff;stroke-width:1.14175"
       id="path53713" />
    <path
       d="m 298.78509,105.5461 c -0.69709,0.0666 -1.49091,0.0814 -2.38145,0.0441 -0.88764,-0.007 -1.67644,-0.0997 -2.36641,-0.27848 l -2.71527,-7.769165 c 0.49943,0.105191 4.01847,1.084013 4.5121,1.128587 0.52104,0.01137 1.02403,-0.0061 1.50897,-0.05247 1.4245,-0.136156 2.48519,-0.558686 3.18208,-1.267591 0.69398,-0.739214 1.11797,-1.743182 1.27198,-3.011908 0.18431,-1.271622 0.41117,-0.498083 0.24605,-2.225674 -0.24624,-2.576232 -0.79825,-4.511528 -1.65602,-5.805889 -0.86066,-1.32467 -2.27603,-1.892853 -4.24609,-1.704553 -0.45462,0.04345 -0.95182,0.121566 -1.49158,0.234325 -0.50945,0.109861 -3.3245,1.882087 -3.88008,2.14929 l 0.93872,-6.043073 c 0.64942,-0.245585 1.33202,-0.463757 2.04784,-0.654518 0.74324,-0.223966 1.69072,-0.390992 2.84244,-0.501075 3.12179,-0.298385 5.69333,0.526316 7.71463,2.474102 2.04872,1.914581 3.28165,5.054092 3.69881,9.418532 0.41137,4.303823 -0.18936,7.618598 -1.8022,9.94432 -1.58542,2.29252 -4.06026,3.59956 -7.42452,3.92112 z"
       style="font-weight:bold;font-size:40px;line-height:0.75;-inkscape-font-specification:'sans-serif Bold';text-align:end;text-anchor:end;white-space:pre;fill:#ffffff;stroke-width:1.14175"
       id="path53715" />
  </g>
  <polyline
     style="fill:#ee1e45;fill-opacity:1"
     points="143.208,102.624 143.208,357.664 226.536,284.064 304.312,356.32 304.312,102.624 "
     id="polyline53719"
     transform="matrix(0.17343068,0,0,0.21973181,49.97766,3.1046399)" />
</svg>
